<?xml version="1.0" standalone="no"?>
<!DOCTYPE svg PUBLIC "-//W3C//DTD SVG 1.1//EN" "http://www.w3.org/Graphics/SVG/1.1/DTD/svg11.dtd" >
<svg>
<metadata>
Created by FontForge 20090914 at Thu Nov 22 06:02:58 2018
 By www-data
&#194;&#169; Dutch Design: Albert-Jan Pool, 1995. Published by FontShop International FontFont release 15
</metadata>
<defs>
<font id="DINLightAlternate" horiz-adv-x="500" >
  <font-face 
    font-family="DIN"
    font-weight="400"
    font-stretch="normal"
    units-per-em="1000"
    panose-1="0 0 4 0 0 0 0 0 0 0"
    ascent="800"
    descent="-200"
    x-height="482"
    cap-height="712"
    bbox="-100 -236 1099 974.999"
    underline-thickness="38"
    underline-position="-122"
    unicode-range="U+0020-U+F002"
  />
<missing-glyph 
d="M63 0v764h375v-764h-375zM125 63h250v639h-250v-639z" />
    <glyph glyph-name=".notdef" 
d="M63 0v764h375v-764h-375zM125 63h250v639h-250v-639z" />
    <glyph glyph-name="space" unicode=" " horiz-adv-x="255" 
 />
    <glyph glyph-name="exclam" unicode="!" horiz-adv-x="304" 
d="M195 712l-6 -520h-44l-6 520h56zM207 37c0 -10.667 -3.83301 -20 -11.5 -28s-17.167 -12 -28.5 -12c-10.667 0 -20 4 -28 12s-12 17.333 -12 28c0 11.333 4 20.833 12 28.5s17.333 11.5 28 11.5c11.333 0 20.833 -3.83301 28.5 -11.5s11.5 -17.167 11.5 -28.5z" />
    <glyph glyph-name="quotedbl" unicode="&#x22;" horiz-adv-x="408" 
d="M313 556h-63v156h63v-156zM158 556h-63v156h63v-156z" />
    <glyph glyph-name="numbersign" unicode="#" horiz-adv-x="639" 
d="M588 437h-100l-25 -153h96v-44h-103l-38 -240h-51l39 240h-176l-37 -240h-51l38 240h-96v44h103l25 153h-99v45h105l36 230h52l-37 -230h175l36 230h50l-36 -230h94v-45zM437 437h-175l-25 -153h175z" />
    <glyph glyph-name="dollar" unicode="$" horiz-adv-x="587" 
d="M528 191c0 -57.333 -19.501 -103.5 -58.501 -138.5s-92.167 -54.167 -159.5 -57.5v-109h-45v108c-83.333 3.33301 -154.666 34.666 -213.999 93.999l38 38c51.333 -51.333 110 -79 176 -83v295l-16 2c-51.333 6.66699 -93.666 24 -126.999 52
c-37.333 31.333 -56 75 -56 131s17.833 101.333 53.5 136s84.167 54 145.5 58v89h45v-89c67.333 -3.33301 128 -28.666 182 -75.999l-35 -35c-44 39.333 -93 61 -147 65v-290l29 -5c59.333 -10 101.666 -25.667 126.999 -47c41.333 -34 62 -80 62 -138zM264.999 388
l0.000976562 283c-46 -3.33301 -81.833 -18 -107.5 -44s-38.5 -60 -38.5 -102c0 -41.333 12.333 -72.333 37 -93c27.333 -23.333 63.666 -38 108.999 -44zM474 189c0 44 -12.999 77.335 -38.999 100.002c-16.667 14.667 -36.334 24.667 -59.001 30c-6 2 -28 5.66699 -66 11
v-287c50.667 3.33301 90.667 17.666 120 42.999s44 59.666 44 102.999z" />
    <glyph glyph-name="percent" unicode="%" horiz-adv-x="828" 
d="M759 127c0 -39.333 -12.167 -71.5 -36.5 -96.5s-55.833 -37.5 -94.5 -37.5s-70.334 12.5 -95.001 37.5s-37 57.167 -37 96.5v107c0 39.333 12.333 71.5 37 96.5s56.334 37.5 95.001 37.5s70.167 -12.5 94.5 -37.5s36.5 -57.167 36.5 -96.5v-107zM603 712l-332 -712h-45
l332 712h45zM332 478c0 -39.333 -12.167 -71.333 -36.5 -96s-55.833 -37 -94.5 -37s-70.334 12.333 -95.001 37s-37 56.667 -37 96v107c0 39.333 12.333 71.5 37 96.5s56.334 37.5 95.001 37.5s70.167 -12.5 94.5 -37.5s36.5 -57.167 36.5 -96.5v-107zM715 129v103
c0 65.333 -29 98 -87 98c-58.667 0 -88 -32.667 -88 -98v-103c0 -65.333 29.333 -98 88 -98c58 0 87 32.667 87 98zM288 480v103c0 65.333 -29 98 -87 98c-58.667 0 -88 -32.667 -88 -98v-103c0 -64.667 29.333 -97 88 -97c58 0 87 32.333 87 97z" />
    <glyph glyph-name="ampersand" unicode="&#x26;" horiz-adv-x="746" 
d="M662 0l-69 -0.00195312l-69 84c-62 -60 -135 -90 -219 -90c-65.333 0 -118.5 18.667 -159.5 56s-61.5 86.333 -61.5 147c0 50 16.667 94 50 132c20 22.667 57.667 52.334 113 89.001c-52.667 62.667 -79 115.334 -79 158.001c0 40 14 73.667 42 101s62.333 41 103 41
s75 -13.833 103 -41.5s42 -61.5 42 -101.5c0 -48 -27.333 -90.667 -82 -128l-53 -36l204 -247c16 24.667 27 49.167 33 73.5s9 58.833 9 103.5h53c0 -94 -20.667 -166.333 -62 -217zM405 574.998c0 26.667 -8.83301 49.168 -26.5 67.501s-39.5 27.5 -65.5 27.5
s-47.667 -8.66699 -65 -26s-26 -39.333 -26 -66c0 -30.667 23.333 -74.334 70 -131.001l41 28c48 32.667 72 66 72 100zM494 120.999l-215.998 261c-48.667 -33.333 -80.334 -58 -95.001 -74c-30 -31.333 -45 -67.333 -45 -108c0 -46.667 15.333 -84.667 46 -114
s70.667 -44 120 -44c67.333 0 130.666 26.333 189.999 79z" />
    <glyph glyph-name="quotesingle" unicode="'" horiz-adv-x="253" 
d="M158 556h-63v156h63v-156z" />
    <glyph glyph-name="parenleft" unicode="(" horiz-adv-x="284" 
d="M217 -59l-35 -35c-20 20 -33 33.333 -39 40c-10.667 12.667 -19.667 26 -27 40c-12.667 24.667 -19 55.667 -19 93v554c0 37.333 6.33301 68.333 19 93c10 19.333 32 46 66 80l35 -35l-31 -31c-10 -12 -17.667 -23.333 -23 -34c-10 -20.667 -15 -47 -15 -79v-542
c0 -32 5 -58.333 15 -79c6.66699 -14 24.667 -35.667 54 -65z" />
    <glyph glyph-name="parenright" unicode=")" horiz-adv-x="284" 
d="M187 79c0 -38 -6.33203 -69.001 -18.999 -93.001c-10.667 -20 -32.667 -46.667 -66 -80l-37 37l31 31c10 12 17.667 23.333 23 34c9.33301 19.333 14 45 14 77v542c0 32 -4.66699 57.667 -14 77c-6.66699 14 -24.667 35.667 -54 65l37 37
c19.333 -19.333 32 -32.666 38 -39.999c11.333 -12.667 20.666 -26 27.999 -40c12.667 -24 19 -55 19 -93v-554z" />
    <glyph glyph-name="asterisk" unicode="*" horiz-adv-x="467" 
d="M395 476l-22 -38l-120 73l3 -141h-45l3 141l-120 -73l-22 38l123 68l-123 68l22 38l120 -73l-3 141h45l-3 -141l120 73l22 -38l-123 -68z" />
    <glyph glyph-name="plus" unicode="+" horiz-adv-x="514" 
d="M461 240h-180v-181h-47v181h-181v47h181v180h47v-180h180v-47z" />
    <glyph glyph-name="comma" unicode="," horiz-adv-x="258" 
d="M163 -68l-68 -68v204h68v-136z" />
    <glyph glyph-name="hyphen" unicode="-" horiz-adv-x="426" 
d="M344 240h-262v47h262v-47z" />
    <glyph glyph-name="hyphen" unicode="&#x2010;" horiz-adv-x="426" 
d="M344 240h-262v47h262v-47z" />
    <glyph glyph-name="period" unicode="." horiz-adv-x="264" 
d="M178 43c0 -12.667 -4.5 -23.5 -13.5 -32.5s-19.833 -13.5 -32.5 -13.5s-23.5 4.5 -32.5 13.5s-13.5 19.833 -13.5 32.5s4.5 23.5 13.5 32.5s19.833 13.5 32.5 13.5s23.5 -4.5 32.5 -13.5s13.5 -19.833 13.5 -32.5z" />
    <glyph glyph-name="slash" unicode="/" horiz-adv-x="338" 
d="M338 786l-285 -860h-53l285 860h53z" />
    <glyph glyph-name="zero" unicode="0" horiz-adv-x="514" 
d="M444 184c0 -55.333 -17.5 -100.833 -52.5 -136.5s-79.833 -53.5 -134.5 -53.5s-99.5 17.833 -134.5 53.5s-52.5 81.167 -52.5 136.5v229c0 55.333 17.5 100.833 52.5 136.5s79.833 53.5 134.5 53.5s99.5 -17.833 134.5 -53.5s52.5 -81.167 52.5 -136.5v-229zM393 189v219
c0 44 -11.833 80 -35.5 108s-57.167 42 -100.5 42s-76.833 -14 -100.5 -42s-35.5 -64 -35.5 -108v-219c0 -44 11.667 -79.333 35 -106c24 -29.333 57.667 -44 101 -44s77 14.667 101 44c23.333 26.667 35 62 35 106z" />
    <glyph glyph-name="one" unicode="1" horiz-adv-x="350" 
d="M230 0h-51v539l-129 -114v61l129 111h51v-597z" />
    <glyph glyph-name="two" unicode="2" horiz-adv-x="491" 
d="M436 0l-396 -0.00195312v45l258 258c44.667 44.667 67 92.334 67 143.001c0 36.667 -12.833 67.834 -38.5 93.501s-58.167 38.5 -97.5 38.5c-38 0 -70.167 -12.5 -96.5 -37.5s-39.5 -56.833 -39.5 -95.5h-51c0 50 17.667 92.167 53 126.5s80 51.5 134 51.5
c56 0 101.167 -17 135.5 -51s51.5 -76 51.5 -126c0 -60.667 -26.667 -117.667 -80 -171l-230 -230h330v-45z" />
    <glyph glyph-name="three" unicode="3" horiz-adv-x="509" 
d="M445 74c0 -61.333 -19.0039 -109.497 -57.0039 -144.497s-86.333 -52.5 -145 -52.5c-58 0 -104.667 14.667 -140 44c-38.667 31.333 -59.667 76.666 -63 135.999h51c3.33301 -45.333 20.333 -80 51 -104c26.667 -20.667 60.334 -31 101.001 -31
c43.333 0 79.333 13.667 108 41s43 64.333 43 111c0 101.333 -51.667 152 -155 152h-12v45h12c94 0 141 47.667 141 143c0 45.333 -13 80.666 -39 105.999s-59 38 -99 38c-41.333 0 -74.166 -11.5 -98.499 -34.5s-38.833 -54.833 -43.5 -95.5h-51
c4.66699 54.667 25.334 97.667 62.001 129c34.667 30.667 78.334 46 131.001 46c56 0 101.5 -17.333 136.5 -52s52.5 -80.334 52.5 -137.001c0 -79.333 -33.667 -133.333 -101 -162c76.667 -26 115 -85.333 115 -178z" />
    <glyph glyph-name="four" unicode="4" horiz-adv-x="523" 
d="M483 30h-95v-153h-51v153h-302v45l272 550h53l-272 -550h249v226h51v-226h95v-45z" />
    <glyph glyph-name="five" unicode="5" horiz-adv-x="505" 
d="M437 118c0 -89.333 -18.333 -152.333 -55 -189c-34 -34 -79.667 -51 -137 -51c-114.667 0 -176.334 54.667 -185.001 164h51c10.667 -79.333 55.334 -119 134.001 -119c41.333 0 74 12 98 36c28.667 28.667 43 81.667 43 159c0 126.667 -44.333 190 -133 190
c-70.667 0 -113.667 -25 -129 -75h-45v364h342v-45h-297v-252c30.667 35.333 75.667 53 135 53c51.333 0 91.333 -14.333 120 -43c38.667 -38.667 58 -102.667 58 -192z" />
    <glyph glyph-name="six" unicode="6" horiz-adv-x="519" 
d="M464 219c0 -64.667 -17.667 -117.667 -53 -159c-38 -44 -88.333 -66 -151 -66c-64 0 -114.167 20 -150.5 60s-54.5 92.333 -54.5 157c0 54 15.333 108 46 162l202 355h53l-183 -314c28.667 14 59 21 91 21c62 0 111.333 -21 148 -63c34.667 -39.333 52 -90.333 52 -153z
M413 214c0 50 -13 91.333 -39 124c-28 36 -66.333 54 -115 54c-46.667 0 -83.834 -16.167 -111.501 -48.5s-41.5 -75.5 -41.5 -129.5c0 -53.333 13.833 -96.166 41.5 -128.499s64.834 -48.5 111.501 -48.5s84 16.167 112 48.5s42 75.166 42 128.499z" />
    <glyph glyph-name="seven" unicode="7" horiz-adv-x="483" 
d="M448 552l-300 -677h-53l300 677h-299v-112h-51v157h403v-45z" />
    <glyph glyph-name="eight" unicode="8" horiz-adv-x="526" 
d="M466 192c0 -56.667 -19.333 -103.835 -58 -141.502s-87 -56.5 -145 -56.5s-106.333 18.833 -145 56.5s-58 84.834 -58 141.501c0 78.667 37.667 138 113 178c-65.333 35.333 -98 89.333 -98 162c0 53.333 17.667 97.666 53 132.999s80.333 53 135 53
s99.667 -17.667 135 -53s53 -79.666 53 -132.999c0 -73.333 -32.333 -127.333 -97 -162c74.667 -39.333 112 -98.666 112 -177.999zM400 531.999c0 41.333 -12.667 75.166 -38 101.499s-58.333 39.5 -99 39.5s-73.667 -13.167 -99 -39.5s-38 -60.166 -38 -101.499
s12.667 -75.166 38 -101.499s58.333 -39.5 99 -39.5s73.667 13.167 99 39.5s38 60.166 38 101.499zM415 191.999c0 43.333 -14.667 79.833 -44 109.5s-65.333 44.5 -108 44.5s-78.667 -14.833 -108 -44.5s-44 -66.167 -44 -109.5s14.5 -79.666 43.5 -108.999
s65.167 -44 108.5 -44s79.5 14.667 108.5 44s43.5 65.666 43.5 108.999z" />
    <glyph glyph-name="nine" unicode="9" horiz-adv-x="519" 
d="M464 386c0 -54 -15.333 -108 -46 -162l-202 -355h-53l183 314c-28.667 -14 -59 -21 -91 -21c-62 0 -111.333 21 -148 63c-34.667 39.333 -52 90.333 -52 153c0 64.667 17.667 117.667 53 159c38 44 88.333 66 151 66c64 0 114.167 -20 150.5 -60s54.5 -92.333 54.5 -157z
M413 383c0 53.333 -13.833 96.166 -41.5 128.499s-64.834 48.5 -111.501 48.5s-84 -16.167 -112 -48.5s-42 -75.166 -42 -128.499c0 -50 13 -91.333 39 -124c28 -36 66.333 -54 115 -54c46.667 0 83.834 16.167 111.501 48.5s41.5 75.5 41.5 129.5z" />
    <glyph glyph-name="colon" unicode=":" horiz-adv-x="292" 
d="M206 343c0 -12.667 -4.5 -23.5 -13.5 -32.5s-19.833 -13.5 -32.5 -13.5s-23.5 4.5 -32.5 13.5s-13.5 19.833 -13.5 32.5s4.5 23.5 13.5 32.5s19.833 13.5 32.5 13.5s23.5 -4.5 32.5 -13.5s13.5 -19.833 13.5 -32.5zM206 43c0 -12.667 -4.5 -23.5 -13.5 -32.5
s-19.833 -13.5 -32.5 -13.5s-23.5 4.5 -32.5 13.5s-13.5 19.833 -13.5 32.5s4.5 23.5 13.5 32.5s19.833 13.5 32.5 13.5s23.5 -4.5 32.5 -13.5s13.5 -19.833 13.5 -32.5z" />
    <glyph glyph-name="semicolon" unicode=";" horiz-adv-x="292" 
d="M206 343c0 -12.667 -4.5 -23.5 -13.5 -32.5s-19.833 -13.5 -32.5 -13.5s-23.5 4.5 -32.5 13.5s-13.5 19.833 -13.5 32.5s4.5 23.5 13.5 32.5s19.833 13.5 32.5 13.5s23.5 -4.5 32.5 -13.5s13.5 -19.833 13.5 -32.5zM194 -68l-68 -68v204h68v-136z" />
    <glyph glyph-name="less" unicode="&#x3c;" horiz-adv-x="1027" 
d="M918 211l-404 -404l-404 404v69l379 -379v819h50v-819l379 379v-69z" />
    <glyph glyph-name="equal" unicode="=" horiz-adv-x="514" 
d="M461 316h-408v47h408v-47zM461 163h-408v47h408v-47z" />
    <glyph glyph-name="greater" unicode="&#x3e;" horiz-adv-x="1027" 
d="M918 247l-379 379v-819h-50v819l-379 -379v69l404 404l404 -404v-69z" />
    <glyph glyph-name="question" unicode="?" horiz-adv-x="488" 
d="M438 542c0 -36 -14.667 -75.667 -44 -119l-85 -125c-12 -17.333 -18 -37.333 -18 -60v-47h-51v45c0 31.333 9.66699 61.333 29 90l84 124c22.667 33.333 34 64 34 92c0 37.333 -12.167 68.5 -36.5 93.5s-54.833 37.5 -91.5 37.5c-38 0 -68.833 -12.833 -92.5 -38.5
s-35.5 -56.5 -35.5 -92.5h-51c0 48.667 16.833 90.167 50.5 124.5s76.5 51.5 128.5 51.5c50.667 0 93.167 -16.833 127.5 -50.5s51.5 -75.5 51.5 -125.5zM305 37c0 -10.667 -3.83301 -20 -11.5 -28s-17.167 -12 -28.5 -12c-10.667 0 -20 4 -28 12s-12 17.333 -12 28
c0 11.333 4 20.833 12 28.5s17.333 11.5 28 11.5c11.333 0 20.833 -3.83301 28.5 -11.5s11.5 -17.167 11.5 -28.5z" />
    <glyph glyph-name="at" unicode="@" horiz-adv-x="697" 
d="M620 0l-51.001 0.000976562v59c-32 -44 -78.333 -66 -139 -66c-60 0 -106.333 21.667 -139 65c-28.667 38 -43 99 -43 183c0 83.333 13 143.666 39 180.999c31.333 44.667 78.666 67 141.999 67c58.667 0 105.334 -22.667 140.001 -68v89c0 51.333 -13.667 91 -41 119
s-65.333 42 -114 42h-132c-47.333 0 -84.833 -13.833 -112.5 -41.5s-41.5 -67.5 -41.5 -119.5v-353c0 -34 4.16699 -59.5 12.5 -76.5s24.833 -34.5 49.5 -52.5l-35 -35c-31.333 21.333 -52.166 43 -62.499 65s-15.5 55 -15.5 99v350c0 61.333 17.5 110.833 52.5 148.5
s82.833 56.5 143.5 56.5h150c60 0 107.833 -19 143.5 -57s53.5 -87.333 53.5 -148v-507zM568.999 241.001c0 61.333 -7.33301 107.333 -22 138c-21.333 43.333 -59 65 -113 65s-91.333 -21.667 -112 -65c-15.333 -30.667 -23 -76.667 -23 -138s7.66699 -107.333 23 -138
c20.667 -43.333 58 -65 112 -65s91.667 21.667 113 65c14.667 30.667 22 76.667 22 138z" />
    <glyph glyph-name="A" unicode="A" horiz-adv-x="602" 
d="M587 0h-58l-62 173h-332l-62 -173h-58l262 712h48zM450 221l-149 419l-149 -419h298z" />
    <glyph glyph-name="B" unicode="B" horiz-adv-x="671" 
d="M589 194c0 -62 -18.667 -109.835 -56 -143.502s-88.333 -50.5 -153 -50.5h-270v712h262c60.667 0 110.167 -16.667 148.5 -50s57.5 -78.666 57.5 -135.999c0 -37.333 -10 -70.5 -30 -99.5s-47 -49.167 -81 -60.5c38.667 -12.667 68.667 -34.167 90 -64.5
s32 -66.166 32 -107.499zM524 525.998c0 46.667 -15.667 82 -47 106c-27.333 21.333 -64.333 32 -111 32h-202v-276h202c46.667 0 83.667 10.667 111 32c31.333 24 47 59.333 47 106zM535 193.998c0 45.333 -14.667 81 -44 107s-68.333 39 -117 39h-210v-292h210
c48.667 0 87.667 13 117 39s44 61.667 44 107z" />
    <glyph glyph-name="C" unicode="C" horiz-adv-x="596" 
d="M527 83c-62.667 -59.333 -129.667 -89.001 -201 -89.001c-70 0 -129.333 24.333 -178 73c-30 30 -49 66 -57 108c-6 30.667 -9 91 -9 181s3 150.333 9 181c8 42 27 78 57 108c48.667 48.667 108 73 178 73c71.333 0 138.333 -29.667 201 -89l-36 -36
c-27.333 26.667 -51.666 45.667 -72.999 57c-26.667 13.333 -57.334 20 -92.001 20c-54 0 -99 -18.333 -135 -55c-24 -24.667 -39.667 -55 -47 -91c-5.33301 -30 -8 -86 -8 -168s2.66699 -138 8 -168c7.33301 -36 23 -66.333 47 -91c36 -36.667 81 -55 135 -55
c34.667 0 65.334 7 92.001 21c21.333 10.667 45.666 29.334 72.999 56.001z" />
    <glyph glyph-name="D" unicode="D" horiz-adv-x="678" 
d="M596 366c0 -73.333 -2.66699 -126.667 -8 -160c-9.33301 -62.667 -29.666 -109.667 -60.999 -141c-43.333 -43.333 -102.666 -65 -177.999 -65h-239v712h239c75.333 0 134.666 -21.667 177.999 -65c31.333 -31.333 51.666 -75 60.999 -131c5.33301 -30 8 -80 8 -150z
M542 365.999c0 62 -1.66699 105.002 -5 129.002c-7.33301 50.667 -23.333 88.667 -48 114c-36 36.667 -87 55 -153 55h-172v-616h172c66 0 117 18.333 153 55c24.667 25.333 40.667 66.666 48 123.999c3.33301 27.333 5 73.666 5 138.999z" />
    <glyph glyph-name="E" unicode="E" horiz-adv-x="598" 
d="M542 0h-432v712h432v-48h-378v-281h322v-48h-322v-287h378v-48z" />
    <glyph glyph-name="F" unicode="F" horiz-adv-x="576" 
d="M542 664h-378v-293h322v-48h-322v-323h-54v712h432v-48z" />
    <glyph glyph-name="G" unicode="G" horiz-adv-x="648" 
d="M571 248c0 -72.667 -19.333 -130 -58 -172c-50 -54.667 -112.333 -82 -187 -82c-70 0 -129.333 24.333 -178 73c-30 30 -49 66 -57 108c-6 30.667 -9 91 -9 181s3 150.333 9 181c8 42 27 78 57 108c48.667 48.667 108 73 178 73c43.333 0 82.333 -8.66699 117 -26
c29.333 -14.667 61 -39 95 -73l-36 -36c-30.667 30.667 -56.667 52 -78 64c-28 15.333 -60.667 23 -98 23c-53.333 0 -98.333 -18.333 -135 -55c-24 -24 -39.667 -54.333 -47 -91c-5.33301 -30 -8 -86 -8 -168s2.66699 -138 8 -168c7.33301 -36 23 -66.333 47 -91
c36 -36.667 81 -55 135 -55c60.667 0 110 23 148 69c28.667 34.667 43 81.667 43 141v64h-191v48h245v-116z" />
    <glyph glyph-name="H" unicode="H" horiz-adv-x="699" 
d="M589 0h-54v335h-371v-335h-54v712h54v-329h371v329h54v-712z" />
    <glyph glyph-name="I" unicode="I" horiz-adv-x="274" 
d="M164 0h-54v712h54v-712z" />
    <glyph glyph-name="J" unicode="J" horiz-adv-x="498" 
d="M398 210c0 -65.333 -19.333 -117.667 -58 -157s-90 -59 -154 -59c-63.333 0 -115.333 20.333 -156 61l37 37c33.333 -33.333 73 -50 119 -50c50.667 0 89.667 15.5 117 46.5s41 75.167 41 132.5v491h54v-502z" />
    <glyph glyph-name="K" unicode="K" horiz-adv-x="645" 
d="M627 0h-64l-229 399l-170 -206v-193h-54v712h54v-445l361 445h65l-220 -272z" />
    <glyph glyph-name="L" unicode="L" horiz-adv-x="572" 
d="M542 0h-432v712h54v-664h378v-48z" />
    <glyph glyph-name="M" unicode="M" horiz-adv-x="818" 
d="M708 0h-54v587l-216 -487h-54l-220 487v-587h-54v712h54l248 -549l242 549h54v-712z" />
    <glyph glyph-name="N" unicode="N" horiz-adv-x="739" 
d="M629 0h-54l-411 619v-619h-54v712h54l411 -617v617h54v-712z" />
    <glyph glyph-name="O" unicode="O" horiz-adv-x="652" 
d="M570 356c0 -90 -3 -150.333 -9 -181c-8 -42 -27 -78 -57 -108c-48.667 -48.667 -108 -73 -178 -73s-129.333 24.333 -178 73c-30 30 -49 66 -57 108c-6 30.667 -9 91 -9 181s3 150.333 9 181c8 42 27 78 57 108c48.667 48.667 108 73 178 73s129.333 -24.333 178 -73
c30 -30 49 -66 57 -108c6 -30.667 9 -91 9 -181zM516 356c0 82 -2.66699 138 -8 168c-7.33301 36.667 -23 67 -47 91c-36.667 36.667 -81.667 55 -135 55s-98.333 -18.333 -135 -55c-24 -24 -39.667 -54.333 -47 -91c-5.33301 -30 -8 -86 -8 -168s2.66699 -138 8 -168
c7.33301 -36.667 23 -67 47 -91c36.667 -36.667 81.667 -55 135 -55s98.333 18.333 135 55c24 24 39.667 54.333 47 91c5.33301 30 8 86 8 168z" />
    <glyph glyph-name="P" unicode="P" horiz-adv-x="631" 
d="M586 507c0 -63.333 -20 -113.333 -60 -150s-91.667 -55 -155 -55h-207v-302h-54v712h261c63.333 0 115 -18.333 155 -55s60 -86.667 60 -150zM532 507c0 52 -15.667 91.667 -47 119c-29.333 25.333 -69.333 38 -120 38h-201v-314h201c50.667 0 91.167 13.167 121.5 39.5
s45.5 65.5 45.5 117.5z" />
    <glyph glyph-name="Q" unicode="Q" horiz-adv-x="651" 
d="M603 0l-36.001 -36.002l-84 84c-45.333 -36 -97.666 -54 -156.999 -54c-70 0 -129.333 24.333 -178 73c-30 30 -49 66 -57 108c-6 30.667 -9 91 -9 181s3 150.333 9 181c8 42 27 78 57 108c48.667 48.667 108 73 178 73s129.333 -24.333 178 -73c30 -30 49 -66 57 -108
c6 -30.667 9 -91 9 -181c0 -83.333 -2.33301 -139.666 -7 -168.999c-6 -41.333 -20.667 -75.666 -44 -102.999zM515.999 355.998c0 82 -2.66699 137.999 -8 167.999c-7.33301 36.667 -23 67 -47 91c-36.667 36.667 -81.667 55 -135 55s-98.333 -18.333 -135 -55
c-24 -24 -39.667 -54.333 -47 -91c-5.33301 -30 -8 -86 -8 -168s2.66699 -138 8 -168c7.33301 -36.667 23 -67 47 -91c36.667 -36.667 81.667 -55 135 -55c45.333 0 85.666 14 120.999 42l-100 100l36 36l99 -99c14.667 21.333 24.334 50 29.001 86
c3.33301 28.667 5 78.334 5 149.001z" />
    <glyph glyph-name="R" unicode="R" horiz-adv-x="657" 
d="M593 0l-63 0.000976562l-170 328h-196v-328h-54v712h271c60 0 108.667 -16.333 146 -49c38.667 -34.667 58 -82 58 -142c0 -52 -14.667 -94.833 -44 -128.5s-69.333 -54.834 -120 -63.501zM531 520.001c0 47.333 -14.667 83.668 -44 109.001
c-28 23.333 -65.667 35 -113 35h-210v-288h210c47.333 0 85.333 12.167 114 36.5s43 60.166 43 107.499z" />
    <glyph glyph-name="S" unicode="S" horiz-adv-x="587" 
d="M528 191c0 -60 -21.5 -107.832 -64.5 -143.499s-101.5 -53.5 -175.5 -53.5c-95.333 0 -174.333 31.333 -237 94l38 38c31.333 -31.333 62 -53.166 92 -65.499s66.667 -18.5 110 -18.5c56.667 0 101.334 13 134.001 39s49 62 49 108c0 44 -13 77.333 -39 100
c-20.667 18 -55 30.667 -103 38l-83 13c-122 19.333 -183 80.333 -183 183c0 59.333 19.833 106.666 59.5 141.999s93.5 53 161.5 53c77.333 0 145.666 -25.667 204.999 -77l-35 -35c-49.333 44 -107 66 -173 66c-51.333 0 -91.666 -13.167 -120.999 -39.5
s-44 -62.166 -44 -107.499c0 -41.333 12.333 -72.333 37 -93c26.667 -22.667 62 -37.334 106 -44.001l77 -12c57.333 -8.66699 99.666 -24.334 126.999 -47.001c41.333 -34 62 -80 62 -138z" />
    <glyph glyph-name="T" unicode="T" horiz-adv-x="539" 
d="M509 664h-213v-664h-54v664h-212v48h479v-48z" />
    <glyph glyph-name="U" unicode="U" horiz-adv-x="688" 
d="M588 231c0 -69.333 -22.833 -126.166 -68.5 -170.499s-104.167 -66.5 -175.5 -66.5s-129.833 22.167 -175.5 66.5s-68.5 101.166 -68.5 170.499v481h54v-474c0 -58.667 17.333 -106 52 -142s80.667 -54 138 -54s103.333 18 138 54s52 83.333 52 142v474h54v-481z" />
    <glyph glyph-name="V" unicode="V" horiz-adv-x="534" 
d="M524 712l-234 -712h-46l-234 712h57l200 -617l200 617h57z" />
    <glyph glyph-name="W" unicode="W" horiz-adv-x="842" 
d="M822 712l-178 -712h-55l-168 620l-168 -620h-55l-178 712h57l150 -619l166 619h56l166 -619l150 619h57z" />
    <glyph glyph-name="X" unicode="X" horiz-adv-x="532" 
d="M514 0h-63l-186 317l-186 -317h-61l218 365l-204 347h63l170 -299l171 299h62l-204 -347z" />
    <glyph glyph-name="Y" unicode="Y" horiz-adv-x="494" 
d="M484 712l-210 -417v-295h-54v295l-210 417h58l181 -360l177 360h58z" />
    <glyph glyph-name="Z" unicode="Z" horiz-adv-x="559" 
d="M496 0h-433v57l375 607h-360v48h418v-48l-378 -616h378v-48z" />
    <glyph glyph-name="bracketleft" unicode="[" horiz-adv-x="290" 
d="M245 -74h-148v860h148v-45h-97v-770h97v-45z" />
    <glyph glyph-name="backslash" unicode="\" horiz-adv-x="338" 
d="M338 -74h-53l-285 860h53z" />
    <glyph glyph-name="bracketright" unicode="]" horiz-adv-x="290" 
d="M193 -74h-148v42h100v776h-100v42h148v-860z" />
    <glyph glyph-name="asciicircum" unicode="^" horiz-adv-x="514" 
d="M438 422h-51l-130 242l-130 -242h-51l158 296h46z" />
    <glyph glyph-name="underscore" unicode="_" horiz-adv-x="514" 
d="M514 -160h-514v38h514v-38z" />
    <glyph glyph-name="grave" unicode="`" 
d="M297 590h-58l-106 147h67z" />
    <glyph glyph-name="a" unicode="a" horiz-adv-x="524" 
d="M431 0h-51.001v48c-36 -36 -85 -54 -147 -54c-66.667 0 -114 14.667 -142 44c-23.333 24 -35 55.333 -35 94c0 44 14.833 78.167 44.5 102.5s70.834 36.5 123.501 36.5h156v54c0 78.667 -45.333 118 -136 118c-60.667 0 -105 -20.333 -133 -61l-37 32
c35.333 49.333 92 74 170 74c124.667 0 187 -52.667 187 -158v-330zM379.999 168v62h-150c-82 0 -123 -32.333 -123 -97c0 -62.667 42 -94 126 -94c54.667 0 94.667 12.333 120 37c18 17.333 27 48 27 92z" />
    <glyph glyph-name="b" unicode="b" horiz-adv-x="540" 
d="M471 241c0 -95.333 -20.667 -163.668 -62 -205.001c-28 -28 -67.333 -42 -118 -42c-61.333 0 -109 22.667 -143 68v-62h-51v712h51v-292c34 45.333 81.667 68 143 68c50.667 0 90 -14 118 -42c41.333 -41.333 62 -109.666 62 -204.999zM420 240.998
c0 61.333 -8 107.666 -24 138.999c-21.333 42 -58.666 63 -111.999 63s-90.666 -21 -111.999 -63c-16 -31.333 -24 -77.666 -24 -138.999s8 -107.333 24 -138c21.333 -42.667 58.666 -64 111.999 -64s90.666 21.333 111.999 64c16 30.667 24 76.667 24 138z" />
    <glyph glyph-name="c" unicode="c" horiz-adv-x="493" 
d="M440 68c-25.333 -28 -49.833 -47.333 -73.5 -58s-52.167 -16 -85.5 -16c-65.333 0 -117 22 -155 66s-57 104.333 -57 181s19 137 57 181s89.667 66 155 66c33.333 0 61.833 -5.33301 85.5 -16s48.167 -30 73.5 -58l-35 -32c-36 40.667 -77.333 61 -124 61
c-56 0 -98.667 -21.333 -128 -64c-22 -32 -33 -78 -33 -138s11 -106 33 -138c29.333 -42.667 72 -64 128 -64c46.667 0 88 20.333 124 61z" />
    <glyph glyph-name="d" unicode="d" horiz-adv-x="540" 
d="M443 0l-51 0.00195312v62c-34 -45.333 -81.667 -68 -143 -68c-50.667 0 -90 14 -118 42c-41.333 41.333 -62 109.666 -62 204.999s20.667 163.666 62 204.999c28 28 67.333 42 118 42c61.333 0 109 -22.667 143 -68v292h51v-712zM392 241.002
c0 61.333 -8 107.666 -24 138.999c-21.333 42 -58.666 63 -111.999 63s-90.666 -21 -111.999 -63c-16 -31.333 -24 -77.666 -24 -138.999s8 -107.333 24 -138c21.333 -42.667 58.666 -64 111.999 -64s90.666 21.333 111.999 64c16 30.667 24 76.667 24 138z" />
    <glyph glyph-name="e" unicode="e" horiz-adv-x="523" 
d="M455 230h-335c0 -126.667 52.333 -190 157 -190c50 0 94.333 19.333 133 58l38 -30c-49.333 -49.333 -107.333 -74 -174 -74c-136.667 0 -205 82.333 -205 247c0 77.333 17 137.833 51 181.5s81.333 65.5 142 65.5c60 0 107.167 -20.833 141.5 -62.5
s51.5 -99.167 51.5 -172.5v-23zM404 271c-1.33301 37.333 -7 68 -17 92s-26.333 43.333 -49 58s-48 22 -76 22s-53.333 -7.33301 -76 -22s-39 -34 -49 -58s-15.667 -54.667 -17 -92h284z" />
    <glyph glyph-name="f" unicode="f" horiz-adv-x="304" 
d="M272 444h-109v-444h-51v444h-66v38h66v104c0 38 10.167 68.5 30.5 91.5s48.833 34.5 85.5 34.5h44v-45h-35c-49.333 0 -74 -26.667 -74 -80v-105h109v-38z" />
    <glyph glyph-name="g" unicode="g" horiz-adv-x="540" 
d="M443 -27c0 -62 -17.5 -112.331 -52.5 -150.998s-83.167 -58 -144.5 -58c-34.667 0 -63.167 4.66699 -85.5 14s-46.833 26 -73.5 50l34 34c21.333 -19.333 39.333 -32.333 54 -39c19.333 -9.33301 43 -14 71 -14c48.667 0 85.667 16 111 48c23.333 29.333 35 69 35 119v86
c-34 -45.333 -81.667 -68 -143 -68c-50.667 0 -90 14 -118 42c-41.333 41.333 -62 109.666 -62 204.999s20.667 163.666 62 204.999c28 28 67.333 42 118 42c61.333 0 109 -22.667 143 -68v62h51v-509zM392 241.002c0 61.333 -8 107.666 -24 138.999
c-21.333 42 -58.666 63 -111.999 63s-90.666 -21 -111.999 -63c-16 -31.333 -24 -77.666 -24 -138.999s8 -107.333 24 -138c21.333 -42.667 58.666 -64 111.999 -64s90.666 21.333 111.999 64c16 30.667 24 76.667 24 138z" />
    <glyph glyph-name="h" unicode="h" horiz-adv-x="559" 
d="M468 0l-51 -0.00195312v299c0 96 -44.333 144 -133 144c-42.667 0 -76 -12.667 -100 -38s-36 -60.666 -36 -105.999v-299h-51v712h51v-287c36 42 83.333 63 142 63c54.667 0 98 -16.167 130 -48.5s48 -76.166 48 -131.499v-308z" />
    <glyph glyph-name="i" unicode="i" horiz-adv-x="245" 
d="M160 681c0 -10.667 -3.66699 -19.667 -11 -27s-16 -11 -26 -11c-10.667 0 -19.667 3.66699 -27 11s-11 16 -11 26c0 10.667 3.66699 19.667 11 27s16 11 26 11c10.667 0 19.667 -3.66699 27 -11s11 -16 11 -26zM148 0h-51v482h51v-482z" />
    <glyph glyph-name="j" unicode="j" horiz-adv-x="245" 
d="M160 681c0 -10.667 -3.66699 -19.667 -11 -27s-16 -11 -26 -11c-10.667 0 -19.667 3.66699 -27 11s-11 16 -11 26c0 10.667 3.66699 19.667 11 27s16 11 26 11c10.667 0 19.667 -3.66699 27 -11s11 -16 11 -26zM148 -105c0 -83.333 -38.667 -125 -116 -125h-44v45h35
c27.333 0 46.5 6.5 57.5 19.5s16.5 33.5 16.5 61.5v586h51v-587z" />
    <glyph glyph-name="k" unicode="k" horiz-adv-x="527" 
d="M487 0h-63l-166 265l-110 -127v-138h-51v712h51v-502l239 272h65l-159 -180z" />
    <glyph glyph-name="l" unicode="l" horiz-adv-x="287" 
d="M255 0h-44c-77.333 0 -116 41.667 -116 125v587h51v-586c0 -28 5.5 -48.5 16.5 -61.5s30.167 -19.5 57.5 -19.5h35v-45z" />
    <glyph glyph-name="m" unicode="m" horiz-adv-x="878" 
d="M787 0l-50.001 -0.00292969v299c0 96 -44.333 144 -133 144c-41.333 0 -74.333 -12.167 -99 -36.5s-37 -57.166 -37 -98.499v-308h-51v299c0 96 -44.333 144 -133 144c-42.667 0 -76 -12.667 -100 -38s-36 -60.666 -36 -105.999v-299h-51v482h51v-57
c36 42 83.667 63 143 63c73.333 0 125 -29.333 155 -88c37.333 58.667 92 88 164 88c54.667 0 97.834 -16.167 129.501 -48.5s47.5 -76.166 47.5 -131.499v-308z" />
    <glyph glyph-name="n" unicode="n" horiz-adv-x="559" 
d="M468 0l-51 -0.00195312v299c0 96 -44.333 144 -133 144c-42.667 0 -76 -12.667 -100 -38s-36 -60.666 -36 -105.999v-299h-51v482h51v-57c36 42 83.333 63 142 63c55.333 0 98.833 -16.167 130.5 -48.5s47.5 -76.166 47.5 -131.499v-308z" />
    <glyph glyph-name="o" unicode="o" horiz-adv-x="526" 
d="M457 241c0 -89.333 -20 -154 -60 -194c-35.333 -35.333 -80 -53 -134 -53s-98.667 17.667 -134 53c-40 40 -60 104.667 -60 194s20 154 60 194c35.333 35.333 80 53 134 53s98.667 -17.667 134 -53c40 -40 60 -104.667 60 -194zM406 241c0 78.667 -14 132 -42 160
s-61.667 42 -101 42s-73 -14 -101 -42s-42 -81.333 -42 -160s14 -132 42 -160s61.667 -42 101 -42s73 14 101 42s42 81.333 42 160z" />
    <glyph glyph-name="p" unicode="p" horiz-adv-x="540" 
d="M471 241c0 -95.333 -20.667 -163.668 -62 -205.001c-28 -28 -67.333 -42 -118 -42c-61.333 0 -109 22.667 -143 68v-292h-51v712h51v-62c34 45.333 81.667 68 143 68c50.667 0 90 -14 118 -42c41.333 -41.333 62 -109.666 62 -204.999zM420 240.998
c0 61.333 -8 107.666 -24 138.999c-21.333 42 -58.666 63 -111.999 63s-90.666 -21 -111.999 -63c-16 -31.333 -24 -77.666 -24 -138.999s8 -107.333 24 -138c21.333 -42.667 58.666 -64 111.999 -64s90.666 21.333 111.999 64c16 30.667 24 76.667 24 138z" />
    <glyph glyph-name="q" unicode="q" horiz-adv-x="540" 
d="M443 -230l-51 0.00195312v292c-34 -45.333 -81.667 -68 -143 -68c-50.667 0 -90 14 -118 42c-41.333 41.333 -62 109.666 -62 204.999s20.667 163.666 62 204.999c28 28 67.333 42 118 42c61.333 0 109 -22.667 143 -68v62h51v-712zM392 241.002
c0 61.333 -8 107.666 -24 138.999c-21.333 42 -58.666 63 -111.999 63s-90.666 -21 -111.999 -63c-16 -31.333 -24 -77.666 -24 -138.999s8 -107.333 24 -138c21.333 -42.667 58.666 -64 111.999 -64s90.666 21.333 111.999 64c16 30.667 24 76.667 24 138z" />
    <glyph glyph-name="r" unicode="r" horiz-adv-x="409" 
d="M405 442l-37.002 -37c-25.333 25.333 -55.666 38 -90.999 38c-40 0 -71.5 -14.167 -94.5 -42.5s-34.5 -62.833 -34.5 -103.5v-297h-51v482h51v-64c29.333 46.667 76.333 70 141 70c46.667 0 85.334 -15.333 116.001 -46z" />
    <glyph glyph-name="s" unicode="s" horiz-adv-x="494" 
d="M438 137c0 -44 -17.332 -78.833 -51.999 -104.5s-81.667 -38.5 -141 -38.5c-82 0 -147 23 -195 69l35 35c37.333 -39.333 90 -59 158 -59c96.667 0 145 32.667 145 98c0 48.667 -30.667 75.667 -92 81l-80 7c-96.667 8.66699 -145 50.667 -145 126
c0 41.333 15.667 74.5 47 99.5s73.333 37.5 126 37.5c68 0 124.333 -17 169 -51l-34 -34c-37.333 27.333 -82.333 41 -135 41c-82 0 -123 -31 -123 -93c0 -48 32.667 -75 98 -81l78 -7c45.333 -4 78.666 -14 99.999 -30c27.333 -20.667 41 -52.667 41 -96z" />
    <glyph glyph-name="t" unicode="t" horiz-adv-x="325" 
d="M269 0h-43.999c-36.667 0 -65.334 12 -86.001 36c-20 22 -30 52 -30 90v318h-66v38h66v154h51v-154h109v-38h-109v-319c0 -53.333 24.667 -80 74 -80h35v-45z" />
    <glyph glyph-name="u" unicode="u" horiz-adv-x="559" 
d="M462 0l-51 0.00195312v57c-36 -42 -83.333 -63 -142 -63c-55.333 0 -98.833 16.167 -130.5 48.5s-47.5 76.166 -47.5 131.499v308h51v-299c0 -96 44.333 -144 133 -144c42.667 0 76 12.667 100 38s36 60.666 36 105.999v299h51v-482z" />
    <glyph glyph-name="v" unicode="v" horiz-adv-x="430" 
d="M416 482l-176 -482h-50l-176 482h56l145 -422l145 422h56z" />
    <glyph glyph-name="w" unicode="w" horiz-adv-x="712" 
d="M698 482l-154 -482h-52l-136 402l-136 -402h-52l-154 482h56l123 -422l138 422h50l138 -422l123 422h56z" />
    <glyph glyph-name="x" unicode="x" horiz-adv-x="460" 
d="M420 0h-62l-127 203l-129 -203h-62l163 246l-156 236h62l122 -194l120 194h62l-156 -236z" />
    <glyph glyph-name="y" unicode="y" horiz-adv-x="430" 
d="M416 482l-223.999 -612.999c-9.33301 -26 -20.333 -44.667 -33 -56c-22.667 -20.667 -53 -31 -91 -31h-24v45h19c26.667 0 45.667 4.66699 57 14s21.666 26.666 30.999 51.999l39 107l-176 482h56l145 -422l145 422h56z" />
    <glyph glyph-name="z" unicode="z" horiz-adv-x="452" 
d="M398 0h-344v48l290 389h-274v45h328v-48l-291 -389h291v-45z" />
    <glyph glyph-name="braceleft" unicode="{" horiz-adv-x="316" 
d="M266 -74l-14.001 -0.000976562c-46.667 0 -78.834 8.83301 -96.501 26.5s-26.5 49.5 -26.5 95.5v207c0 28 -6.16699 48.167 -18.5 60.5s-26.5 18.5 -42.5 18.5h-18v44h18c16 0 30.167 6.16699 42.5 18.5s18.5 32.5 18.5 60.5v207c0 46 8.83301 77.833 26.5 95.5
s49.834 26.5 96.501 26.5h14v-45h-13c-31.333 0 -51.333 -4.66699 -60 -14s-13 -30.666 -13 -63.999v-207c0 -46 -20.333 -79.333 -61 -100c40.667 -20 61 -53.333 61 -100v-207c0 -42 8.66699 -66.333 26 -73c8.66699 -3.33301 24.334 -5 47.001 -5h13v-45z" />
    <glyph glyph-name="bar" unicode="|" horiz-adv-x="317" 
d="M184 -74h-51v860h51v-860z" />
    <glyph glyph-name="braceright" unicode="}" horiz-adv-x="316" 
d="M266 334l-17.999 0.000976562c-16 0 -30.167 -6.16699 -42.5 -18.5s-18.5 -32.5 -18.5 -60.5v-207c0 -46 -8.83301 -77.833 -26.5 -95.5s-49.834 -26.5 -96.501 -26.5h-14v45h13c31.333 0 51.333 4.66699 60 14s13 30.666 13 63.999v207c0 46.667 20.333 80 61 100
c-40.667 20.667 -61 54 -61 100v207c0 42 -8.66699 66.333 -26 73c-8.66699 3.33301 -24.334 5 -47.001 5h-13v45h14c46.667 0 78.834 -8.83301 96.501 -26.5s26.5 -49.5 26.5 -95.5v-207c0 -28 6.16699 -48.167 18.5 -60.5s26.5 -18.5 42.5 -18.5h18v-44z" />
    <glyph glyph-name="asciitilde" unicode="~" horiz-adv-x="514" 
d="M461 277c-22 -22 -39.333 -37 -52 -45c-18.667 -11.333 -40 -17 -64 -17c-19.333 0 -53.333 10.333 -102 31c-36.667 15.333 -62 23 -76 23c-25.333 0 -53 -15 -83 -45l-31 31c22 22 39.333 37 52 45c18.667 11.333 40 17 64 17c19.333 0 53.333 -10.333 102 -31
c36.667 -15.333 62 -23 76 -23c25.333 0 53 15 83 45z" />
    <glyph glyph-name="nonbreakingspace" unicode="&#xa0;" horiz-adv-x="255" 
 />
    <glyph glyph-name="exclamdown" unicode="&#xa1;" horiz-adv-x="304" 
d="M177 445c0 -10.667 -3.83301 -20 -11.5 -28s-17.167 -12 -28.5 -12c-10.667 0 -20 4 -28 12s-12 17.333 -12 28c0 11.333 4 20.833 12 28.5s17.333 11.5 28 11.5c11.333 0 20.833 -3.83301 28.5 -11.5s11.5 -17.167 11.5 -28.5zM165 -230h-56l6 520h44z" />
    <glyph glyph-name="cent" unicode="&#xa2;" horiz-adv-x="498" 
d="M440 193c-43.333 -47.333 -92.666 -72 -147.999 -74v-119h-43v121c-56 7.33301 -100 32.5 -132 75.5s-48 99.5 -48 169.5s16 126.5 48 169.5s76 68.167 132 75.5v101h43v-99c55.333 -2 104.666 -26.667 147.999 -74l-35 -32c-34 38.667 -71.667 59 -113 61v-404
c41.333 2 79 22.333 113 61zM249 167v398c-40.667 -7.33301 -72.334 -27.333 -95.001 -60s-34 -79 -34 -139s11.333 -106.333 34 -139s54.334 -52.667 95.001 -60z" />
    <glyph glyph-name="sterling" unicode="&#xa3;" horiz-adv-x="537" 
d="M482 0l-368 0.000976562v342h-64v38h64v122c0 65.333 19.333 117.666 58 156.999s90 59 154 59c63.333 0 115.333 -20.333 156 -61l-37 -37c-33.333 33.333 -73 50 -119 50c-50.667 0 -89.667 -15.5 -117 -46.5s-41 -75.167 -41 -132.5v-111h158v-38h-158v-294h314v-48z
" />
    <glyph glyph-name="currency" unicode="&#xa4;" horiz-adv-x="657" 
d="M572 54l-32.002 -31.999l-75 74c-39.333 -32 -85 -48 -137 -48s-97.667 16 -137 48l-74 -74l-32 32l74 74c-32 39.333 -48 85 -48 137c0 52.667 16 98.667 48 138l-74 73l32 32l74 -73c38.667 31.333 84.334 47 137.001 47s98.334 -15.667 137.001 -47l75 73l32 -32
l-74 -73c31.333 -38.667 47 -84.667 47 -138c0 -52.667 -15.667 -98.334 -47 -137.001zM496.998 265.001c0 47.333 -16.333 87.333 -49 120s-72.667 49 -120 49c-46.667 0 -86.5 -16.333 -119.5 -49s-49.5 -72.667 -49.5 -120c0 -46.667 16.5 -86.5 49.5 -119.5
s72.833 -49.5 119.5 -49.5c47.333 0 87.333 16.5 120 49.5s49 72.833 49 119.5z" />
    <glyph glyph-name="yen" unicode="&#xa5;" horiz-adv-x="493" 
d="M483 712l-163 -326h108v-38h-127l-27 -53v-53h154v-38h-154v-204h-54v204h-155v38h155v53l-27 53h-128v38h109l-164 326h57l181 -361l179 361h56z" />
    <glyph glyph-name="brokenbar" unicode="&#xa6;" horiz-adv-x="328" 
d="M184 436h-51v350h51v-350zM184 -74h-51v350h51v-350z" />
    <glyph glyph-name="section" unicode="&#xa7;" horiz-adv-x="566" 
d="M469 247c0 -80 -36.6689 -136.665 -110.002 -169.998c31.333 -10.667 56.333 -28.834 75 -54.501s28 -56.167 28 -91.5c0 -48.667 -16.667 -88.667 -50 -120s-76.333 -47 -129 -47c-50.667 0 -92.667 13.333 -126 40c-35.333 28.667 -54.666 67 -57.999 115h54
c6.66699 -71.333 50 -107 130 -107c38.667 0 69.167 10.333 91.5 31s33.5 50 33.5 88c0 26.667 -8.5 50 -25.5 70s-39.833 34 -68.5 42l-83 23c-42 11.333 -74.833 33.5 -98.5 66.5s-35.5 71.167 -35.5 114.5c0 80 36.667 136.667 110 170c-66 28.667 -99 75.667 -99 141
c0 48.667 17.333 88 52 118c32.667 28 73.667 42 123 42c48.667 0 89.334 -13 122.001 -39c34.667 -28 53.334 -65.333 56.001 -112h-53c-6.66699 69.333 -48.334 104 -125.001 104c-81.333 0 -122 -37.667 -122 -113c0 -54.667 30.333 -90.334 91 -107.001l83 -23
c41.333 -11.333 74 -33.5 98 -66.5s36 -71.167 36 -114.5zM414.998 247.002c0 44 -11.666 77.667 -34.999 101c-27.333 27.333 -59.666 41 -96.999 41c-46.667 0 -83 -18.667 -109 -56c-15.333 -21.333 -23 -50 -23 -86c0 -42 11.667 -75.667 35 -101
c25.333 -27.333 57.666 -41 96.999 -41s71.666 13.667 96.999 41c23.333 25.333 35 59 35 101z" />
    <glyph glyph-name="dieresis" unicode="&#xa8;" 
d="M391 638c0 -10.667 -3.66699 -19.667 -11 -27s-16 -11 -26 -11c-10.667 0 -19.667 3.66699 -27 11s-11 16 -11 26c0 10.667 3.66699 19.667 11 27s16 11 26 11c10.667 0 19.667 -3.66699 27 -11s11 -16 11 -26zM184 638c0 -10.667 -3.66699 -19.667 -11 -27
s-16 -11 -26 -11c-10.667 0 -19.667 3.66699 -27 11s-11 16 -11 26c0 10.667 3.66699 19.667 11 27s16 11 26 11c10.667 0 19.667 -3.66699 27 -11s11 -16 11 -26z" />
    <glyph glyph-name="copyright" unicode="&#xa9;" horiz-adv-x="894" 
d="M809 356c0 -100 -35.333 -185.333 -106 -256s-156 -106 -256 -106s-185.333 35.333 -256 106s-106 156 -106 256s35.333 185.333 106 256s156 106 256 106s185.333 -35.333 256 -106s106 -156 106 -256zM761 356c0 86 -30.833 160.5 -92.5 223.5s-135.5 94.5 -221.5 94.5
s-159.833 -31.5 -221.5 -94.5s-92.5 -137.5 -92.5 -223.5s30.833 -160.5 92.5 -223.5s135.5 -94.5 221.5 -94.5s159.833 31.5 221.5 94.5s92.5 137.5 92.5 223.5zM582 202c-38.667 -34.667 -82.334 -52 -131.001 -52c-58 0 -102.667 20.333 -134 61
c-28.667 36.667 -43 85 -43 145s14.333 108.667 43 146c31.333 40.667 76 61 134 61c47.333 0 91 -17.667 131 -53l-30 -30c-32 28 -65.667 42 -101 42c-88 0 -132 -55.333 -132 -166c0 -110 44 -165 132 -165c36.667 0 70.334 13.667 101.001 41z" />
    <glyph glyph-name="ordfeminine" unicode="&#xaa;" horiz-adv-x="447" 
d="M356 327l-43 -0.000976562v36c-28 -27.333 -66 -41 -114 -41c-52 0 -89.333 11.667 -112 35c-18.667 19.333 -28 44.333 -28 75c0 34.667 11.833 61.834 35.5 81.501s56.167 29.5 97.5 29.5h121v42c0 60.667 -35 91 -105 91c-48 0 -82.667 -16 -104 -48l-32 27
c28.667 40 74 60 136 60c98.667 0 148 -42 148 -126v-262zM313 460.999l0.000976562 47h-116c-63.333 0 -95 -25 -95 -75c0 -48 32.333 -72 97 -72c43.333 0 74.666 9.33301 93.999 28c13.333 12.667 20 36.667 20 72z" />
    <glyph glyph-name="guillemotleft" unicode="&#xab;" horiz-adv-x="527" 
d="M445 69l-196 196l196 196v-66l-130 -130l130 -130v-66zM238 69l-196 196l196 196v-66l-130 -130l130 -130v-66z" />
    <glyph glyph-name="logicalnot" unicode="&#xac;" horiz-adv-x="514" 
d="M461 107h-47v133h-361v47h408v-180z" />
    <glyph glyph-name="minus" unicode="&#xad;" horiz-adv-x="514" 
d="M461 240h-408v47h408v-47z" />
    <glyph glyph-name="minus" unicode="&#x2212;" horiz-adv-x="514" 
d="M461 240h-408v47h408v-47z" />
    <glyph glyph-name="registered" unicode="&#xae;" horiz-adv-x="894" 
d="M809 356c0 -100 -35.333 -185.333 -106 -256s-156 -106 -256 -106s-185.333 35.333 -256 106s-106 156 -106 256s35.333 185.333 106 256s156 106 256 106s185.333 -35.333 256 -106s106 -156 106 -256zM762 356c0 86.667 -31 161.5 -93 224.5s-136 94.5 -222 94.5
s-160 -31.5 -222 -94.5s-93 -137.833 -93 -224.5s31 -161.5 93 -224.5s136 -94.5 222 -94.5s160 31.5 222 94.5s93 137.833 93 224.5zM595 156l-52 -0.000976562l-99 167h-66v-167h-45v401h128c33.333 0 62.333 -11.333 87 -34s37 -50.667 37 -84
c0 -57.333 -30.333 -94.666 -91 -111.999zM540 438.999c0 22 -8 40.333 -24 55s-36 22 -60 22h-78v-153h78c24 0 44 7.16699 60 21.5s24 32.5 24 54.5z" />
    <glyph glyph-name="macron" unicode="&#xaf;" 
d="M398 608h-296v46h296v-46z" />
    <glyph glyph-name="macron" unicode="&#x2c9;" 
d="M398 608h-296v46h296v-46z" />
    <glyph glyph-name="degree" unicode="&#xb0;" horiz-adv-x="458" 
d="M386 562c0 -43.333 -15.333 -80.333 -46 -111s-67.667 -46 -111 -46s-80.333 15.333 -111 46s-46 67.667 -46 111s15.333 80.333 46 111s67.667 46 111 46s80.333 -15.333 111 -46s46 -67.667 46 -111zM341 562c0 32.667 -10.833 60 -32.5 82s-48.5 33 -80.5 33
s-58.5 -10.833 -79.5 -32.5s-31.5 -49.167 -31.5 -82.5c0 -32.667 10.667 -60 32 -82s48 -33 80 -33s58.667 11 80 33s32 49.333 32 82z" />
    <glyph glyph-name="plusminus" unicode="&#xb1;" horiz-adv-x="514" 
d="M461 270h-180v-182h-47v182h-181v47h181v181h47v-181h180v-47zM461 0h-408v47h408v-47z" />
    <glyph glyph-name="twosuperior" unicode="&#xb2;" horiz-adv-x="336" 
d="M286 285h-236v40l168 213c15.333 19.333 23 40 23 62c0 50.667 -24.333 76 -73 76c-49.333 0 -74 -25.333 -74 -76h-44c0 34.667 10.833 62.667 32.5 84s50.167 32 85.5 32s63.833 -10.5 85.5 -31.5s32.5 -49.167 32.5 -84.5c0 -29.333 -11.333 -58.333 -34 -87
l-149 -188h183v-40z" />
    <glyph glyph-name="threesuperior" unicode="&#xb3;" horiz-adv-x="352" 
d="M302 402c0 -38 -11.666 -67.833 -34.999 -89.5s-53.333 -32.5 -90 -32.5c-36 0 -65.333 9.33301 -88 28c-24.667 20 -37.667 48.667 -39 86h45c2.66699 -49.333 30 -74 82 -74c23.333 0 42.666 7.33301 57.999 22s23 34.667 23 60c0 54 -28 81 -84 81h-8v39h8
c50.667 0 76 25.667 76 77c0 24.667 -7 43.667 -21 57s-31.667 20 -53 20c-46 0 -71.333 -23.333 -76 -70h-44c2.66699 34 15 60.833 37 80.5s49.667 29.5 83 29.5c35.333 0 63.833 -10.667 85.5 -32s32.5 -49.333 32.5 -84c0 -46 -19 -77.667 -57 -95
c43.333 -16 65 -50.333 65 -103z" />
    <glyph glyph-name="acute" unicode="&#xb4;" 
d="M367 737l-106 -147h-58l97 147h67z" />
    <glyph glyph-name="mu" unicode="&#xb5;" horiz-adv-x="556" 
d="M459 0l-51 0.000976562v57c-36 -42 -83.333 -63 -142 -63c-52.667 0 -95 15 -127 45v-269h-51v712h51v-299c0 -96 44.333 -144 133 -144c42.667 0 76 12.667 100 38s36 60.666 36 105.999v299h51v-482z" />
    <glyph glyph-name="mu" unicode="&#x3bc;" horiz-adv-x="556" 
d="M459 0l-51 0.000976562v57c-36 -42 -83.333 -63 -142 -63c-52.667 0 -95 15 -127 45v-269h-51v712h51v-299c0 -96 44.333 -144 133 -144c42.667 0 76 12.667 100 38s36 60.666 36 105.999v299h51v-482z" />
    <glyph glyph-name="paragraph" unicode="&#xb6;" horiz-adv-x="579" 
d="M469 -230h-50.999v894h-123v-894h-51v562c-60.667 0 -109.667 20 -147 60c-34.667 36 -52 79.333 -52 130c0 52 18 96 54 132c39.333 38.667 91.666 58 156.999 58h213v-942z" />
    <glyph glyph-name="periodcentered" unicode="&#xb7;" horiz-adv-x="264" 
d="M178 260c0 -12.667 -4.5 -23.5 -13.5 -32.5s-19.833 -13.5 -32.5 -13.5s-23.5 4.5 -32.5 13.5s-13.5 19.833 -13.5 32.5s4.5 23.5 13.5 32.5s19.833 13.5 32.5 13.5s23.5 -4.5 32.5 -13.5s13.5 -19.833 13.5 -32.5z" />
    <glyph glyph-name="periodcentered" unicode="&#x2219;" horiz-adv-x="264" 
d="M178 260c0 -12.667 -4.5 -23.5 -13.5 -32.5s-19.833 -13.5 -32.5 -13.5s-23.5 4.5 -32.5 13.5s-13.5 19.833 -13.5 32.5s4.5 23.5 13.5 32.5s19.833 13.5 32.5 13.5s23.5 -4.5 32.5 -13.5s13.5 -19.833 13.5 -32.5z" />
    <glyph glyph-name="cedilla" unicode="&#xb8;" 
d="M308 -70l-64 -150h-63l72 150h55z" />
    <glyph glyph-name="onesuperior" unicode="&#xb9;" horiz-adv-x="249" 
d="M169 285h-44v378l-80 -71v51l80 69h44v-427z" />
    <glyph glyph-name="ordmasculine" unicode="&#xba;" horiz-adv-x="452" 
d="M380 519c0 -70.667 -16 -122 -48 -154c-28 -28 -63.333 -42 -106 -42s-78 14 -106 42c-32 32 -48 83.333 -48 154s16 122 48 154c28 28 63.333 42 106 42s78 -14 106 -42c32 -32 48 -83.333 48 -154zM337 519c0 61.333 -10.833 102.833 -32.5 124.5
s-47.834 32.5 -78.501 32.5s-56.834 -10.833 -78.501 -32.5s-32.5 -63.167 -32.5 -124.5s10.833 -102.833 32.5 -124.5s47.834 -32.5 78.501 -32.5s56.834 10.833 78.501 32.5s32.5 63.167 32.5 124.5z" />
    <glyph glyph-name="guillemotright" unicode="&#xbb;" horiz-adv-x="527" 
d="M485 265l-196 -196v66l130 130l-130 130v66zM278 265l-196 -196v66l130 130l-130 130v66z" />
    <glyph glyph-name="onequarter" unicode="&#xbc;" horiz-adv-x="756" 
d="M716 67h-52v-67h-44v67h-170v40l154 320h47l-153 -320h122v120h44v-120h52v-40zM545 712l-332 -712h-45l332 712h45zM169 285h-44v378l-80 -71v51l80 69h44v-427z" />
    <glyph glyph-name="onehalf" unicode="&#xbd;" horiz-adv-x="764" 
d="M714 0h-236v40l168 213c15.333 19.333 23 40 23 62c0 50.667 -24.333 76 -73 76c-49.333 0 -74 -25.333 -74 -76h-44c0 34.667 10.833 62.667 32.5 84s50.167 32 85.5 32s63.833 -10.5 85.5 -31.5s32.5 -49.167 32.5 -84.5c0 -29.333 -11.333 -58.333 -34 -87l-149 -188
h183v-40zM530 712l-332 -712h-45l332 712h45zM169 285h-44v378l-80 -71v51l80 69h44v-427z" />
    <glyph glyph-name="threequarters" unicode="&#xbe;" horiz-adv-x="806" 
d="M766 67h-52v-67h-44v67h-170v40l154 320h47l-153 -320h122v120h44v-120h52v-40zM605 712l-332 -712h-45l332 712h45zM302 402c0 -38 -11.666 -67.833 -34.999 -89.5s-53.333 -32.5 -90 -32.5c-36 0 -65.333 9.33301 -88 28c-24.667 20 -37.667 48.667 -39 86h45
c2.66699 -49.333 30 -74 82 -74c23.333 0 42.666 7.33301 57.999 22s23 34.667 23 60c0 54 -28 81 -84 81h-8v39h8c50.667 0 76 25.667 76 77c0 24.667 -7 43.667 -21 57s-31.667 20 -53 20c-46 0 -71.333 -23.333 -76 -70h-44c2.66699 34 15 60.833 37 80.5
s49.667 29.5 83 29.5c35.333 0 63.833 -10.667 85.5 -32s32.5 -49.333 32.5 -84c0 -46 -19 -77.667 -57 -95c43.333 -16 65 -50.333 65 -103z" />
    <glyph glyph-name="questiondown" unicode="&#xbf;" horiz-adv-x="488" 
d="M263 445c0 -10.667 -3.83301 -20 -11.5 -28s-17.167 -12 -28.5 -12c-10.667 0 -20 4 -28 12s-12 17.333 -12 28c0 11.333 4 20.833 12 28.5s17.333 11.5 28 11.5c11.333 0 20.833 -3.83301 28.5 -11.5s11.5 -17.167 11.5 -28.5zM408 -60
c0 -48.667 -16.833 -90.167 -50.5 -124.5s-76.5 -51.5 -128.5 -51.5c-50.667 0 -93.167 16.833 -127.5 50.5s-51.5 75.5 -51.5 125.5c0 36 14.667 75.667 44 119l85 125c12 17.333 18 37.333 18 60v47h51v-45c0 -31.333 -9.66699 -61.333 -29 -90l-84 -124
c-22.667 -33.333 -34 -64 -34 -92c0 -37.333 12.167 -68.5 36.5 -93.5s54.833 -37.5 91.5 -37.5c38 0 68.833 12.833 92.5 38.5s35.5 56.5 35.5 92.5h51z" />
    <glyph glyph-name="Agrave" unicode="&#xc0;" horiz-adv-x="602" 
d="M587 0h-58l-62 173h-332l-62 -173h-58l262 712h48zM450 221l-149 419l-149 -419h298zM348 780h-58l-106 147h67z" />
    <glyph glyph-name="Aacute" unicode="&#xc1;" horiz-adv-x="602" 
d="M587 0h-58l-62 173h-332l-62 -173h-58l262 712h48zM450 221l-149 419l-149 -419h298zM418 927l-106 -147h-58l97 147h67z" />
    <glyph glyph-name="Acircumflex" unicode="&#xc2;" horiz-adv-x="602" 
d="M587 0h-58l-62 173h-332l-62 -173h-58l262 712h48zM450 221l-149 419l-149 -419h298zM451 780h-57l-93 109l-93 -109h-57l123 147h54z" />
    <glyph glyph-name="Atilde" unicode="&#xc3;" horiz-adv-x="602" 
d="M587 0h-58l-62 173h-332l-62 -173h-58l262 712h48zM450 221l-149 419l-149 -419h298zM450 843c-32 -32 -61.668 -48 -89.001 -48c-18.667 0 -41.667 8 -69 24c-24 14 -42.667 21 -56 21c-17.333 0 -37 -11 -59 -33l-30 29c32 32 61.667 48 89 48c20 0 43 -8 69 -24
c22.667 -14 41.334 -21 56.001 -21c17.333 0 37 11 59 33z" />
    <glyph glyph-name="Adieresis" unicode="&#xc4;" horiz-adv-x="602" 
d="M587 0h-58l-62 173h-332l-62 -173h-58l262 712h48zM450 221l-149 419l-149 -419h298zM442 828c0 -10.667 -3.66699 -19.667 -11 -27s-16 -11 -26 -11c-10.667 0 -19.667 3.66699 -27 11s-11 16 -11 26c0 10.667 3.66699 19.667 11 27s16 11 26 11
c10.667 0 19.667 -3.66699 27 -11s11 -16 11 -26zM235 828c0 -10.667 -3.66699 -19.667 -11 -27s-16 -11 -26 -11c-10.667 0 -19.667 3.66699 -27 11s-11 16 -11 26c0 10.667 3.66699 19.667 11 27s16 11 26 11c10.667 0 19.667 -3.66699 27 -11s11 -16 11 -26z" />
    <glyph glyph-name="Aring" unicode="&#xc5;" horiz-adv-x="602" 
d="M587 0h-58l-62 173h-332l-62 -173h-58l262 712h48zM450 221l-149 419l-149 -419h298zM415 861c0 -31.333 -11.167 -58.333 -33.5 -81s-49.166 -34 -80.499 -34s-58.166 11.333 -80.499 34s-33.5 49.667 -33.5 81s11.167 58.166 33.5 80.499s49.166 33.5 80.499 33.5
s58.166 -11.167 80.499 -33.5s33.5 -49.166 33.5 -80.499zM374 861c0 20 -7.16699 37 -21.5 51s-31.5 21 -51.5 21s-37.167 -7 -51.5 -21s-21.5 -31 -21.5 -51s7.16699 -37.167 21.5 -51.5s31.5 -21.5 51.5 -21.5s37.167 7.16699 51.5 21.5s21.5 31.5 21.5 51.5z" />
    <glyph glyph-name="AE" unicode="&#xc6;" horiz-adv-x="901" 
d="M845 0h-431v173h-255l-90 -173h-59l377 712h458v-48h-378v-284h322v-48h-322v-284h378v-48zM414 221v443l-232 -443h232z" />
    <glyph glyph-name="Ccedilla" unicode="&#xc7;" horiz-adv-x="644" 
d="M527 83c-62.667 -59.333 -129.667 -89.001 -201 -89.001c-70 0 -129.333 24.333 -178 73c-30 30 -49 66 -57 108c-6 30.667 -9 91 -9 181s3 150.333 9 181c8 42 27 78 57 108c48.667 48.667 108 73 178 73c71.333 0 138.333 -29.667 201 -89l-36 -36
c-27.333 26.667 -51.666 45.667 -72.999 57c-26.667 13.333 -57.334 20 -92.001 20c-54 0 -99 -18.333 -135 -55c-24 -24.667 -39.667 -55 -47 -91c-5.33301 -30 -8 -86 -8 -168s2.66699 -138 8 -168c7.33301 -36 23 -66.333 47 -91c36 -36.667 81 -55 135 -55
c34.667 0 65.334 7 92.001 21c21.333 10.667 45.666 29.334 72.999 56.001zM366 -70.001l-64 -150h-63l72 150h55z" />
    <glyph glyph-name="Egrave" unicode="&#xc8;" horiz-adv-x="598" 
d="M542 0h-432v712h432v-48h-378v-281h322v-48h-322v-287h378v-48zM361 780h-58l-106 147h67z" />
    <glyph glyph-name="Eacute" unicode="&#xc9;" horiz-adv-x="598" 
d="M542 0h-432v712h432v-48h-378v-281h322v-48h-322v-287h378v-48zM431 927l-106 -147h-58l97 147h67z" />
    <glyph glyph-name="Ecircumflex" unicode="&#xca;" horiz-adv-x="598" 
d="M542 0h-432v712h432v-48h-378v-281h322v-48h-322v-287h378v-48zM464 780h-57l-93 109l-93 -109h-57l123 147h54z" />
    <glyph glyph-name="Edieresis" unicode="&#xcb;" horiz-adv-x="598" 
d="M542 0h-432v712h432v-48h-378v-281h322v-48h-322v-287h378v-48zM455 828c0 -10.667 -3.66699 -19.667 -11 -27s-16 -11 -26 -11c-10.667 0 -19.667 3.66699 -27 11s-11 16 -11 26c0 10.667 3.66699 19.667 11 27s16 11 26 11c10.667 0 19.667 -3.66699 27 -11
s11 -16 11 -26zM248 828c0 -10.667 -3.66699 -19.667 -11 -27s-16 -11 -26 -11c-10.667 0 -19.667 3.66699 -27 11s-11 16 -11 26c0 10.667 3.66699 19.667 11 27s16 11 26 11c10.667 0 19.667 -3.66699 27 -11s11 -16 11 -26z" />
    <glyph glyph-name="Igrave" unicode="&#xcc;" horiz-adv-x="274" 
d="M164 0h-54v712h54v-712zM193 780h-58l-106 147h67z" />
    <glyph glyph-name="Iacute" unicode="&#xcd;" horiz-adv-x="274" 
d="M164 0h-54v712h54v-712zM250 927l-106 -147h-58l97 147h67z" />
    <glyph glyph-name="Icircumflex" unicode="&#xce;" horiz-adv-x="274" 
d="M164 0h-54v712h54v-712zM285 780h-57l-93 109l-93 -109h-57l123 147h54z" />
    <glyph glyph-name="Idieresis" unicode="&#xcf;" horiz-adv-x="274" 
d="M164 0h-54v712h54v-712zM279 828c0 -10.667 -3.66699 -19.667 -11 -27s-16 -11 -26 -11c-10.667 0 -19.667 3.66699 -27 11s-11 16 -11 26c0 10.667 3.66699 19.667 11 27s16 11 26 11c10.667 0 19.667 -3.66699 27 -11s11 -16 11 -26zM72 828
c0 -10.667 -3.66699 -19.667 -11 -27s-16 -11 -26 -11c-10.667 0 -19.667 3.66699 -27 11s-11 16 -11 26c0 10.667 3.66699 19.667 11 27s16 11 26 11c10.667 0 19.667 -3.66699 27 -11s11 -16 11 -26z" />
    <glyph glyph-name="Eth" unicode="&#xd0;" horiz-adv-x="689" 
d="M607 356c0 -68.667 -0.666992 -110.333 -2 -125c-4.66699 -48 -16.667 -87.333 -36 -118c-48 -75.333 -119.667 -113 -215 -113h-233v338h-81v42h81v332h240c94 0 163.333 -38.333 208 -115c19.333 -32.667 31.333 -71.667 36 -117c1.33301 -16.667 2 -58 2 -124z
M553 351.001c0 74.667 -1.66602 124.332 -4.99902 148.999c-4.66699 32.667 -16.334 61.334 -35.001 86.001c-38.667 52.667 -94 79 -166 79h-172v-285h178v-42h-178v-291h172c78 0 135.333 27 172 81c16 23.333 25.667 49 29 77c3.33301 22 5 70.667 5 146z" />
    <glyph glyph-name="Ntilde" unicode="&#xd1;" horiz-adv-x="739" 
d="M629 0h-54l-411 619v-619h-54v712h54l411 -617v617h54v-712zM519 843c-32 -32 -61.668 -48 -89.001 -48c-18.667 0 -41.667 8 -69 24c-24 14 -42.667 21 -56 21c-17.333 0 -37 -11 -59 -33l-30 29c32 32 61.667 48 89 48c20 0 43 -8 69 -24
c22.667 -14 41.334 -21 56.001 -21c17.333 0 37 11 59 33z" />
    <glyph glyph-name="Ograve" unicode="&#xd2;" horiz-adv-x="652" 
d="M570 356c0 -90 -3 -150.333 -9 -181c-8 -42 -27 -78 -57 -108c-48.667 -48.667 -108 -73 -178 -73s-129.333 24.333 -178 73c-30 30 -49 66 -57 108c-6 30.667 -9 91 -9 181s3 150.333 9 181c8 42 27 78 57 108c48.667 48.667 108 73 178 73s129.333 -24.333 178 -73
c30 -30 49 -66 57 -108c6 -30.667 9 -91 9 -181zM516 356c0 82 -2.66699 138 -8 168c-7.33301 36.667 -23 67 -47 91c-36.667 36.667 -81.667 55 -135 55s-98.333 -18.333 -135 -55c-24 -24 -39.667 -54.333 -47 -91c-5.33301 -30 -8 -86 -8 -168s2.66699 -138 8 -168
c7.33301 -36.667 23 -67 47 -91c36.667 -36.667 81.667 -55 135 -55s98.333 18.333 135 55c24 24 39.667 54.333 47 91c5.33301 30 8 86 8 168zM373 780h-58l-106 147h67z" />
    <glyph glyph-name="Oacute" unicode="&#xd3;" horiz-adv-x="652" 
d="M570 356c0 -90 -3 -150.333 -9 -181c-8 -42 -27 -78 -57 -108c-48.667 -48.667 -108 -73 -178 -73s-129.333 24.333 -178 73c-30 30 -49 66 -57 108c-6 30.667 -9 91 -9 181s3 150.333 9 181c8 42 27 78 57 108c48.667 48.667 108 73 178 73s129.333 -24.333 178 -73
c30 -30 49 -66 57 -108c6 -30.667 9 -91 9 -181zM516 356c0 82 -2.66699 138 -8 168c-7.33301 36.667 -23 67 -47 91c-36.667 36.667 -81.667 55 -135 55s-98.333 -18.333 -135 -55c-24 -24 -39.667 -54.333 -47 -91c-5.33301 -30 -8 -86 -8 -168s2.66699 -138 8 -168
c7.33301 -36.667 23 -67 47 -91c36.667 -36.667 81.667 -55 135 -55s98.333 18.333 135 55c24 24 39.667 54.333 47 91c5.33301 30 8 86 8 168zM443 927l-106 -147h-58l97 147h67z" />
    <glyph glyph-name="Ocircumflex" unicode="&#xd4;" horiz-adv-x="652" 
d="M570 356c0 -90 -3 -150.333 -9 -181c-8 -42 -27 -78 -57 -108c-48.667 -48.667 -108 -73 -178 -73s-129.333 24.333 -178 73c-30 30 -49 66 -57 108c-6 30.667 -9 91 -9 181s3 150.333 9 181c8 42 27 78 57 108c48.667 48.667 108 73 178 73s129.333 -24.333 178 -73
c30 -30 49 -66 57 -108c6 -30.667 9 -91 9 -181zM516 356c0 82 -2.66699 138 -8 168c-7.33301 36.667 -23 67 -47 91c-36.667 36.667 -81.667 55 -135 55s-98.333 -18.333 -135 -55c-24 -24 -39.667 -54.333 -47 -91c-5.33301 -30 -8 -86 -8 -168s2.66699 -138 8 -168
c7.33301 -36.667 23 -67 47 -91c36.667 -36.667 81.667 -55 135 -55s98.333 18.333 135 55c24 24 39.667 54.333 47 91c5.33301 30 8 86 8 168zM476 780h-57l-93 109l-93 -109h-57l123 147h54z" />
    <glyph glyph-name="Otilde" unicode="&#xd5;" horiz-adv-x="652" 
d="M570 356c0 -90 -3 -150.333 -9 -181c-8 -42 -27 -78 -57 -108c-48.667 -48.667 -108 -73 -178 -73s-129.333 24.333 -178 73c-30 30 -49 66 -57 108c-6 30.667 -9 91 -9 181s3 150.333 9 181c8 42 27 78 57 108c48.667 48.667 108 73 178 73s129.333 -24.333 178 -73
c30 -30 49 -66 57 -108c6 -30.667 9 -91 9 -181zM516 356c0 82 -2.66699 138 -8 168c-7.33301 36.667 -23 67 -47 91c-36.667 36.667 -81.667 55 -135 55s-98.333 -18.333 -135 -55c-24 -24 -39.667 -54.333 -47 -91c-5.33301 -30 -8 -86 -8 -168s2.66699 -138 8 -168
c7.33301 -36.667 23 -67 47 -91c36.667 -36.667 81.667 -55 135 -55s98.333 18.333 135 55c24 24 39.667 54.333 47 91c5.33301 30 8 86 8 168zM475 843c-32 -32 -61.668 -48 -89.001 -48c-18.667 0 -41.667 8 -69 24c-24 14 -42.667 21 -56 21c-17.333 0 -37 -11 -59 -33
l-30 29c32 32 61.667 48 89 48c20 0 43 -8 69 -24c22.667 -14 41.334 -21 56.001 -21c17.333 0 37 11 59 33z" />
    <glyph glyph-name="Odieresis" unicode="&#xd6;" horiz-adv-x="652" 
d="M570 356c0 -90 -3 -150.333 -9 -181c-8 -42 -27 -78 -57 -108c-48.667 -48.667 -108 -73 -178 -73s-129.333 24.333 -178 73c-30 30 -49 66 -57 108c-6 30.667 -9 91 -9 181s3 150.333 9 181c8 42 27 78 57 108c48.667 48.667 108 73 178 73s129.333 -24.333 178 -73
c30 -30 49 -66 57 -108c6 -30.667 9 -91 9 -181zM516 356c0 82 -2.66699 138 -8 168c-7.33301 36.667 -23 67 -47 91c-36.667 36.667 -81.667 55 -135 55s-98.333 -18.333 -135 -55c-24 -24 -39.667 -54.333 -47 -91c-5.33301 -30 -8 -86 -8 -168s2.66699 -138 8 -168
c7.33301 -36.667 23 -67 47 -91c36.667 -36.667 81.667 -55 135 -55s98.333 18.333 135 55c24 24 39.667 54.333 47 91c5.33301 30 8 86 8 168zM467 828c0 -10.667 -3.66699 -19.667 -11 -27s-16 -11 -26 -11c-10.667 0 -19.667 3.66699 -27 11s-11 16 -11 26
c0 10.667 3.66699 19.667 11 27s16 11 26 11c10.667 0 19.667 -3.66699 27 -11s11 -16 11 -26zM260 828c0 -10.667 -3.66699 -19.667 -11 -27s-16 -11 -26 -11c-10.667 0 -19.667 3.66699 -27 11s-11 16 -11 26c0 10.667 3.66699 19.667 11 27s16 11 26 11
c10.667 0 19.667 -3.66699 27 -11s11 -16 11 -26z" />
    <glyph glyph-name="multiply" unicode="&#xd7;" horiz-adv-x="514" 
d="M443 109l-31 -31l-155 155l-155 -155l-31 31l155 155l-155 155l31 31l155 -155l155 155l31 -31l-155 -155z" />
    <glyph glyph-name="Oslash" unicode="&#xd8;" horiz-adv-x="652" 
d="M570 356c0 -90 -3 -150.333 -9 -181c-8 -42 -27 -78 -57 -108c-48.667 -48.667 -108 -73 -178 -73c-47.333 0 -90.666 11.667 -129.999 35l-35 -73h-53l49 102l-9 9c-30 30 -49 66.333 -57 109c-6 30 -9 90 -9 180s3 150.333 9 181c8 42 27 78 57 108
c48.667 48.667 108 73 178 73c47.333 0 90.666 -11.667 129.999 -35l35 73h53l-49 -102l9 -9c30 -30 49 -66.333 57 -109c6 -30 9 -90 9 -180zM516 356c0 77.333 -2.33301 130.333 -7 159c-5.33301 36 -18 65.667 -38 89l-253 -529c31.333 -22 67.333 -33 108 -33
c53.333 0 98.333 18.333 135 55c24 24 39.667 54.333 47 91c5.33301 30 8 86 8 168zM434 637c-30.667 22 -66.667 33 -108 33c-53.333 0 -98.333 -18.333 -135 -55c-24 -24 -39.667 -54.333 -47 -91c-5.33301 -30 -8 -86 -8 -168c0 -77.333 2.33301 -130.333 7 -159
c5.33301 -36 18 -65.667 38 -89z" />
    <glyph glyph-name="Ugrave" unicode="&#xd9;" horiz-adv-x="687" 
d="M588 231c0 -69.333 -22.833 -126.166 -68.5 -170.499s-104.167 -66.5 -175.5 -66.5s-129.833 22.167 -175.5 66.5s-68.5 101.166 -68.5 170.499v481h54v-474c0 -58.667 17.333 -106 52 -142s80.667 -54 138 -54s103.333 18 138 54s52 83.333 52 142v474h54v-481zM391 780
h-58l-106 147h67z" />
    <glyph glyph-name="Uacute" unicode="&#xda;" horiz-adv-x="687" 
d="M588 231c0 -69.333 -22.833 -126.166 -68.5 -170.499s-104.167 -66.5 -175.5 -66.5s-129.833 22.167 -175.5 66.5s-68.5 101.166 -68.5 170.499v481h54v-474c0 -58.667 17.333 -106 52 -142s80.667 -54 138 -54s103.333 18 138 54s52 83.333 52 142v474h54v-481zM461 927
l-106 -147h-58l97 147h67z" />
    <glyph glyph-name="Ucircumflex" unicode="&#xdb;" horiz-adv-x="687" 
d="M588 231c0 -69.333 -22.833 -126.166 -68.5 -170.499s-104.167 -66.5 -175.5 -66.5s-129.833 22.167 -175.5 66.5s-68.5 101.166 -68.5 170.499v481h54v-474c0 -58.667 17.333 -106 52 -142s80.667 -54 138 -54s103.333 18 138 54s52 83.333 52 142v474h54v-481zM494 780
h-57l-93 109l-93 -109h-57l123 147h54z" />
    <glyph glyph-name="Udieresis" unicode="&#xdc;" horiz-adv-x="687" 
d="M588 231c0 -69.333 -22.833 -126.166 -68.5 -170.499s-104.167 -66.5 -175.5 -66.5s-129.833 22.167 -175.5 66.5s-68.5 101.166 -68.5 170.499v481h54v-474c0 -58.667 17.333 -106 52 -142s80.667 -54 138 -54s103.333 18 138 54s52 83.333 52 142v474h54v-481zM485 828
c0 -10.667 -3.66699 -19.667 -11 -27s-16 -11 -26 -11c-10.667 0 -19.667 3.66699 -27 11s-11 16 -11 26c0 10.667 3.66699 19.667 11 27s16 11 26 11c10.667 0 19.667 -3.66699 27 -11s11 -16 11 -26zM278 828c0 -10.667 -3.66699 -19.667 -11 -27s-16 -11 -26 -11
c-10.667 0 -19.667 3.66699 -27 11s-11 16 -11 26c0 10.667 3.66699 19.667 11 27s16 11 26 11c10.667 0 19.667 -3.66699 27 -11s11 -16 11 -26z" />
    <glyph glyph-name="Yacute" unicode="&#xdd;" horiz-adv-x="494" 
d="M484 712l-210 -417v-295h-54v295l-210 417h58l181 -360l177 360h58zM364 927l-106 -147h-58l97 147h67z" />
    <glyph glyph-name="Thorn" unicode="&#xde;" horiz-adv-x="646" 
d="M586 359c0 -63.333 -20 -113.333 -60 -150s-91.667 -55 -155 -55h-207v-154h-54v712h54v-148h207c63.333 0 115 -18.333 155 -55s60 -86.667 60 -150zM532 359c0 52 -15.667 91.667 -47 119c-29.333 25.333 -69.333 38 -120 38h-201v-314h201
c50.667 0 91.167 13.167 121.5 39.5s45.5 65.5 45.5 117.5z" />
    <glyph glyph-name="germandbls" unicode="&#xdf;" horiz-adv-x="550" 
d="M473 134c0 -43.333 -12.834 -76.502 -38.501 -99.502s-57.5 -34.5 -95.5 -34.5h-54v45h44c24.667 0 46.334 7.33301 65.001 22s28 39 28 73v179c0 30.667 -7.83301 53.5 -23.5 68.5s-37.167 22.5 -64.5 22.5h-49v45h39c29.333 0 53 9.33301 71 28s27 43.334 27 74.001
c0 34.667 -11.5 62.834 -34.5 84.501s-57.833 32.5 -104.5 32.5c-90 0 -135 -49.667 -135 -149v-525h-51v525c0 60 17 107.333 51 142s81 52 141 52c53.333 0 96.333 -13 129 -39c36 -28.667 54 -69.667 54 -123s-21 -94 -63 -122c25.333 -13.333 42.333 -29 51 -47
s13 -43.667 13 -77v-177z" />
    <glyph glyph-name="agrave" unicode="&#xe0;" horiz-adv-x="524" 
d="M431 0h-51.001v48c-36 -36 -85 -54 -147 -54c-66.667 0 -114 14.667 -142 44c-23.333 24 -35 55.333 -35 94c0 44 14.833 78.167 44.5 102.5s70.834 36.5 123.501 36.5h156v54c0 78.667 -45.333 118 -136 118c-60.667 0 -105 -20.333 -133 -61l-37 32
c35.333 49.333 92 74 170 74c124.667 0 187 -52.667 187 -158v-330zM379.999 168v62h-150c-82 0 -123 -32.333 -123 -97c0 -62.667 42 -94 126 -94c54.667 0 94.667 12.333 120 37c18 17.333 27 48 27 92zM295.999 590h-58l-106 147h67z" />
    <glyph glyph-name="aacute" unicode="&#xe1;" horiz-adv-x="524" 
d="M431 0h-51.001v48c-36 -36 -85 -54 -147 -54c-66.667 0 -114 14.667 -142 44c-23.333 24 -35 55.333 -35 94c0 44 14.833 78.167 44.5 102.5s70.834 36.5 123.501 36.5h156v54c0 78.667 -45.333 118 -136 118c-60.667 0 -105 -20.333 -133 -61l-37 32
c35.333 49.333 92 74 170 74c124.667 0 187 -52.667 187 -158v-330zM379.999 168v62h-150c-82 0 -123 -32.333 -123 -97c0 -62.667 42 -94 126 -94c54.667 0 94.667 12.333 120 37c18 17.333 27 48 27 92zM365.999 737l-106 -147h-58l97 147h67z" />
    <glyph glyph-name="acircumflex" unicode="&#xe2;" horiz-adv-x="524" 
d="M431 0h-51.001v48c-36 -36 -85 -54 -147 -54c-66.667 0 -114 14.667 -142 44c-23.333 24 -35 55.333 -35 94c0 44 14.833 78.167 44.5 102.5s70.834 36.5 123.501 36.5h156v54c0 78.667 -45.333 118 -136 118c-60.667 0 -105 -20.333 -133 -61l-37 32
c35.333 49.333 92 74 170 74c124.667 0 187 -52.667 187 -158v-330zM379.999 168v62h-150c-82 0 -123 -32.333 -123 -97c0 -62.667 42 -94 126 -94c54.667 0 94.667 12.333 120 37c18 17.333 27 48 27 92zM398.999 590h-57l-93 109l-93 -109h-57l123 147h54z" />
    <glyph glyph-name="atilde" unicode="&#xe3;" horiz-adv-x="524" 
d="M431 0h-51.001v48c-36 -36 -85 -54 -147 -54c-66.667 0 -114 14.667 -142 44c-23.333 24 -35 55.333 -35 94c0 44 14.833 78.167 44.5 102.5s70.834 36.5 123.501 36.5h156v54c0 78.667 -45.333 118 -136 118c-60.667 0 -105 -20.333 -133 -61l-37 32
c35.333 49.333 92 74 170 74c124.667 0 187 -52.667 187 -158v-330zM379.999 168v62h-150c-82 0 -123 -32.333 -123 -97c0 -62.667 42 -94 126 -94c54.667 0 94.667 12.333 120 37c18 17.333 27 48 27 92zM397.999 653c-32 -32 -61.668 -48 -89.001 -48
c-18.667 0 -41.667 8 -69 24c-24 14 -42.667 21 -56 21c-17.333 0 -37 -11 -59 -33l-30 29c32 32 61.667 48 89 48c20 0 43 -8 69 -24c22.667 -14 41.334 -21 56.001 -21c17.333 0 37 11 59 33z" />
    <glyph glyph-name="adieresis" unicode="&#xe4;" horiz-adv-x="524" 
d="M431 0h-51.001v48c-36 -36 -85 -54 -147 -54c-66.667 0 -114 14.667 -142 44c-23.333 24 -35 55.333 -35 94c0 44 14.833 78.167 44.5 102.5s70.834 36.5 123.501 36.5h156v54c0 78.667 -45.333 118 -136 118c-60.667 0 -105 -20.333 -133 -61l-37 32
c35.333 49.333 92 74 170 74c124.667 0 187 -52.667 187 -158v-330zM379.999 168v62h-150c-82 0 -123 -32.333 -123 -97c0 -62.667 42 -94 126 -94c54.667 0 94.667 12.333 120 37c18 17.333 27 48 27 92zM389.999 638c0 -10.667 -3.66699 -19.667 -11 -27s-16 -11 -26 -11
c-10.667 0 -19.667 3.66699 -27 11s-11 16 -11 26c0 10.667 3.66699 19.667 11 27s16 11 26 11c10.667 0 19.667 -3.66699 27 -11s11 -16 11 -26zM182.999 638c0 -10.667 -3.66699 -19.667 -11 -27s-16 -11 -26 -11c-10.667 0 -19.667 3.66699 -27 11s-11 16 -11 26
c0 10.667 3.66699 19.667 11 27s16 11 26 11c10.667 0 19.667 -3.66699 27 -11s11 -16 11 -26z" />
    <glyph glyph-name="aring" unicode="&#xe5;" horiz-adv-x="524" 
d="M431 0h-51.001v48c-36 -36 -85 -54 -147 -54c-66.667 0 -114 14.667 -142 44c-23.333 24 -35 55.333 -35 94c0 44 14.833 78.167 44.5 102.5s70.834 36.5 123.501 36.5h156v54c0 78.667 -45.333 118 -136 118c-60.667 0 -105 -20.333 -133 -61l-37 32
c35.333 49.333 92 74 170 74c124.667 0 187 -52.667 187 -158v-330zM379.999 168v62h-150c-82 0 -123 -32.333 -123 -97c0 -62.667 42 -94 126 -94c54.667 0 94.667 12.333 120 37c18 17.333 27 48 27 92zM362.999 677c0 -31.333 -11.167 -58.333 -33.5 -81
s-49.166 -34 -80.499 -34s-58.166 11.333 -80.499 34s-33.5 49.667 -33.5 81s11.167 58.166 33.5 80.499s49.166 33.5 80.499 33.5s58.166 -11.167 80.499 -33.5s33.5 -49.166 33.5 -80.499zM321.999 677c0 20 -7.16699 37 -21.5 51s-31.5 21 -51.5 21s-37.167 -7 -51.5 -21
s-21.5 -31 -21.5 -51s7.16699 -37.167 21.5 -51.5s31.5 -21.5 51.5 -21.5s37.167 7.16699 51.5 21.5s21.5 31.5 21.5 51.5z" />
    <glyph glyph-name="ae" unicode="&#xe6;" horiz-adv-x="834" 
d="M766 230l-335.004 0.000976562c0 -126.667 52.333 -190 157 -190c50 0 94.333 19.333 133 58l38 -30c-49.333 -49.333 -107.666 -74 -174.999 -74c-81.333 0 -138.666 30 -171.999 90c-20 -32.667 -43.667 -55.834 -71 -69.501s-63.333 -20.5 -108 -20.5
c-66.667 0 -114 14.667 -142 44c-23.333 24 -35 55.333 -35 94c0 44 14.833 78.167 44.5 102.5s70.834 36.5 123.501 36.5h156v54c0 78.667 -45.333 118 -136 118c-60.667 0 -105 -20.333 -133 -61l-37 32c35.333 49.333 92 74 170 74c90.667 0 148.334 -28.333 173.001 -85
c34 56.667 86 85 156 85c60 0 107.167 -20.833 141.5 -62.5s51.5 -99.167 51.5 -172.5v-23zM714.996 271.001c-1.33301 37.333 -7 68 -17 92s-26.333 43.333 -49 58s-48 22 -76 22s-53.333 -7.33301 -76 -22s-39 -34 -49 -58s-15.667 -54.667 -17 -92h284zM379.996 168.001
v62h-150c-82 0 -123 -32.333 -123 -97c0 -62.667 42 -94 126 -94c54.667 0 94.667 12.333 120 37c18 17.333 27 48 27 92z" />
    <glyph glyph-name="ccedilla" unicode="&#xe7;" horiz-adv-x="498" 
d="M440 68c-25.333 -28 -49.833 -47.333 -73.5 -58s-52.167 -16 -85.5 -16c-65.333 0 -117 22 -155 66s-57 104.333 -57 181s19 137 57 181s89.667 66 155 66c33.333 0 61.833 -5.33301 85.5 -16s48.167 -30 73.5 -58l-35 -32c-36 40.667 -77.333 61 -124 61
c-56 0 -98.667 -21.333 -128 -64c-22 -32 -33 -78 -33 -138s11 -106 33 -138c29.333 -42.667 72 -64 128 -64c46.667 0 88 20.333 124 61zM308 -70l-64 -150h-63l72 150h55z" />
    <glyph glyph-name="egrave" unicode="&#xe8;" horiz-adv-x="523" 
d="M455 230h-335c0 -126.667 52.333 -190 157 -190c50 0 94.333 19.333 133 58l38 -30c-49.333 -49.333 -107.333 -74 -174 -74c-136.667 0 -205 82.333 -205 247c0 77.333 17 137.833 51 181.5s81.333 65.5 142 65.5c60 0 107.167 -20.833 141.5 -62.5
s51.5 -99.167 51.5 -172.5v-23zM404 271c-1.33301 37.333 -7 68 -17 92s-26.333 43.333 -49 58s-48 22 -76 22s-53.333 -7.33301 -76 -22s-39 -34 -49 -58s-15.667 -54.667 -17 -92h284zM311 590h-58l-106 147h67z" />
    <glyph glyph-name="eacute" unicode="&#xe9;" horiz-adv-x="523" 
d="M455 230h-335c0 -126.667 52.333 -190 157 -190c50 0 94.333 19.333 133 58l38 -30c-49.333 -49.333 -107.333 -74 -174 -74c-136.667 0 -205 82.333 -205 247c0 77.333 17 137.833 51 181.5s81.333 65.5 142 65.5c60 0 107.167 -20.833 141.5 -62.5
s51.5 -99.167 51.5 -172.5v-23zM404 271c-1.33301 37.333 -7 68 -17 92s-26.333 43.333 -49 58s-48 22 -76 22s-53.333 -7.33301 -76 -22s-39 -34 -49 -58s-15.667 -54.667 -17 -92h284zM381 737l-106 -147h-58l97 147h67z" />
    <glyph glyph-name="ecircumflex" unicode="&#xea;" horiz-adv-x="523" 
d="M455 230h-335c0 -126.667 52.333 -190 157 -190c50 0 94.333 19.333 133 58l38 -30c-49.333 -49.333 -107.333 -74 -174 -74c-136.667 0 -205 82.333 -205 247c0 77.333 17 137.833 51 181.5s81.333 65.5 142 65.5c60 0 107.167 -20.833 141.5 -62.5
s51.5 -99.167 51.5 -172.5v-23zM404 271c-1.33301 37.333 -7 68 -17 92s-26.333 43.333 -49 58s-48 22 -76 22s-53.333 -7.33301 -76 -22s-39 -34 -49 -58s-15.667 -54.667 -17 -92h284zM414 590h-57l-93 109l-93 -109h-57l123 147h54z" />
    <glyph glyph-name="edieresis" unicode="&#xeb;" horiz-adv-x="523" 
d="M455 230h-335c0 -126.667 52.333 -190 157 -190c50 0 94.333 19.333 133 58l38 -30c-49.333 -49.333 -107.333 -74 -174 -74c-136.667 0 -205 82.333 -205 247c0 77.333 17 137.833 51 181.5s81.333 65.5 142 65.5c60 0 107.167 -20.833 141.5 -62.5
s51.5 -99.167 51.5 -172.5v-23zM404 271c-1.33301 37.333 -7 68 -17 92s-26.333 43.333 -49 58s-48 22 -76 22s-53.333 -7.33301 -76 -22s-39 -34 -49 -58s-15.667 -54.667 -17 -92h284zM405 638c0 -10.667 -3.66699 -19.667 -11 -27s-16 -11 -26 -11
c-10.667 0 -19.667 3.66699 -27 11s-11 16 -11 26c0 10.667 3.66699 19.667 11 27s16 11 26 11c10.667 0 19.667 -3.66699 27 -11s11 -16 11 -26zM198 638c0 -10.667 -3.66699 -19.667 -11 -27s-16 -11 -26 -11c-10.667 0 -19.667 3.66699 -27 11s-11 16 -11 26
c0 10.667 3.66699 19.667 11 27s16 11 26 11c10.667 0 19.667 -3.66699 27 -11s11 -16 11 -26z" />
    <glyph glyph-name="igrave" unicode="&#xec;" horiz-adv-x="245" 
d="M148 0h-51v482h51v-482zM173 590h-58l-106 147h67z" />
    <glyph glyph-name="iacute" unicode="&#xed;" horiz-adv-x="245" 
d="M148 0h-51v482h51v-482zM235 737l-106 -147h-58l97 147h67z" />
    <glyph glyph-name="icircumflex" unicode="&#xee;" horiz-adv-x="245" 
d="M148 0h-51v482h51v-482zM272 590h-57l-93 109l-93 -109h-57l123 147h54z" />
    <glyph glyph-name="idieresis" unicode="&#xef;" horiz-adv-x="245" 
d="M148 0h-51v482h51v-482zM264 638c0 -10.667 -3.66699 -19.667 -11 -27s-16 -11 -26 -11c-10.667 0 -19.667 3.66699 -27 11s-11 16 -11 26c0 10.667 3.66699 19.667 11 27s16 11 26 11c10.667 0 19.667 -3.66699 27 -11s11 -16 11 -26zM57 638
c0 -10.667 -3.66699 -19.667 -11 -27s-16 -11 -26 -11c-10.667 0 -19.667 3.66699 -27 11s-11 16 -11 26c0 10.667 3.66699 19.667 11 27s16 11 26 11c10.667 0 19.667 -3.66699 27 -11s11 -16 11 -26z" />
    <glyph glyph-name="eth" unicode="&#xf0;" horiz-adv-x="526" 
d="M457 241c0 -89.333 -20 -154 -60 -194c-35.333 -35.333 -80 -53 -134 -53s-98.667 17.667 -134 53c-40 40 -60 104.667 -60 194s20 154 60 194c35.333 35.333 80 53 134 53c31.333 0 56.333 -5.66699 75 -17l-67 113h-117v38h95l-53 90h53l52 -90h79v-38h-57l72 -123
c24.667 -42 41.167 -77.667 49.5 -107s12.5 -67 12.5 -113zM406 241c0 78.667 -14 132 -42 160s-61.667 42 -101 42s-73 -14 -101 -42s-42 -81.333 -42 -160s14 -132 42 -160s61.667 -42 101 -42s73 14 101 42s42 81.333 42 160z" />
    <glyph glyph-name="ntilde" unicode="&#xf1;" horiz-adv-x="559" 
d="M468 0l-51 -0.00195312v299c0 96 -44.333 144 -133 144c-42.667 0 -76 -12.667 -100 -38s-36 -60.666 -36 -105.999v-299h-51v482h51v-57c36 42 83.333 63 142 63c55.333 0 98.833 -16.167 130.5 -48.5s47.5 -76.166 47.5 -131.499v-308zM433 652.998
c-32 -32 -61.668 -48 -89.001 -48c-18.667 0 -41.667 8 -69 24c-24 14 -42.667 21 -56 21c-17.333 0 -37 -11 -59 -33l-30 29c32 32 61.667 48 89 48c20 0 43 -8 69 -24c22.667 -14 41.334 -21 56.001 -21c17.333 0 37 11 59 33z" />
    <glyph glyph-name="ograve" unicode="&#xf2;" horiz-adv-x="526" 
d="M297 590h-58l-106 147h67zM521 241c0 -89.333 -20 -154 -60 -194c-35.333 -35.333 -80 -53 -134 -53s-98.667 17.667 -134 53c-40 40 -60 104.667 -60 194s20 154 60 194c35.333 35.333 80 53 134 53s98.667 -17.667 134 -53c40 -40 60 -104.667 60 -194zM470 241
c0 78.667 -14 132 -42 160s-61.667 42 -101 42s-73 -14 -101 -42s-42 -81.333 -42 -160s14 -132 42 -160s61.667 -42 101 -42s73 14 101 42s42 81.333 42 160z" />
    <glyph glyph-name="oacute" unicode="&#xf3;" horiz-adv-x="526" 
d="M457 241c0 -89.333 -20 -154 -60 -194c-35.333 -35.333 -80 -53 -134 -53s-98.667 17.667 -134 53c-40 40 -60 104.667 -60 194s20 154 60 194c35.333 35.333 80 53 134 53s98.667 -17.667 134 -53c40 -40 60 -104.667 60 -194zM406 241c0 78.667 -14 132 -42 160
s-61.667 42 -101 42s-73 -14 -101 -42s-42 -81.333 -42 -160s14 -132 42 -160s61.667 -42 101 -42s73 14 101 42s42 81.333 42 160zM380 737l-106 -147h-58l97 147h67z" />
    <glyph glyph-name="ocircumflex" unicode="&#xf4;" horiz-adv-x="526" 
d="M457 241c0 -89.333 -20 -154 -60 -194c-35.333 -35.333 -80 -53 -134 -53s-98.667 17.667 -134 53c-40 40 -60 104.667 -60 194s20 154 60 194c35.333 35.333 80 53 134 53s98.667 -17.667 134 -53c40 -40 60 -104.667 60 -194zM406 241c0 78.667 -14 132 -42 160
s-61.667 42 -101 42s-73 -14 -101 -42s-42 -81.333 -42 -160s14 -132 42 -160s61.667 -42 101 -42s73 14 101 42s42 81.333 42 160zM413 590h-57l-93 109l-93 -109h-57l123 147h54z" />
    <glyph glyph-name="otilde" unicode="&#xf5;" horiz-adv-x="526" 
d="M457 241c0 -89.333 -20 -154 -60 -194c-35.333 -35.333 -80 -53 -134 -53s-98.667 17.667 -134 53c-40 40 -60 104.667 -60 194s20 154 60 194c35.333 35.333 80 53 134 53s98.667 -17.667 134 -53c40 -40 60 -104.667 60 -194zM406 241c0 78.667 -14 132 -42 160
s-61.667 42 -101 42s-73 -14 -101 -42s-42 -81.333 -42 -160s14 -132 42 -160s61.667 -42 101 -42s73 14 101 42s42 81.333 42 160zM412 653c-32 -32 -61.668 -48 -89.001 -48c-18.667 0 -41.667 8 -69 24c-24 14 -42.667 21 -56 21c-17.333 0 -37 -11 -59 -33l-30 29
c32 32 61.667 48 89 48c20 0 43 -8 69 -24c22.667 -14 41.334 -21 56.001 -21c17.333 0 37 11 59 33z" />
    <glyph glyph-name="odieresis" unicode="&#xf6;" horiz-adv-x="526" 
d="M457 241c0 -89.333 -20 -154 -60 -194c-35.333 -35.333 -80 -53 -134 -53s-98.667 17.667 -134 53c-40 40 -60 104.667 -60 194s20 154 60 194c35.333 35.333 80 53 134 53s98.667 -17.667 134 -53c40 -40 60 -104.667 60 -194zM406 241c0 78.667 -14 132 -42 160
s-61.667 42 -101 42s-73 -14 -101 -42s-42 -81.333 -42 -160s14 -132 42 -160s61.667 -42 101 -42s73 14 101 42s42 81.333 42 160zM404 638c0 -10.667 -3.66699 -19.667 -11 -27s-16 -11 -26 -11c-10.667 0 -19.667 3.66699 -27 11s-11 16 -11 26
c0 10.667 3.66699 19.667 11 27s16 11 26 11c10.667 0 19.667 -3.66699 27 -11s11 -16 11 -26zM197 638c0 -10.667 -3.66699 -19.667 -11 -27s-16 -11 -26 -11c-10.667 0 -19.667 3.66699 -27 11s-11 16 -11 26c0 10.667 3.66699 19.667 11 27s16 11 26 11
c10.667 0 19.667 -3.66699 27 -11s11 -16 11 -26z" />
    <glyph glyph-name="divide" unicode="&#xf7;" horiz-adv-x="514" 
d="M303 433c0 -12.667 -4.5 -23.5 -13.5 -32.5s-19.833 -13.5 -32.5 -13.5s-23.5 4.5 -32.5 13.5s-13.5 19.833 -13.5 32.5s4.5 23.5 13.5 32.5s19.833 13.5 32.5 13.5s23.5 -4.5 32.5 -13.5s13.5 -19.833 13.5 -32.5zM461 240h-408v47h408v-47zM303 94
c0 -12.667 -4.5 -23.5 -13.5 -32.5s-19.833 -13.5 -32.5 -13.5s-23.5 4.5 -32.5 13.5s-13.5 19.833 -13.5 32.5s4.5 23.5 13.5 32.5s19.833 13.5 32.5 13.5s23.5 -4.5 32.5 -13.5s13.5 -19.833 13.5 -32.5z" />
    <glyph glyph-name="oslash" unicode="&#xf8;" horiz-adv-x="526" 
d="M457 241c0 -89.333 -20 -154 -60 -194c-35.333 -35.333 -80 -53 -134 -53c-39.333 0 -74.333 9.66699 -105 29l-40 -67h-48l56 94c-38 40.667 -57 104.334 -57 191.001c0 89.333 20 154 60 194c35.333 35.333 80 53 134 53c40 0 75 -10 105 -30l40 68h48l-56 -94
c38 -40.667 57 -104.334 57 -191.001zM406 241c0 69.333 -10.667 118.667 -32 148l-192 -325c24 -16.667 51 -25 81 -25c39.333 0 73 14 101 42s42 81.333 42 160zM344 418.001c-24 16.667 -51 24.999 -81 24.999c-39.333 0 -73 -14 -101 -42s-42 -81.333 -42 -160
c0 -69.333 10.667 -118.666 32 -147.999z" />
    <glyph glyph-name="ugrave" unicode="&#xf9;" horiz-adv-x="559" 
d="M462 0l-51 0.00195312v57c-36 -42 -83.333 -63 -142 -63c-55.333 0 -98.833 16.167 -130.5 48.5s-47.5 76.166 -47.5 131.499v308h51v-299c0 -96 44.333 -144 133 -144c42.667 0 76 12.667 100 38s36 60.666 36 105.999v299h51v-482zM323 590.002h-58l-106 147h67z" />
    <glyph glyph-name="uacute" unicode="&#xfa;" horiz-adv-x="559" 
d="M462 0l-51 0.00195312v57c-36 -42 -83.333 -63 -142 -63c-55.333 0 -98.833 16.167 -130.5 48.5s-47.5 76.166 -47.5 131.499v308h51v-299c0 -96 44.333 -144 133 -144c42.667 0 76 12.667 100 38s36 60.666 36 105.999v299h51v-482zM393 737.002l-106 -147h-58l97 147
h67z" />
    <glyph glyph-name="ucircumflex" unicode="&#xfb;" horiz-adv-x="559" 
d="M462 0l-51 0.00195312v57c-36 -42 -83.333 -63 -142 -63c-55.333 0 -98.833 16.167 -130.5 48.5s-47.5 76.166 -47.5 131.499v308h51v-299c0 -96 44.333 -144 133 -144c42.667 0 76 12.667 100 38s36 60.666 36 105.999v299h51v-482zM426 590.002h-57l-93 109l-93 -109
h-57l123 147h54z" />
    <glyph glyph-name="udieresis" unicode="&#xfc;" horiz-adv-x="559" 
d="M462 0l-51 0.00195312v57c-36 -42 -83.333 -63 -142 -63c-55.333 0 -98.833 16.167 -130.5 48.5s-47.5 76.166 -47.5 131.499v308h51v-299c0 -96 44.333 -144 133 -144c42.667 0 76 12.667 100 38s36 60.666 36 105.999v299h51v-482zM417 638.002
c0 -10.667 -3.66699 -19.667 -11 -27s-16 -11 -26 -11c-10.667 0 -19.667 3.66699 -27 11s-11 16 -11 26c0 10.667 3.66699 19.667 11 27s16 11 26 11c10.667 0 19.667 -3.66699 27 -11s11 -16 11 -26zM210 638.002c0 -10.667 -3.66699 -19.667 -11 -27s-16 -11 -26 -11
c-10.667 0 -19.667 3.66699 -27 11s-11 16 -11 26c0 10.667 3.66699 19.667 11 27s16 11 26 11c10.667 0 19.667 -3.66699 27 -11s11 -16 11 -26z" />
    <glyph glyph-name="yacute" unicode="&#xfd;" horiz-adv-x="430" 
d="M416 482l-223.999 -612.999c-9.33301 -26 -20.333 -44.667 -33 -56c-22.667 -20.667 -53 -31 -91 -31h-24v45h19c26.667 0 45.667 4.66699 57 14s21.666 26.666 30.999 51.999l39 107l-176 482h56l145 -422l145 422h56zM332.001 737.001l-106 -147h-58l97 147h67z" />
    <glyph glyph-name="thorn" unicode="&#xfe;" horiz-adv-x="540" 
d="M471 241c0 -95.333 -20.667 -163.668 -62 -205.001c-28 -28 -67.333 -42 -118 -42c-61.333 0 -109 22.667 -143 68v-292h-51v942h51v-292c34 45.333 81.667 68 143 68c50.667 0 90 -14 118 -42c41.333 -41.333 62 -109.666 62 -204.999zM420 240.998
c0 61.333 -8 107.666 -24 138.999c-21.333 42 -58.666 63 -111.999 63s-90.666 -21 -111.999 -63c-16 -31.333 -24 -77.666 -24 -138.999s8 -107.333 24 -138c21.333 -42.667 58.666 -64 111.999 -64s90.666 21.333 111.999 64c16 30.667 24 76.667 24 138z" />
    <glyph glyph-name="ydieresis" unicode="&#xff;" horiz-adv-x="430" 
d="M416 482l-223.999 -612.999c-9.33301 -26 -20.333 -44.667 -33 -56c-22.667 -20.667 -53 -31 -91 -31h-24v45h19c26.667 0 45.667 4.66699 57 14s21.666 26.666 30.999 51.999l39 107l-176 482h56l145 -422l145 422h56zM356.001 638.001
c0 -10.667 -3.66699 -19.667 -11 -27s-16 -11 -26 -11c-10.667 0 -19.667 3.66699 -27 11s-11 16 -11 26c0 10.667 3.66699 19.667 11 27s16 11 26 11c10.667 0 19.667 -3.66699 27 -11s11 -16 11 -26zM149.001 638.001c0 -10.667 -3.66699 -19.667 -11 -27s-16 -11 -26 -11
c-10.667 0 -19.667 3.66699 -27 11s-11 16 -11 26c0 10.667 3.66699 19.667 11 27s16 11 26 11c10.667 0 19.667 -3.66699 27 -11s11 -16 11 -26z" />
    <glyph glyph-name="dotlessi" unicode="&#x131;" horiz-adv-x="245" 
d="M148 0h-51v482h51v-482z" />
    <glyph glyph-name="Lslash" unicode="&#x141;" horiz-adv-x="578" 
d="M548 0h-432v306l-76 -48v48l76 48v358h54v-324l164 104v-48l-164 -104v-292h378v-48z" />
    <glyph glyph-name="lslash" unicode="&#x142;" horiz-adv-x="308" 
d="M266 0h-44c-77.333 0 -116 41.667 -116 125v231l-66 -41v45l66 41v311h51v-279l88 55v-45l-88 -55v-262c0 -28 5.5 -48.5 16.5 -61.5s30.167 -19.5 57.5 -19.5h35v-45z" />
    <glyph glyph-name="OE" unicode="&#x152;" horiz-adv-x="997" 
d="M941 0l-425 0.000976562v85c-48.667 -60.667 -112 -91 -190 -91c-70 0 -129.333 24.333 -178 73c-30 30 -49 66 -57 108c-6 30.667 -9 91 -9 181s3 150.333 9 181c8 42 27 78 57 108c48.667 48.667 108 73 178 73c78 0 141.333 -30.333 190 -91v85h422v-47h-369
c0 -32 0.333008 -79.667 1 -143v-142h313v-42h-313v-145c-0.666992 -64.667 -1 -113.334 -1 -146.001h372v-47zM516 356.001c0 82 -2.66699 138 -8 168c-7.33301 36.667 -23 67 -47 91c-36.667 36.667 -81.667 55 -135 55s-98.333 -18.333 -135 -55
c-24 -24 -39.667 -54.333 -47 -91c-5.33301 -30 -8 -86 -8 -168s2.66699 -138 8 -168c7.33301 -36.667 23 -67 47 -91c36.667 -36.667 81.667 -55 135 -55s98.333 18.333 135 55c24 24 39.667 54.333 47 91c5.33301 30 8 86 8 168z" />
    <glyph glyph-name="oe" unicode="&#x153;" horiz-adv-x="860" 
d="M792 230h-335.001c0 -126.667 52.333 -190 157 -190c50 0 94.333 19.333 133 58l38 -30c-49.333 -49.333 -107.333 -74 -174 -74c-86 0 -145.333 35 -178 105c-32 -70 -88.667 -105 -170 -105c-54 0 -98.667 17.667 -134 53c-40 40 -60 104.667 -60 194s20 154 60 194
c35.333 35.333 80 53 134 53c80.667 0 137.334 -35 170.001 -105c32.667 70 88 105 166 105c60 0 107.167 -20.833 141.5 -62.5s51.5 -99.167 51.5 -172.5v-23zM740.999 271c-1.33301 37.333 -7 68 -17 92s-26.333 43.333 -49 58s-48 22 -76 22s-53.333 -7.33301 -76 -22
s-39 -34 -49 -58s-15.667 -54.667 -17 -92h284zM405.999 241c0 78.667 -14 132 -42 160s-61.667 42 -101 42s-73 -14 -101 -42s-42 -81.333 -42 -160s14 -132 42 -160s61.667 -42 101 -42s73 14 101 42s42 81.333 42 160z" />
    <glyph glyph-name="Scaron" unicode="&#x160;" horiz-adv-x="587" 
d="M528 191c0 -60 -21.5 -107.832 -64.5 -143.499s-101.5 -53.5 -175.5 -53.5c-95.333 0 -174.333 31.333 -237 94l38 38c31.333 -31.333 62 -53.166 92 -65.499s66.667 -18.5 110 -18.5c56.667 0 101.334 13 134.001 39s49 62 49 108c0 44 -13 77.333 -39 100
c-20.667 18 -55 30.667 -103 38l-83 13c-122 19.333 -183 80.333 -183 183c0 59.333 19.833 106.666 59.5 141.999s93.5 53 161.5 53c77.333 0 145.666 -25.667 204.999 -77l-35 -35c-49.333 44 -107 66 -173 66c-51.333 0 -91.666 -13.167 -120.999 -39.5
s-44 -62.166 -44 -107.499c0 -41.333 12.333 -72.333 37 -93c26.667 -22.667 62 -37.334 106 -44.001l77 -12c57.333 -8.66699 99.666 -24.334 126.999 -47.001c41.333 -34 62 -80 62 -138zM437 927.001l-123 -147h-54l-123 147h57l93 -109l93 109h57z" />
    <glyph glyph-name="scaron" unicode="&#x161;" horiz-adv-x="494" 
d="M438 137c0 -44 -17.332 -78.833 -51.999 -104.5s-81.667 -38.5 -141 -38.5c-82 0 -147 23 -195 69l35 35c37.333 -39.333 90 -59 158 -59c96.667 0 145 32.667 145 98c0 48.667 -30.667 75.667 -92 81l-80 7c-96.667 8.66699 -145 50.667 -145 126
c0 41.333 15.667 74.5 47 99.5s73.333 37.5 126 37.5c68 0 124.333 -17 169 -51l-34 -34c-37.333 27.333 -82.333 41 -135 41c-82 0 -123 -31 -123 -93c0 -48 32.667 -75 98 -81l78 -7c45.333 -4 78.666 -14 99.999 -30c27.333 -20.667 41 -52.667 41 -96zM394.001 737
l-123 -147h-54l-123 147h57l93 -109l93 109h57z" />
    <glyph glyph-name="Ydieresis" unicode="&#x178;" horiz-adv-x="494" 
d="M484 712l-210 -417v-295h-54v295l-210 417h58l181 -360l177 360h58zM388 828c0 -10.667 -3.66699 -19.667 -11 -27s-16 -11 -26 -11c-10.667 0 -19.667 3.66699 -27 11s-11 16 -11 26c0 10.667 3.66699 19.667 11 27s16 11 26 11c10.667 0 19.667 -3.66699 27 -11
s11 -16 11 -26zM181 828c0 -10.667 -3.66699 -19.667 -11 -27s-16 -11 -26 -11c-10.667 0 -19.667 3.66699 -27 11s-11 16 -11 26c0 10.667 3.66699 19.667 11 27s16 11 26 11c10.667 0 19.667 -3.66699 27 -11s11 -16 11 -26z" />
    <glyph glyph-name="Zcaron" unicode="&#x17d;" horiz-adv-x="559" 
d="M496 0h-433v57l375 607h-360v48h418v-48l-378 -616h378v-48zM437 927l-123 -147h-54l-123 147h57l93 -109l93 109h57z" />
    <glyph glyph-name="zcaron" unicode="&#x17e;" horiz-adv-x="452" 
d="M398 0h-344v48l290 389h-274v45h328v-48l-291 -389h291v-45zM384 737l-123 -147h-54l-123 147h57l93 -109l93 109h57z" />
    <glyph glyph-name="florin" unicode="&#x192;" horiz-adv-x="394" 
d="M364 667h-43.001c-49.333 0 -78.666 -26.667 -87.999 -80l-36 -207h109v-38h-116l-101 -572h-51l101 572h-109v38h116l36 206c6.66699 38 22.167 68.5 46.5 91.5s54.833 34.5 91.5 34.5h44v-45z" />
    <glyph glyph-name="circumflex" unicode="&#x2c6;" 
d="M400 590h-57l-93 109l-93 -109h-57l123 147h54z" />
    <glyph glyph-name="caron" unicode="&#x2c7;" 
d="M400 737l-123 -147h-54l-123 147h57l93 -109l93 109h57z" />
    <glyph glyph-name="breve" unicode="&#x2d8;" 
d="M415 722c-9.33301 -90 -63.667 -135 -163 -135c-102 0 -157.667 45 -167 135h47c8.66699 -60 48.667 -90 120 -90s111.333 30 120 90h43z" />
    <glyph glyph-name="dotaccent" unicode="&#x2d9;" 
d="M281 643h-62v63h62v-63z" />
    <glyph glyph-name="ring" unicode="&#x2da;" 
d="M364 677c0 -31.333 -11.167 -58.333 -33.5 -81s-49.166 -34 -80.499 -34s-58.166 11.333 -80.499 34s-33.5 49.667 -33.5 81s11.167 58.166 33.5 80.499s49.166 33.5 80.499 33.5s58.166 -11.167 80.499 -33.5s33.5 -49.166 33.5 -80.499zM323 677
c0 20 -7.16699 37 -21.5 51s-31.5 21 -51.5 21s-37.167 -7 -51.5 -21s-21.5 -31 -21.5 -51s7.16699 -37.167 21.5 -51.5s31.5 -21.5 51.5 -21.5s37.167 7.16699 51.5 21.5s21.5 31.5 21.5 51.5z" />
    <glyph glyph-name="ogonek" unicode="&#x2db;" 
d="M319 -220h-63l-64 150h55z" />
    <glyph glyph-name="tilde" unicode="&#x2dc;" 
d="M399 653c-32 -32 -61.668 -48 -89.001 -48c-18.667 0 -41.667 8 -69 24c-24 14 -42.667 21 -56 21c-17.333 0 -37 -11 -59 -33l-30 29c32 32 61.667 48 89 48c20 0 43 -8 69 -24c22.667 -14 41.334 -21 56.001 -21c17.333 0 37 11 59 33z" />
    <glyph glyph-name="hungarumlaut" unicode="&#x2dd;" 
d="M441 737l-107 -147h-57l97 147h67zM294 737l-106 -147h-58l97 147h67z" />
    <glyph glyph-name="Delta" unicode="&#x394;" horiz-adv-x="591" 
d="M581 0h-571l262 712h47zM511 48l-216 592l-215 -592h431z" />
    <glyph glyph-name="Delta" unicode="&#x2206;" horiz-adv-x="591" 
d="M581 0h-571l262 712h47zM511 48l-216 592l-215 -592h431z" />
    <glyph glyph-name="Omega" unicode="&#x3a9;" horiz-adv-x="652" 
d="M570 0h-186v47c48.667 23.333 83.667 52.666 105 87.999c18 29.333 27 103 27 221c0 82 -2.66699 138 -8 168c-7.33301 36.667 -23 67 -47 91c-36.667 36.667 -81.667 55 -135 55s-98.333 -18.333 -135 -55c-24 -24 -39.667 -54.333 -47 -91c-5.33301 -30 -8 -86 -8 -168
c0 -118 9 -191.667 27 -221c21.333 -35.333 56.333 -64.666 105 -87.999v-47h-186v47h91c-28 22 -48.833 45.833 -62.5 71.5s-22.167 61.5 -25.5 107.5c-2 21.333 -3 64.666 -3 129.999c0 90 3 150.333 9 181c8 42 27 78 57 108c48.667 48.667 108 73 178 73
s129.333 -24.333 178 -73c30 -30 49 -66 57 -108c6 -30.667 9 -91 9 -181c0 -65.333 -1 -108.666 -3 -129.999c-3.33301 -46 -11.833 -81.833 -25.5 -107.5s-34.5 -49.5 -62.5 -71.5h91v-47z" />
    <glyph glyph-name="Omega" unicode="&#x2126;" horiz-adv-x="652" 
d="M570 0h-186v47c48.667 23.333 83.667 52.666 105 87.999c18 29.333 27 103 27 221c0 82 -2.66699 138 -8 168c-7.33301 36.667 -23 67 -47 91c-36.667 36.667 -81.667 55 -135 55s-98.333 -18.333 -135 -55c-24 -24 -39.667 -54.333 -47 -91c-5.33301 -30 -8 -86 -8 -168
c0 -118 9 -191.667 27 -221c21.333 -35.333 56.333 -64.666 105 -87.999v-47h-186v47h91c-28 22 -48.833 45.833 -62.5 71.5s-22.167 61.5 -25.5 107.5c-2 21.333 -3 64.666 -3 129.999c0 90 3 150.333 9 181c8 42 27 78 57 108c48.667 48.667 108 73 178 73
s129.333 -24.333 178 -73c30 -30 49 -66 57 -108c6 -30.667 9 -91 9 -181c0 -65.333 -1 -108.666 -3 -129.999c-3.33301 -46 -11.833 -81.833 -25.5 -107.5s-34.5 -49.5 -62.5 -71.5h91v-47z" />
    <glyph glyph-name="pi" unicode="&#x3c0;" horiz-adv-x="591" 
d="M481 0h-48v437h-275v-437h-48v482h371v-482z" />
    <glyph glyph-name="endash" unicode="&#x2013;" horiz-adv-x="514" 
d="M461 240h-408v47h408v-47z" />
    <glyph glyph-name="emdash" unicode="&#x2014;" horiz-adv-x="873" 
d="M791 240h-709v47h709v-47z" />
    <glyph glyph-name="quoteleft" unicode="&#x2018;" horiz-adv-x="260" 
d="M165 642h-70v70l70 70v-140z" />
    <glyph glyph-name="quoteright" unicode="&#x2019;" horiz-adv-x="260" 
d="M165 642l-70 -70v140h70v-70z" />
    <glyph glyph-name="quotesinglbase" unicode="&#x201a;" horiz-adv-x="260" 
d="M165 0l-70 -70v140h70v-70z" />
    <glyph glyph-name="quotedblleft" unicode="&#x201c;" horiz-adv-x="416" 
d="M321 642h-70v70l70 70v-140zM165 642h-70v70l70 70v-140z" />
    <glyph glyph-name="quotedblright" unicode="&#x201d;" horiz-adv-x="416" 
d="M321 642l-70 -70v140h70v-70zM165 642l-70 -70v140h70v-70z" />
    <glyph glyph-name="quotedblbase" unicode="&#x201e;" horiz-adv-x="416" 
d="M321 0l-70 -70v140h70v-70zM165 0l-70 -70v140h70v-70z" />
    <glyph glyph-name="dagger" unicode="&#x2020;" horiz-adv-x="614" 
d="M534 457h-203v-457h-51v457h-200v45h200v210h51v-210h203v-45z" />
    <glyph glyph-name="daggerdbl" unicode="&#x2021;" horiz-adv-x="614" 
d="M534 -20h-203v-210h-51v210h-200v45h200v432h-200v45h200v210h51v-210h203v-45h-203v-432h203v-45z" />
    <glyph glyph-name="bullet" unicode="&#x2022;" horiz-adv-x="546" 
d="M436 334c0 -44.667 -15.833 -83 -47.5 -115s-70.167 -48 -115.5 -48c-44.667 0 -83 16 -115 48s-48 70.333 -48 115c0 45.333 16 83.833 48 115.5s70.333 47.5 115 47.5c45.333 0 83.833 -15.833 115.5 -47.5s47.5 -70.167 47.5 -115.5z" />
    <glyph glyph-name="ellipsis" unicode="&#x2026;" horiz-adv-x="724" 
d="M638 43c0 -12.667 -4.5 -23.5 -13.5 -32.5s-19.833 -13.5 -32.5 -13.5s-23.5 4.5 -32.5 13.5s-13.5 19.833 -13.5 32.5s4.5 23.5 13.5 32.5s19.833 13.5 32.5 13.5s23.5 -4.5 32.5 -13.5s13.5 -19.833 13.5 -32.5zM408 43c0 -12.667 -4.5 -23.5 -13.5 -32.5
s-19.833 -13.5 -32.5 -13.5s-23.5 4.5 -32.5 13.5s-13.5 19.833 -13.5 32.5s4.5 23.5 13.5 32.5s19.833 13.5 32.5 13.5s23.5 -4.5 32.5 -13.5s13.5 -19.833 13.5 -32.5zM178 43c0 -12.667 -4.5 -23.5 -13.5 -32.5s-19.833 -13.5 -32.5 -13.5s-23.5 4.5 -32.5 13.5
s-13.5 19.833 -13.5 32.5s4.5 23.5 13.5 32.5s19.833 13.5 32.5 13.5s23.5 -4.5 32.5 -13.5s13.5 -19.833 13.5 -32.5z" />
    <glyph glyph-name="perthousand" unicode="&#x2030;" horiz-adv-x="1168" 
d="M1099 127c0 -39.333 -12.167 -71.5 -36.5 -96.5s-55.833 -37.5 -94.5 -37.5s-70.334 12.5 -95.001 37.5s-37 57.167 -37 96.5v107c0 39.333 12.333 71.5 37 96.5s56.334 37.5 95.001 37.5s70.167 -12.5 94.5 -37.5s36.5 -57.167 36.5 -96.5v-107zM759 127
c0 -39.333 -12.167 -71.5 -36.5 -96.5s-55.833 -37.5 -94.5 -37.5s-70.334 12.5 -95.001 37.5s-37 57.167 -37 96.5v107c0 39.333 12.333 71.5 37 96.5s56.334 37.5 95.001 37.5s70.167 -12.5 94.5 -37.5s36.5 -57.167 36.5 -96.5v-107zM603 712l-332 -712h-45l332 712h45z
M332 478c0 -39.333 -12.167 -71.333 -36.5 -96s-55.833 -37 -94.5 -37s-70.334 12.333 -95.001 37s-37 56.667 -37 96v107c0 39.333 12.333 71.5 37 96.5s56.334 37.5 95.001 37.5s70.167 -12.5 94.5 -37.5s36.5 -57.167 36.5 -96.5v-107zM1055 128v104
c0 65.333 -29 98 -87 98c-58.667 0 -88 -32.667 -88 -98v-103c0 -65.333 29.333 -98 88 -98c58 0 87 32.333 87 97zM715 129v103c0 65.333 -29 98 -87 98c-58.667 0 -88 -32.667 -88 -98v-103c0 -65.333 29.333 -98 88 -98c58 0 87 32.667 87 98zM288 480v103
c0 65.333 -29 98 -87 98c-58.667 0 -88 -32.667 -88 -98v-103c0 -64.667 29.333 -97 88 -97c58 0 87 32.333 87 97z" />
    <glyph glyph-name="guilsinglleft" unicode="&#x2039;" horiz-adv-x="320" 
d="M238 69l-196 196l196 196v-66l-130 -130l130 -130v-66z" />
    <glyph glyph-name="guilsinglright" unicode="&#x203a;" horiz-adv-x="320" 
d="M278 265l-196 -196v66l130 130l-130 130v66z" />
    <glyph glyph-name="fraction" unicode="&#x2044;" horiz-adv-x="177" 
d="M277 712l-332 -712h-45l332 712h45z" />
    <glyph glyph-name="trademark" unicode="&#x2122;" horiz-adv-x="809" 
d="M753 285h-44v328l-110 -218h-46l-110 218v-328h-44v427h44l133 -270l133 270h44v-427zM320 671h-122v-386h-44v386h-122v41h288v-41z" />
    <glyph glyph-name="partialdiff" unicode="&#x2202;" horiz-adv-x="540" 
d="M443 241c0 -89.333 -19.333 -154.001 -58 -194.001c-34 -35.333 -77 -53 -129 -53s-95 17.667 -129 53c-38.667 40 -58 104.667 -58 194c0 92.667 19.333 158.334 58 197.001c33.333 33.333 74 50 122 50c61.333 0 109 -22.667 143 -68v86c0 50 -11.667 89.667 -35 119
c-25.333 32 -62.333 48 -111 48c-28 0 -51.667 -4.66699 -71 -14c-14.667 -6.66699 -32.667 -19.667 -54 -39l-33 33c27.333 24 51 40.333 71 49c24 10.667 53 16 87 16c62 0 110.333 -19 145 -57s52 -88.667 52 -152v-268zM392 240.999c0 78.667 -13.333 132 -40 160
s-58.667 42 -96 42s-69.333 -14 -96 -42s-40 -81.333 -40 -160s13.333 -132 40 -160s58.667 -42 96 -42s69.333 14 96 42s40 81.333 40 160z" />
    <glyph glyph-name="product" unicode="&#x220f;" horiz-adv-x="699" 
d="M589 -230h-54v942h-371v-942h-54v990h479v-990z" />
    <glyph glyph-name="summation" unicode="&#x2211;" horiz-adv-x="551" 
d="M495 -230h-432v48l207 461l-207 433v48h432v-48h-371l195 -409v-48l-195 -437h371v-48z" />
    <glyph glyph-name="radical" unicode="&#x221a;" horiz-adv-x="550" 
d="M520 664h-88l-217 -664h-46l-159 482h56l126 -387l199 617h129v-48z" />
    <glyph glyph-name="infinity" unicode="&#x221e;" horiz-adv-x="792" 
d="M720 260c0 -42.667 -13.833 -77.999 -41.5 -105.999s-62.834 -42 -105.501 -42c-34 0 -64.167 8.16699 -90.5 24.5s-55.166 44.166 -86.499 83.499c-31.333 -39.333 -60.333 -67.333 -87 -84s-56.334 -25 -89.001 -25c-42.667 0 -78 14.167 -106 42.5
s-42 63.833 -42 106.5s14 78.334 42 107.001s63.333 43 106 43c58 0 116.667 -36.667 176 -110c32 40 61 68.333 87 85s56 25 90 25c42.667 0 77.834 -14.333 105.501 -43s41.5 -64.334 41.5 -107.001zM672 260.001c0 30.667 -9.5 55.499 -28.5 74.499
s-43.833 28.5 -74.5 28.5c-24.667 0 -48.667 -9.33301 -72 -28c-17.333 -13.333 -41 -38.333 -71 -75c30 -36 53.667 -61 71 -75c23.333 -18 47.333 -27 72 -27c30.667 0 55.5 9.33301 74.5 28s28.5 43.334 28.5 74.001zM366 260c-30.667 37.333 -54.333 62.6689 -71 76.002
c-23.333 19.333 -47.333 29 -72 29c-30.667 0 -55.5 -9.83301 -74.5 -29.5s-28.5 -44.834 -28.5 -75.501s9.5 -55.334 28.5 -74.001s43.833 -28 74.5 -28c24.667 0 48.667 9 72 27c17.333 14 41 39 71 75z" />
    <glyph glyph-name="integral" unicode="&#x222b;" horiz-adv-x="329" 
d="M299 667h-35c-49.333 0 -74 -26.667 -74 -80v-691c0 -38 -9.66699 -68 -29 -90c-21.333 -24 -50.333 -36 -87 -36h-44v45h35c49.333 0 74 26.667 74 80v691c0 38 10.167 68.5 30.5 91.5s48.833 34.5 85.5 34.5h44v-45z" />
    <glyph glyph-name="approxequal" unicode="&#x2248;" horiz-adv-x="514" 
d="M461 357c-22 -22 -39.333 -37 -52 -45c-18.667 -11.333 -40 -17 -64 -17c-19.333 0 -53.333 10.333 -102 31c-36.667 15.333 -62 23 -76 23c-25.333 0 -53 -15 -83 -45l-31 31c22 22 39.333 37 52 45c18.667 11.333 40 17 64 17c19.333 0 53.333 -10.333 102 -31
c36.667 -15.333 62 -23 76 -23c25.333 0 53 15 83 45zM461 197c-22 -22 -39.333 -37 -52 -45c-18.667 -11.333 -40 -17 -64 -17c-19.333 0 -53.333 10.333 -102 31c-36.667 15.333 -62 23 -76 23c-25.333 0 -53 -15 -83 -45l-31 31c22 22 39.333 37 52 45
c18.667 11.333 40 17 64 17c19.333 0 53.333 -10.333 102 -31c36.667 -15.333 62 -23 76 -23c25.333 0 53 15 83 45z" />
    <glyph glyph-name="approxequal" unicode="&#x22f2;" horiz-adv-x="514" 
d="M461 357c-22 -22 -39.333 -37 -52 -45c-18.667 -11.333 -40 -17 -64 -17c-19.333 0 -53.333 10.333 -102 31c-36.667 15.333 -62 23 -76 23c-25.333 0 -53 -15 -83 -45l-31 31c22 22 39.333 37 52 45c18.667 11.333 40 17 64 17c19.333 0 53.333 -10.333 102 -31
c36.667 -15.333 62 -23 76 -23c25.333 0 53 15 83 45zM461 197c-22 -22 -39.333 -37 -52 -45c-18.667 -11.333 -40 -17 -64 -17c-19.333 0 -53.333 10.333 -102 31c-36.667 15.333 -62 23 -76 23c-25.333 0 -53 -15 -83 -45l-31 31c22 22 39.333 37 52 45
c18.667 11.333 40 17 64 17c19.333 0 53.333 -10.333 102 -31c36.667 -15.333 62 -23 76 -23c25.333 0 53 15 83 45z" />
    <glyph glyph-name="notequal" unicode="&#x2260;" horiz-adv-x="514" 
d="M461 163h-271l-104 -104l-33 33l71 71h-71v47h118l106 106h-224v47h271l104 104l33 -33l-71 -71h71v-47h-118l-106 -106h224v-47z" />
    <glyph glyph-name="lessequal" unicode="&#x2264;" horiz-adv-x="1027" 
d="M854 550l-579 -579h536l-49 -48h-571v571l48 49v-536l580 579z" />
    <glyph glyph-name="greaterequal" unicode="&#x2265;" horiz-adv-x="1027" 
d="M836 -77h-571l-49 48h536l-579 579l35 36l580 -579v536l48 -49v-571z" />
    <glyph glyph-name="lozenge" unicode="&#x25ca;" horiz-adv-x="654" 
d="M582 356l-255 -363l-255 363l255 363zM525 356l-198 285l-198 -285l198 -287z" />
    <glyph glyph-name="fi" unicode="&#xf001;" horiz-adv-x="545" 
d="M460 681c0 -10.667 -3.66699 -19.667 -11 -27s-16 -11 -26 -11c-10.667 0 -19.667 3.66699 -27 11s-11 16 -11 26c0 10.667 3.66699 19.667 11 27s16 11 26 11c10.667 0 19.667 -3.66699 27 -11s11 -16 11 -26zM448 0h-51v482h51v-482zM270 444h-109v-444h-51v444h-66v38
h66v104c0 38 10.167 68.5 30.5 91.5s48.833 34.5 85.5 34.5h44v-45h-35c-49.333 0 -74 -26.667 -74 -80v-105h109v-38z" />
    <glyph glyph-name="fl" unicode="&#xf002;" horiz-adv-x="586" 
d="M554 0h-44c-77.333 0 -116 41.667 -116 125v587h51v-586c0 -28 5.5 -48.5 16.5 -61.5s30.167 -19.5 57.5 -19.5h35v-45zM272 444h-109v-444h-51v444h-66v38h66v104c0 38 10.167 68.5 30.5 91.5s48.833 34.5 85.5 34.5h44v-45h-35c-49.333 0 -74 -26.667 -74 -80v-105h109
v-38z" />
    <glyph glyph-name=".null" horiz-adv-x="0" 
 />
    <glyph glyph-name="nonmarkingreturn" horiz-adv-x="255" 
 />
  </font>
</defs>
</svg>
