<?xml version="1.0" standalone="no"?>
<!DOCTYPE svg PUBLIC "-//W3C//DTD SVG 1.1//EN" "http://www.w3.org/Graphics/SVG/1.1/DTD/svg11.dtd" >
<svg>
<metadata>
Created by FontForge 20090914 at Thu Nov 22 06:03:08 2018
 By www-data
&#194;&#169; Dutch Design: Albert-Jan Pool, 1995. Published by FontShop International FontFont release 15
</metadata>
<defs>
<font id="DINMediumAlternate" horiz-adv-x="500" >
  <font-face 
    font-family="DIN"
    font-weight="400"
    font-stretch="normal"
    units-per-em="1000"
    panose-1="0 0 4 0 0 0 0 0 0 0"
    ascent="800"
    descent="-200"
    x-height="507"
    cap-height="712"
    bbox="-110 -211 1138 1000"
    underline-thickness="70"
    underline-position="-102"
    unicode-range="U+0020-U+F002"
  />
<missing-glyph 
d="M63 0v789h375v-789h-375zM125 63h250v664h-250v-664z" />
    <glyph glyph-name=".notdef" 
d="M63 0v789h375v-789h-375zM125 63h250v664h-250v-664z" />
    <glyph glyph-name="space" unicode=" " horiz-adv-x="240" 
 />
    <glyph glyph-name="exclam" unicode="!" horiz-adv-x="332" 
d="M245 712l-23 -500h-77l-24 500h124zM248 62c0 -18 -6.33301 -33.333 -19 -46s-28 -19 -46 -19s-33.333 6.33301 -46 19s-19 28 -19 46s6.33301 33.333 19 46s28 19 46 19s33.333 -6.33301 46 -19s19 -28 19 -46z" />
    <glyph glyph-name="quotedbl" unicode="&#x22;" horiz-adv-x="444" 
d="M366 521h-101v191h101v-191zM179 521h-101v191h101v-191z" />
    <glyph glyph-name="numbersign" unicode="#" horiz-adv-x="672" 
d="M623 426h-92l-20 -124h79v-94h-94l-33 -208h-106l33 208h-137l-32 -208h-107l33 208h-79v94h94l20 124h-81v94h95l31 196h107l-31 -196h136l31 196h106l-31 -196h78v-94zM424 426h-136l-20 -124h137z" />
    <glyph glyph-name="dollar" unicode="$" horiz-adv-x="608" 
d="M556 203c0 -58.667 -19.667 -106.163 -59 -142.496s-91.666 -57.5 -156.999 -63.5v-111h-82v108c-94 4 -170 35.333 -228 94l72 71c42 -42 97 -64.667 165 -68v222l-26 3c-55.333 6.66699 -100.333 26.167 -135 58.5s-52 77.166 -52 134.499s18.167 104.666 54.5 141.999
s86.166 59 149.499 65v90h82v-89c76 -4.66699 139.667 -31.334 191 -80.001l-69 -68c-34 32 -77.667 50 -131 54v-216l34 -5c58.667 -8.66699 103 -26.334 133 -53.001c38.667 -34 58 -82.667 58 -146zM267 414.004l-0.000976562 208.001
c-34 -3.33301 -60.5 -14.833 -79.5 -34.5s-28.5 -44.5 -28.5 -74.5c0 -28 9.33301 -50.333 28 -67s45.334 -27.334 80.001 -32.001zM448.999 200.005c0 32.667 -9.33301 57.333 -28 74c-16 14 -46 24.333 -90 31v-212c78.667 7.33301 118 43 118 107z" />
    <glyph glyph-name="percent" unicode="%" horiz-adv-x="842" 
d="M784 130c0 -42 -13.333 -75.333 -40 -100s-60 -37 -100 -37s-73.333 12.333 -100 37s-40 58 -40 100v101c0 42 13.333 75.333 40 100s60 37 100 37s73.333 -12.333 100 -37s40 -58 40 -100v-101zM629 712l-335 -712h-82l336 712h81zM338 481
c0 -42 -13.333 -75.167 -40 -99.5s-60 -36.5 -100 -36.5s-73.333 12.167 -100 36.5s-40 57.5 -40 99.5v101c0 42 13.333 75.333 40 100s60 37 100 37s73.333 -12.333 100 -37s40 -58 40 -100v-101zM707 133v95c0 48 -21 72 -63 72s-63 -24 -63 -72v-95c0 -48 21 -72 63 -72
s63 24 63 72zM261 484v95c0 48 -21 72 -63 72s-63 -24 -63 -72v-95c0 -47.333 21 -71 63 -71s63 23.667 63 71z" />
    <glyph glyph-name="ampersand" unicode="&#x26;" horiz-adv-x="730" 
d="M684 0l-131.001 -0.000976562l-58 70c-58 -50.667 -123.667 -76 -197 -76s-130 19 -170 57s-60 89.667 -60 155c0 44.667 14.667 84.667 44 120c20.667 25.333 53 52.333 97 81c-49.333 57.333 -74 108.333 -74 153c0 46 16 83.833 48 113.5s74 44.5 126 44.5
c50 0 90.667 -15 122 -45s47 -68 47 -114c0 -48.667 -25.333 -90.667 -76 -126l-52 -36l150 -179c24.667 34.667 37.334 82.334 38.001 143.001h98c-3.33301 -94.667 -27 -167.667 -71 -219zM379.999 557.999c0 20 -6.66699 36.834 -20 50.501s-30.333 20.5 -51 20.5
c-21.333 0 -38.333 -6.5 -51 -19.5s-19 -29.833 -19 -50.5c0 -22.667 18.333 -55.334 55 -98.001l34 23c34.667 23.333 52 48 52 74zM433.999 142l-168.998 201.001c-32.667 -22.667 -55 -41.334 -67 -56.001c-19.333 -22.667 -29 -49 -29 -79
c0 -35.333 12.167 -64.333 36.5 -87s55.166 -34 92.499 -34c49.333 0 94.666 18.333 135.999 55z" />
    <glyph glyph-name="quotesingle" unicode="'" horiz-adv-x="257" 
d="M179 521h-101v191h101v-191z" />
    <glyph glyph-name="parenleft" unicode="(" horiz-adv-x="317" 
d="M259 -25l-69 -68.999c-23.333 23.333 -38.333 38.666 -45 45.999c-15.333 16.667 -27.333 33 -36 49c-15.333 27.333 -23 66 -23 116v478c0 50 7.66699 88.667 23 116c12 21.333 39 53 81 95l69 -69l-31 -31c-10 -11.333 -18.333 -23 -25 -35
c-10 -18.667 -15 -46 -15 -82v-466c0 -36 5 -63.333 15 -82c7.33301 -14 26 -36 56 -66z" />
    <glyph glyph-name="parenright" unicode=")" horiz-adv-x="317" 
d="M232 117c0 -48.667 -7.99902 -87.332 -23.999 -115.999c-12.667 -22.667 -39.334 -54.334 -80.001 -95.001l-70 70l31 31c9.33301 11.333 17.333 23 24 35c10 18.667 15 45.667 15 81v466c0 35.333 -5 62.333 -15 81c-8.66699 16 -27 38 -55 66l70 70
c21.333 -21.333 36 -36.666 44 -45.999c15.333 -16.667 27.333 -33 36 -49c16 -28.667 24 -67.334 24 -116.001v-478z" />
    <glyph glyph-name="asterisk" unicode="*" horiz-adv-x="485" 
d="M424 466l-37 -65l-111 69l4 -131h-75l4 131l-111 -69l-37 65l115 61l-115 62l37 65l111 -69l-4 130h75l-4 -130l111 69l37 -65l-115 -62z" />
    <glyph glyph-name="plus" unicode="+" horiz-adv-x="533" 
d="M482 225h-168v-168h-95v168h-168v95h168v167h95v-167h168v-95z" />
    <glyph glyph-name="comma" unicode="," horiz-adv-x="272" 
d="M194 -60l-116 -95v271h116v-176z" />
    <glyph glyph-name="hyphen" unicode="-" horiz-adv-x="426" 
d="M359 230h-292v95h292v-95z" />
    <glyph glyph-name="hyphen" unicode="&#x2010;" horiz-adv-x="426" 
d="M359 230h-292v95h292v-95z" />
    <glyph glyph-name="period" unicode="." horiz-adv-x="284" 
d="M215 70c0 -20 -7.16699 -37.167 -21.5 -51.5s-31.5 -21.5 -51.5 -21.5s-37.167 7.16699 -51.5 21.5s-21.5 31.5 -21.5 51.5s7.16699 37 21.5 51s31.5 21 51.5 21s37.167 -7 51.5 -21s21.5 -31 21.5 -51z" />
    <glyph glyph-name="slash" unicode="/" horiz-adv-x="380" 
d="M383 786l-285 -860h-98l285 860h98z" />
    <glyph glyph-name="zero" unicode="0" horiz-adv-x="534" 
d="M473 198c0 -62 -20.333 -112 -61 -150c-38 -36 -86.333 -54 -145 -54s-107 18 -145 54c-40.667 38 -61 88 -61 150v201c0 62 20.333 112 61 150c38 36 86.333 54 145 54s107 -18 145 -54c40.667 -38 61 -88 61 -150v-201zM371 201v195c0 34.667 -9.33301 62.667 -28 84
s-44 32 -76 32s-57.333 -10.667 -76 -32s-28 -49.333 -28 -84v-195c0 -34.667 9.33301 -62.667 28 -84s44 -32 76 -32s57.333 10.667 76 32s28 49.333 28 84z" />
    <glyph glyph-name="one" unicode="1" horiz-adv-x="407" 
d="M294 0h-102v486l-140 -122v113l140 120h102v-597z" />
    <glyph glyph-name="two" unicode="2" horiz-adv-x="528" 
d="M471 0h-429.002v91l242 220c46 42 69 82.333 69 121c0 28.667 -9.66699 52.5 -29 71.5s-44 28.5 -74 28.5c-29.333 0 -53.666 -9 -72.999 -27c-21.333 -19.333 -32 -45.333 -32 -78h-102c0 58 19.833 105.167 59.5 141.5s88.834 54.5 147.501 54.5
c60 0 109.167 -17.833 147.5 -53.5s57.5 -81.167 57.5 -136.5c0 -34 -10.667 -67 -32 -99c-15.333 -23.333 -41.333 -52.333 -78 -87l-165 -156h291v-91z" />
    <glyph glyph-name="three" unicode="3" horiz-adv-x="526" 
d="M472 85c0 -66 -21.335 -117.666 -64.002 -154.999c-40 -34.667 -91.333 -52 -154 -52c-61.333 0 -111.666 15.667 -150.999 47c-43.333 35.333 -66 86 -68 152h102c2 -36 14.667 -63.667 38 -83c20.667 -16.667 47 -25 79 -25c34 0 61.833 10.5 83.5 31.5
s32.5 49.833 32.5 86.5c0 78 -40 117 -120 117h-17v89h17c72 0 108 36.333 108 109c0 34.667 -10 61.667 -30 81s-45 29 -75 29c-30.667 0 -55.5 -9.16699 -74.5 -27.5s-29.833 -43.166 -32.5 -74.499h-102c2.66699 59.333 24 106.666 64 141.999c38 34 86.333 51 145 51
c60.667 0 110.334 -18.5 149.001 -55.5s58 -84.833 58 -143.5c0 -72.667 -29.333 -123.334 -88 -152.001c66.667 -29.333 100 -85 100 -167z" />
    <glyph glyph-name="four" unicode="4" horiz-adv-x="566" 
d="M526 30h-85v-153h-98v153h-305v95l253 510h109l-253 -510h196v176h98v-176h85v-95z" />
    <glyph glyph-name="five" unicode="5" horiz-adv-x="535" 
d="M477 123c0 -86 -20.002 -149.001 -60.002 -189.001c-37.333 -37.333 -87.333 -56 -150 -56c-64 0 -114.333 18.333 -151 55c-32 32 -50.333 77.333 -55 136h102c8.66699 -66 43.334 -99 104.001 -99c31.333 0 56.333 9.33301 75 28c22 22 33 63.667 33 125
c0 99.333 -34.333 149 -103 149c-54.667 0 -88.667 -21.333 -102 -64h-92v389h383v-91h-291v-188c26 27.333 65 41 117 41c54.667 0 97.334 -15.333 128.001 -46c41.333 -41.333 62 -104.666 62 -189.999z" />
    <glyph glyph-name="six" unicode="6" horiz-adv-x="538" 
d="M492 223c0 -68.667 -20.666 -124 -61.999 -166s-95 -63 -161 -63c-66.667 0 -120.5 20 -161.5 60s-61.5 94.667 -61.5 164c0 63.333 20.333 131.333 61 204l171 306h109l-175 -303c22 11.333 49.333 17 82 17c57.333 0 104.666 -20 141.999 -60s56 -93 56 -159z
M390.001 220c0 40 -10.833 73.167 -32.5 99.5s-51.167 39.5 -88.5 39.5c-36 0 -65.167 -12.667 -87.5 -38s-33.5 -59 -33.5 -101s11.167 -75.5 33.5 -100.5s51.5 -37.5 87.5 -37.5s65.167 12.5 87.5 37.5s33.5 58.5 33.5 100.5z" />
    <glyph glyph-name="seven" unicode="7" horiz-adv-x="528" 
d="M493 506l-276 -626h-109l276 626h-241v-112h-98v203h448v-91z" />
    <glyph glyph-name="eight" unicode="8" horiz-adv-x="549" 
d="M494 201c0 -62.667 -20.999 -112.835 -62.999 -150.502s-94.333 -56.5 -157 -56.5s-114.334 18.333 -155.001 55c-42.667 38.667 -64 89.334 -64 152.001c0 72 32.667 127.667 98 167c-58 35.333 -87 86.333 -87 153c0 58.667 20.333 106.334 61 143.001
c38.667 36 87.667 54 147 54s108.833 -18.167 148.5 -54.5s59.5 -83.833 59.5 -142.5c0 -67.333 -28.667 -118.333 -86 -153c65.333 -39.333 98 -95 98 -167zM380.001 517.999c0 31.333 -10 57.333 -30 78s-45.333 31 -76 31s-56 -10.333 -76 -31s-30 -46.667 -30 -78
s10 -57.166 30 -77.499s45.333 -30.5 76 -30.5s56 10.167 76 30.5s30 46.166 30 77.499zM392.001 202.999c0 33.333 -11.5 61.5 -34.5 84.5s-50.833 34.5 -83.5 34.5s-60.334 -11.5 -83.001 -34.5s-34 -51.167 -34 -84.5s11.333 -61.333 34 -84s50.334 -34 83.001 -34
c33.333 0 61.333 11.5 84 34.5s34 50.833 34 83.5z" />
    <glyph glyph-name="nine" unicode="9" horiz-adv-x="538" 
d="M492 379c0 -64.667 -20 -132.667 -60 -204l-172 -306h-109l175 303c-22 -11.333 -49 -17 -81 -17c-57.333 0 -104.833 20 -142.5 60s-56.5 93 -56.5 159c0 68.667 20.667 124 62 166s95 63 161 63c66.667 0 120.5 -20 161.5 -60s61.5 -94.667 61.5 -164zM390 377
c0 42 -11.167 75.5 -33.5 100.5s-51.5 37.5 -87.5 37.5s-65.167 -12.5 -87.5 -37.5s-33.5 -58.5 -33.5 -100.5c0 -40 10.833 -73.167 32.5 -99.5s51.167 -39.5 88.5 -39.5c36 0 65.167 12.667 87.5 38s33.5 59 33.5 101z" />
    <glyph glyph-name="colon" unicode=":" horiz-adv-x="310" 
d="M240 347c0 -20 -7 -37.167 -21 -51.5s-31 -21.5 -51 -21.5s-37.167 7.16699 -51.5 21.5s-21.5 31.5 -21.5 51.5s7.16699 37.167 21.5 51.5s31.5 21.5 51.5 21.5s37 -7.16699 51 -21.5s21 -31.5 21 -51.5zM240 70c0 -20 -7 -37.167 -21 -51.5s-31 -21.5 -51 -21.5
s-37.167 7.16699 -51.5 21.5s-21.5 31.5 -21.5 51.5s7.16699 37 21.5 51s31.5 21 51.5 21s37 -7 51 -21s21 -31 21 -51z" />
    <glyph glyph-name="semicolon" unicode=";" horiz-adv-x="303" 
d="M240 347c0 -20 -7 -37.167 -21 -51.5s-31 -21.5 -51 -21.5s-37.167 7.16699 -51.5 21.5s-21.5 31.5 -21.5 51.5s7.16699 37.167 21.5 51.5s31.5 21.5 51.5 21.5s37 -7.16699 51 -21.5s21 -31.5 21 -51.5zM226 -60l-116 -95v271h116v-176z" />
    <glyph glyph-name="less" unicode="&#x3c;" horiz-adv-x="1027" 
d="M905 209l-391 -392l-392 392v130l343 -345v745h97v-745l343 345v-130z" />
    <glyph glyph-name="equal" unicode="=" horiz-adv-x="533" 
d="M482 327h-431v95h431v-95zM482 133h-431v95h431v-95z" />
    <glyph glyph-name="greater" unicode="&#x3e;" horiz-adv-x="1027" 
d="M906 217l-344 345v-745h-96v745l-344 -345v130l392 392l392 -392v-130z" />
    <glyph glyph-name="question" unicode="?" horiz-adv-x="511" 
d="M470 527c0 -37.333 -16 -78.333 -48 -123l-77 -108c-12 -16.667 -18 -34.667 -18 -54v-30h-102v35c0 35.333 11.333 68.333 34 99l78 105c20.667 28 31 53.333 31 76c0 28.667 -9.16699 52.5 -27.5 71.5s-41.833 28.5 -70.5 28.5c-30 0 -53.667 -9.83301 -71 -29.5
s-26 -43.5 -26 -71.5h-102c0 56 19 102 57 138s85.333 54 142 54c56 0 103 -17 141 -51c39.333 -36 59 -82.667 59 -140zM340 62c0 -18 -6.33301 -33.333 -19 -46s-28 -19 -46 -19s-33.167 6.33301 -45.5 19s-18.5 28 -18.5 46s6.16699 33.333 18.5 46s27.5 19 45.5 19
s33.333 -6.33301 46 -19s19 -28 19 -46z" />
    <glyph glyph-name="at" unicode="@" horiz-adv-x="736" 
d="M672 -2l-96.001 2.00195v50c-32 -38 -74.333 -57 -127 -57c-54 0 -97.667 18.667 -131 56c-20 22.667 -33 52 -39 88c-4 21.333 -6 53.666 -6 96.999c0 88 14.333 149.333 43 184c31.333 38 75.333 57 132 57c52 0 94 -18.667 126 -56v61
c0 46.667 -12.167 82.5 -36.5 107.5s-59.833 37.5 -106.5 37.5h-126c-45.333 0 -80.333 -12.333 -105 -37s-37 -60.667 -37 -108v-312c0 -28 3.5 -49.5 10.5 -64.5s20.167 -30.167 39.5 -45.5l-70 -70c-30 24.667 -50.667 49.167 -62 73.5s-17 58.166 -17 101.499v318
c0 76.667 19.5 134.834 58.5 174.501s96.5 59.5 172.5 59.5h146c74.667 0 131.834 -19.833 171.501 -59.5s59.5 -97.834 59.5 -174.501v-483zM573.999 234.002c0 103.333 -34 154.999 -102 154.999c-38.667 0 -66 -15 -82 -45c-12.667 -24 -19 -60.667 -19 -110
s6.33301 -85.666 19 -108.999c16 -30 43.333 -45 82 -45c68 0 102 51.333 102 154z" />
    <glyph glyph-name="A" unicode="A" horiz-adv-x="625" 
d="M617 0h-115l-49 143h-281l-49 -143h-115l261 712h87zM423 235l-108 316l-111 -316h219z" />
    <glyph glyph-name="B" unicode="B" horiz-adv-x="663" 
d="M596 201c0 -64 -19.667 -113.5 -59 -148.5s-91.333 -52.5 -156 -52.5h-288v712h277c66 0 118.333 -17.5 157 -52.5s58 -82.5 58 -142.5c0 -36 -10 -68.333 -30 -97c-18 -25.333 -40 -43.333 -66 -54c71.333 -28.667 107 -83.667 107 -165zM477 513
c0 32.667 -10.5 57.832 -31.5 75.499s-49.167 26.5 -84.5 26.5h-160v-204h160c35.333 0 63.5 8.83301 84.5 26.5s31.5 42.834 31.5 75.501zM488 205.998c0 32 -10.333 58 -31 78s-49.334 30 -86.001 30h-170v-217h170c36.667 0 65.334 10 86.001 30s31 46.333 31 79z" />
    <glyph glyph-name="C" unicode="C" horiz-adv-x="574" 
d="M522 78c-57.333 -56 -123.666 -84 -198.999 -84c-74 0 -136.333 25.333 -187 76c-32 32 -52.333 71.333 -61 118c-5.33301 29.333 -8 85.333 -8 168s2.66699 138.667 8 168c8.66699 46.667 29 86 61 118c50.667 50.667 113 76 187 76c75.333 0 141.666 -28 198.999 -84
l-72 -73c-40 40 -82.333 60 -127 60c-43.333 0 -78.333 -14.333 -105 -43c-21.333 -22.667 -34.333 -57.667 -39 -105c-2 -16.667 -3 -55.667 -3 -117s1 -100.333 3 -117c4.66699 -47.333 17.667 -82.333 39 -105c26.667 -28.667 61.667 -43 105 -43c44.667 0 87 20 127 60z
" />
    <glyph glyph-name="D" unicode="D" horiz-adv-x="666" 
d="M599 361c0 -75.333 -2.33301 -127.667 -7 -157c-9.33301 -57.333 -31 -103 -65 -137c-44.667 -44.667 -106 -67 -184 -67h-250v712h250c78 0 139.333 -22.333 184 -67c34 -34 55.667 -78 65 -132c4.66699 -28 7 -78.667 7 -152zM491 360.999
c0 59.333 -1.66699 100.667 -5 124c-5.33301 36 -16.333 63.333 -33 82c-28.667 32 -69 48 -121 48h-131v-518h131c52 0 92.333 16 121 48c16.667 18.667 27.667 47.667 33 87c3.33301 25.333 5 68.333 5 129z" />
    <glyph glyph-name="E" unicode="E" horiz-adv-x="603" 
d="M548 0h-455v712h455v-97h-347v-208h296v-96h-296v-214h347v-97z" />
    <glyph glyph-name="F" unicode="F" horiz-adv-x="585" 
d="M548 615h-347v-217h296v-97h-296v-301h-108v712h455v-97z" />
    <glyph glyph-name="G" unicode="G" horiz-adv-x="641" 
d="M580 278c0 -90 -21.002 -157.332 -63.002 -201.999c-51.333 -54.667 -116 -82 -194 -82c-74 0 -136.333 25.333 -187 76c-32 32 -52.333 71.333 -61 118c-5.33301 29.333 -8 85.333 -8 168s2.66699 138.667 8 168c8.66699 46.667 29 86 61 118
c50.667 50.667 113 76 187 76c46.667 0 86.667 -7.66699 120 -23c30 -14 61.667 -37.667 95 -71l-73 -73c-25.333 25.333 -46.666 42.666 -63.999 51.999c-22 12 -48 18 -78 18c-43.333 0 -78.666 -14.667 -105.999 -44c-21.333 -22.667 -34.333 -57.667 -39 -105
c-2 -16.667 -3 -55.334 -3 -116.001c0 -61.333 1 -100.333 3 -117c4.66699 -47.333 17.667 -82.333 39 -105c26.667 -28.667 62 -43 106 -43c46.667 0 84.667 16.667 114 50c23.333 26.667 35 64.334 35 113.001v39h-149v92h257v-107z" />
    <glyph glyph-name="H" unicode="H" horiz-adv-x="691" 
d="M598 0h-108v311h-289v-311h-108v712h108v-304h289v304h108v-712z" />
    <glyph glyph-name="I" unicode="I" horiz-adv-x="294" 
d="M201 0h-108v712h108v-712z" />
    <glyph glyph-name="J" unicode="J" horiz-adv-x="506" 
d="M423 225c0 -71.333 -23.002 -128.333 -69.002 -171c-44 -40 -100 -60 -168 -60c-69.333 0 -127 23 -173 69l72 71c28.667 -28.667 62.334 -43 101.001 -43c40.667 0 72.334 12.167 95.001 36.5s34 59.5 34 105.5v479h108v-487z" />
    <glyph glyph-name="K" unicode="K" horiz-adv-x="658" 
d="M648 0h-127l-200 351l-120 -144v-207h-108v712h108v-358l291 358h132l-231 -279z" />
    <glyph glyph-name="L" unicode="L" horiz-adv-x="574" 
d="M544 0h-451v712h108v-615h343v-97z" />
    <glyph glyph-name="M" unicode="M" horiz-adv-x="813" 
d="M721 0h-108v476l-164 -347h-80l-168 347v-476h-108v712h108l208 -443l204 443h108v-712z" />
    <glyph glyph-name="N" unicode="N" horiz-adv-x="722" 
d="M629 0h-99l-329 501v-501h-108v712h99l329 -500v500h108v-712z" />
    <glyph glyph-name="O" unicode="O" horiz-adv-x="646" 
d="M579 356c0 -83.333 -2.66699 -139.333 -8 -168c-8 -46.667 -28 -86 -60 -118c-50.667 -50.667 -113.334 -76 -188.001 -76c-74 0 -136.333 25.333 -187 76c-32 32 -52.333 71.333 -61 118c-5.33301 29.333 -8 85.333 -8 168s2.66699 138.667 8 168
c8.66699 46.667 29 86 61 118c50.667 50.667 113 76 187 76c74.667 0 137.334 -25.333 188.001 -76c32 -32 52 -71.333 60 -118c5.33301 -28.667 8 -84.667 8 -168zM471 356c0 60.667 -1 99.334 -3 116.001c-4.66699 47.333 -17.667 82.333 -39 105
c-27.333 29.333 -62.666 44 -105.999 44s-78.666 -14.667 -105.999 -44c-21.333 -22.667 -34.333 -57.667 -39 -105c-2 -16.667 -3 -55.334 -3 -116.001s1 -99.334 3 -116.001c4.66699 -47.333 17.667 -82.333 39 -105c27.333 -29.333 62.666 -44 105.999 -44
s78.666 14.667 105.999 44c21.333 22.667 34.333 57.667 39 105c2 16.667 3 55.334 3 116.001z" />
    <glyph glyph-name="P" unicode="P" horiz-adv-x="629" 
d="M591 496c0 -62.667 -20.833 -114.332 -62.5 -154.999s-96.834 -61 -165.501 -61h-162v-280h-108v712h270c68.667 0 123.834 -20.333 165.501 -61s62.5 -92.334 62.5 -155.001zM483 496.002c0 37.333 -11.5 66.5 -34.5 87.5s-53.5 31.5 -91.5 31.5h-156v-237h156
c38 0 68.5 10.5 91.5 31.5s34.5 49.833 34.5 86.5z" />
    <glyph glyph-name="Q" unicode="Q" horiz-adv-x="646" 
d="M603 28l-60 -60l-71 71c-42.667 -30 -92.334 -45 -149.001 -45c-74 0 -136.333 25.333 -187 76c-32 32 -52.333 71.333 -61 118c-5.33301 29.333 -8 85.333 -8 168s2.66699 138.667 8 168c8.66699 46.667 29 86 61 118c50.667 50.667 113 76 187 76
c74.667 0 137.334 -25.333 188.001 -76c32 -32 52 -71.333 60 -118c5.33301 -28.667 8 -84.667 8 -168c0 -74 -1.66699 -124.333 -5 -151c-6 -43.333 -19.667 -79.333 -41 -108zM471 356c0 60.667 -1 99.335 -3 116.002c-4.66699 47.333 -17.667 82.333 -39 105
c-27.333 29.333 -62.666 44 -105.999 44s-78.666 -14.667 -105.999 -44c-21.333 -22.667 -34.333 -57.667 -39 -105c-2 -16.667 -3 -55.334 -3 -116.001s1 -99.334 3 -116.001c4.66699 -47.333 17.667 -82.333 39 -105c27.333 -29.333 62.666 -44 105.999 -44
c27.333 0 51.666 7.66699 72.999 23l-75 75l60 60l69 -69c14 28 21 86.667 21 176z" />
    <glyph glyph-name="R" unicode="R" horiz-adv-x="655" 
d="M612 0h-126l-150 300h-135v-300h-108v712h276c66.667 0 120.167 -19.333 160.5 -58s60.5 -88.667 60.5 -150c0 -48.667 -13.167 -89.5 -39.5 -122.5s-60.5 -55.167 -102.5 -66.5zM482 503c0 34.667 -11 61.999 -33 81.999s-51.333 30 -88 30h-160v-223h160
c36.667 0 66 9.83301 88 29.5s33 46.834 33 81.501z" />
    <glyph glyph-name="S" unicode="S" horiz-adv-x="590" 
d="M538 203c0 -64.667 -23.667 -115.666 -71 -152.999s-109 -56 -185 -56c-106 0 -190 31.333 -252 94l72 71c45.333 -45.333 106 -68 182 -68c46.667 0 82.834 9.5 108.501 28.5s38.5 45.833 38.5 80.5c0 32 -9.33301 56.667 -28 74c-16 14.667 -42 24.667 -78 30l-84 12
c-58.667 8.66699 -103.667 27.667 -135 57c-34.667 32.667 -52 78 -52 136c0 62.667 21.333 113.167 64 151.5s100.667 57.5 174 57.5c89.333 0 163 -27 221 -81l-69 -68c-38.667 36.667 -90.334 55 -155.001 55c-40.667 0 -72.5 -10.333 -95.5 -31
s-34.5 -47.334 -34.5 -80.001c0 -28 9.16699 -50.167 27.5 -66.5s44.833 -27.166 79.5 -32.499l81 -12c58.667 -8.66699 103 -26.334 133 -53.001c38.667 -34 58 -82.667 58 -146z" />
    <glyph glyph-name="T" unicode="T" horiz-adv-x="560" 
d="M530 615h-196v-615h-108v615h-196v97h500v-97z" />
    <glyph glyph-name="U" unicode="U" horiz-adv-x="675" 
d="M593 240c0 -72.667 -24.335 -131.834 -73.002 -177.501s-109.667 -68.5 -183 -68.5s-134.166 22.833 -182.499 68.5s-72.5 104.834 -72.5 177.501v472h108v-467c0 -47.333 13.333 -84.833 40 -112.5s62.334 -41.5 107.001 -41.5s80.5 13.833 107.5 41.5
s40.5 65.167 40.5 112.5v467h108v-472z" />
    <glyph glyph-name="V" unicode="V" horiz-adv-x="564" 
d="M559 712l-236 -712h-84l-234 712h112l164 -518l164 518h114z" />
    <glyph glyph-name="W" unicode="W" horiz-adv-x="871" 
d="M860 712l-186 -712h-94l-145 499l-144 -499h-94l-186 712h114l124 -509l143 509h87l143 -509l124 509h114z" />
    <glyph glyph-name="X" unicode="X" horiz-adv-x="578" 
d="M568 0h-125l-155 273l-154 -273h-124l220 365l-206 347h124l140 -255l141 255h124l-206 -347z" />
    <glyph glyph-name="Y" unicode="Y" horiz-adv-x="544" 
d="M539 712l-213 -419v-293h-108v293l-213 419h118l149 -313l149 313h118z" />
    <glyph glyph-name="Z" unicode="Z" horiz-adv-x="552" 
d="M504 0h-456v93l329 522h-315v97h442v-88l-331 -527h331v-97z" />
    <glyph glyph-name="bracketleft" unicode="[" horiz-adv-x="347" 
d="M304 -74h-218v860h218v-91h-116v-678h116v-91z" />
    <glyph glyph-name="backslash" unicode="\" horiz-adv-x="380" 
d="M380 -74h-98l-282 852h98z" />
    <glyph glyph-name="bracketright" unicode="]" horiz-adv-x="347" 
d="M261 -74h-218v90h118v680h-118v90h218v-860z" />
    <glyph glyph-name="asciicircum" unicode="^" horiz-adv-x="571" 
d="M503 401h-106l-112 207l-112 -207h-106l172 318h93z" />
    <glyph glyph-name="underscore" unicode="_" horiz-adv-x="571" 
d="M571 -172h-571v70h571v-70z" />
    <glyph glyph-name="grave" unicode="`" 
d="M302 599h-77l-111 162h113z" />
    <glyph glyph-name="a" unicode="a" horiz-adv-x="530" 
d="M454 0l-100 0.00195312v46c-34.667 -34.667 -79.667 -52 -135 -52c-60.667 0 -106 15.333 -136 46c-26.667 27.333 -40 63.666 -40 108.999c0 44 15 79.333 45 106s73.333 40 130 40h134v36c0 63.333 -37 95 -111 95c-48.667 0 -85.667 -16.333 -111 -49l-67 63
c23.333 27.333 49.333 46.666 78 57.999c26 10 60.667 15 104 15c139.333 0 209 -58 209 -174v-339zM352 183.002v41h-119c-60.667 0 -91 -24.333 -91 -73c0 -48 31 -72 93 -72c43.333 0 75 9.66699 95 29c14.667 14 22 39 22 75z" />
    <glyph glyph-name="b" unicode="b" horiz-adv-x="553" 
d="M496 254c0 -105.333 -19 -177 -57 -215c-30 -30 -71.333 -45 -124 -45c-56 0 -100.667 20 -134 60v-54h-100v712h102v-256c32 38 76.333 57 133 57c52 0 93 -15 123 -45c38 -38 57 -109.333 57 -214zM394 254c0 53.333 -6 92.666 -18 117.999c-16 33.333 -45 50 -87 50
s-71 -16.667 -87 -50c-12.667 -25.333 -19 -64.666 -19 -117.999s6.33301 -92.666 19 -117.999c16 -34 45 -51 87 -51s71 17 87 51c12 25.333 18 64.666 18 117.999z" />
    <glyph glyph-name="c" unicode="c" horiz-adv-x="485" 
d="M448 66c-45.333 -48 -101.001 -72 -167.001 -72c-64 0 -116 19.667 -156 59c-46.667 45.333 -70 112.333 -70 201s23.333 155.667 70 201c40 38.667 92 58 156 58c66.667 0 122.334 -23.667 167.001 -71l-70 -68c-29.333 32 -61.666 48 -96.999 48
c-39.333 0 -70.666 -15 -93.999 -45c-20 -26 -30 -67 -30 -123c0 -56.667 10 -98 30 -124c23.333 -30 54.666 -45 93.999 -45c35.333 0 67.666 16 96.999 48z" />
    <glyph glyph-name="d" unicode="d" horiz-adv-x="553" 
d="M472 0h-100v54c-33.333 -40 -78 -60 -134 -60c-52.667 0 -94 15 -124 45c-38 38 -57 109.667 -57 215c0 104.667 19 176 57 214c30 30 71 45 123 45c56.667 0 101 -19 133 -57v256h102v-712zM370 254c0 53.333 -6 92.666 -18 117.999c-16 33.333 -45 50 -87 50
s-71 -16.667 -87 -50c-12.667 -25.333 -19 -64.666 -19 -117.999s6.33301 -92.666 19 -117.999c16 -34 45 -51 87 -51s71 17 87 51c12 25.333 18 64.666 18 117.999z" />
    <glyph glyph-name="e" unicode="e" horiz-adv-x="539" 
d="M485 224h-328.999c0 -44 11.167 -78.667 33.5 -104s54.166 -38 95.499 -38c47.333 0 88.333 17.333 123 52l65 -61c-27.333 -27.333 -54.333 -47 -81 -59c-30 -13.333 -66.333 -20 -109 -20c-152 0 -228 86.667 -228 260c0 81.333 19.333 144.833 58 190.5
s91 68.5 157 68.5c66.667 0 119.667 -22.667 159 -68c37.333 -44 56 -102.667 56 -176v-45zM384.001 295c-0.666992 26 -5.33301 49 -14 69c-18 42.667 -51.333 64 -100 64c-49.333 0 -83 -21.333 -101 -64c-8 -18 -12.333 -41 -13 -69h228z" />
    <glyph glyph-name="f" unicode="f" horiz-adv-x="328" 
d="M300 420h-101v-420h-102v420h-58v78h58v78c0 39.333 11.333 72 34 98c25.333 28.667 60.333 43 105 43h64v-87h-45c-37.333 0 -56 -19.667 -56 -59v-73h101v-78z" />
    <glyph glyph-name="g" unicode="g" horiz-adv-x="549" 
d="M468 3c0 -63.333 -19.499 -114.833 -58.499 -154.5s-91.833 -59.5 -158.5 -59.5c-71.333 0 -131 22.333 -179 67l65 65c32 -30 68.667 -45 110 -45c40.667 0 71.334 13 92.001 39c18 22.667 27 52.667 27 90v65c-32.667 -38.667 -76.334 -58 -131.001 -58
c-50.667 0 -91 15 -121 45c-38 38 -57 106.667 -57 206s19 168 57 206c29.333 29.333 70 44 122 44c55.333 0 99.666 -20 132.999 -60v54h99v-504zM366.001 263c0 49.333 -5.66699 86 -17 110c-16 32.667 -44.667 49 -86 49s-70 -16.333 -86 -49
c-12 -24 -18 -60.667 -18 -110s6 -85.666 18 -108.999c16 -33.333 44.667 -50 86 -50s70 16.667 86 50c11.333 23.333 17 59.666 17 108.999z" />
    <glyph glyph-name="h" unicode="h" horiz-adv-x="566" 
d="M490 0l-102 -0.000976562v311c0 36.667 -9.5 64.334 -28.5 83.001s-43.5 28 -73.5 28s-54.333 -9 -73 -27c-20 -20 -30 -48 -30 -84v-311h-102v712h102v-256c35.333 38 79 57 131 57c55.333 0 98.5 -17 129.5 -51s46.5 -79 46.5 -135v-327z" />
    <glyph glyph-name="i" unicode="i" horiz-adv-x="264" 
d="M198 672c0 -18 -6.5 -33.5 -19.5 -46.5s-28.5 -19.5 -46.5 -19.5s-33.5 6.5 -46.5 19.5s-19.5 28.5 -19.5 46.5s6.5 33.5 19.5 46.5s28.5 19.5 46.5 19.5s33.5 -6.5 46.5 -19.5s19.5 -28.5 19.5 -46.5zM183 0h-102v507h102v-507z" />
    <glyph glyph-name="j" unicode="j" horiz-adv-x="264" 
d="M198 672c0 -18 -6.5 -33.5 -19.5 -46.5s-28.5 -19.5 -46.5 -19.5s-33.5 6.5 -46.5 19.5s-19.5 28.5 -19.5 46.5s6.5 33.5 19.5 46.5s28.5 19.5 46.5 19.5s33.5 -6.5 46.5 -19.5s19.5 -28.5 19.5 -46.5zM183 -67c0 -40.667 -11 -73.333 -33 -98
c-24.667 -28 -60 -42 -106 -42h-63v87h45c36.667 0 55 19.667 55 59v568h102v-574z" />
    <glyph glyph-name="k" unicode="k" horiz-adv-x="548" 
d="M526 0h-126l-142 234l-75 -85v-149h-102v712h102v-439l197 234h124l-176 -199z" />
    <glyph glyph-name="l" unicode="l" horiz-adv-x="311" 
d="M280 0h-63c-45.333 0 -80.333 14 -105 42c-22.667 25.333 -34 58 -34 98v572h102v-566c0 -39.333 18.333 -59 55 -59h45v-87z" />
    <glyph glyph-name="m" unicode="m" horiz-adv-x="877" 
d="M801 0l-102 0.000976562v309c0 38 -10 66.667 -30 86c-17.333 18 -41.333 27 -72 27c-29.333 0 -53.666 -9 -72.999 -27c-21.333 -19.333 -32 -46.333 -32 -81v-314h-102v309c0 38 -10 66.667 -30 86c-17.333 18 -41.333 27 -72 27s-55.334 -9 -74.001 -27
c-20.667 -20 -31 -48.667 -31 -86v-309h-102v507h100v-51c34.667 38 79.667 57 135 57c64 0 112 -24.667 144 -74c40.667 49.333 93.667 74 159 74c54 0 96.667 -15.333 128 -46c36 -34.667 54 -82.334 54 -143.001v-324z" />
    <glyph glyph-name="n" unicode="n" horiz-adv-x="568" 
d="M492 0h-101.999v309c0 38 -10 66.667 -30 86c-17.333 18 -41.333 27 -72 27s-55.334 -9 -74.001 -27c-20.667 -20 -31 -48.667 -31 -86v-309h-102v507h100v-51c35.333 38 80.333 57 135 57c52 0 93.667 -15.333 125 -46c34 -33.333 51 -81 51 -143v-324z" />
    <glyph glyph-name="o" unicode="o" horiz-adv-x="537" 
d="M480 254c0 -92 -19.667 -158.333 -59 -199s-90.333 -61 -153 -61c-62 0 -112.667 20.333 -152 61s-59 107 -59 199c0 91.333 19.667 157.333 59 198s90 61 152 61c62.667 0 113.667 -20.333 153 -61s59 -106.667 59 -198zM378 254c0 69.333 -11.667 115.666 -35 138.999
c-19.333 19.333 -44.333 29 -75 29c-30 0 -54.667 -9.66699 -74 -29c-23.333 -23.333 -35 -69.666 -35 -138.999s11.667 -115.666 35 -138.999c20 -20 44.667 -30 74 -30c30 0 55 10 75 30c23.333 23.333 35 69.666 35 138.999z" />
    <glyph glyph-name="p" unicode="p" horiz-adv-x="553" 
d="M496 254c0 -105.333 -19 -177 -57 -215c-30 -30 -71 -45 -123 -45c-56 0 -100.333 19.333 -133 58v-257h-102v712h100v-54c33.333 40 78 60 134 60c52.667 0 94 -15 124 -45c38 -38 57 -109.333 57 -214zM394 254c0 53.333 -6 92.666 -18 117.999
c-16 33.333 -45 50 -87 50s-71 -16.667 -87 -50c-12.667 -25.333 -19 -64.666 -19 -117.999s6.33301 -92.666 19 -117.999c16 -34 45 -51 87 -51s71 17 87 51c12 25.333 18 64.666 18 117.999z" />
    <glyph glyph-name="q" unicode="q" horiz-adv-x="553" 
d="M472 -205h-102v257c-32.667 -38.667 -77 -58 -133 -58c-52 0 -93 15 -123 45c-38 38 -57 109.667 -57 215c0 104.667 19 176 57 214c30 30 71.333 45 124 45c56 0 100.667 -20 134 -60v54h100v-712zM370 254c0 53.333 -6 92.666 -18 117.999c-16 33.333 -45 50 -87 50
s-71 -16.667 -87 -50c-12.667 -25.333 -19 -64.666 -19 -117.999s6.33301 -92.666 19 -117.999c16 -34 45 -51 87 -51s71 17 87 51c12 25.333 18 64.666 18 117.999z" />
    <glyph glyph-name="r" unicode="r" horiz-adv-x="439" 
d="M437 465l-77 -77c-22.667 22.667 -48 34 -76 34c-28.667 0 -52.667 -10.5 -72 -31.5s-29 -48.5 -29 -82.5v-308h-102v507h100v-55c29.333 40.667 74.333 61 135 61c48.667 0 89 -16 121 -48z" />
    <glyph glyph-name="s" unicode="s" horiz-adv-x="499" 
d="M456 155c0 -51.333 -19.501 -91 -58.501 -119s-89.833 -42 -152.5 -42c-92.667 0 -163.667 24.333 -213 73l67 67c34.667 -35.333 83.334 -53 146.001 -53c74 0 111 23.333 111 70c0 36 -22.667 56 -68 60l-81 7c-100 8.66699 -150 55.334 -150 140.001
c0 48 18.667 86.333 56 115c35.333 26.667 80.333 40 135 40c82 0 144.667 -19 188 -57l-64 -65c-29.333 24.667 -71 37 -125 37c-61.333 0 -92 -21.667 -92 -65c0 -34.667 23.333 -54 70 -58l80 -7c100.667 -8.66699 151 -56.334 151 -143.001z" />
    <glyph glyph-name="t" unicode="t" horiz-adv-x="342" 
d="M293 0h-61c-44.667 -0 -79.667 14.333 -105 43c-22.667 26 -34 58.667 -34 98v279h-58v78h58v154h102v-154h98v-78h-98v-274c0 -39.333 18.667 -59 56 -59h42v-87z" />
    <glyph glyph-name="u" unicode="u" horiz-adv-x="568" 
d="M487 0h-100.001v51c-34.667 -38 -79.667 -57 -135 -57c-52 0 -93.667 15.333 -125 46c-34 33.333 -51 81 -51 143v324h102v-309c0 -37.333 10 -66 30 -86c18 -18 42 -27 72 -27c30.667 0 55.834 9.5 75.501 28.5s29.5 47.167 29.5 84.5v309h102v-507z" />
    <glyph glyph-name="v" unicode="v" horiz-adv-x="471" 
d="M463 507l-186 -507h-83l-186 507h108l120 -357l119 357h108z" />
    <glyph glyph-name="w" unicode="w" horiz-adv-x="743" 
d="M735 507l-158 -507h-87l-119 354l-118 -354h-88l-157 507h108l98 -357l118 357h79l117 -357l98 357h109z" />
    <glyph glyph-name="x" unicode="x" horiz-adv-x="503" 
d="M481 0h-123l-106 173l-107 -173h-123l174 259l-167 248h123l100 -165l99 165h123l-166 -248z" />
    <glyph glyph-name="y" unicode="y" horiz-adv-x="468" 
d="M464 507l-223.999 -608.001c-10 -27.333 -22.333 -48.333 -37 -63c-24.667 -24.667 -59.334 -37 -104.001 -37h-41v92h26c21.333 0 37 3.83301 47 11.5s18.667 21.834 26 42.501l28 79l-177 483h108l121 -357l118 357h109z" />
    <glyph glyph-name="z" unicode="z" horiz-adv-x="469" 
d="M421 0h-378v81l252 335h-238v91h364v-81l-254 -335h254v-91z" />
    <glyph glyph-name="braceleft" unicode="{" horiz-adv-x="407" 
d="M362 -74l-71.001 -0.00195312c-48.667 0 -84.667 11.667 -108 35s-35 58 -35 104v167c0 28 -6.16699 48.167 -18.5 60.5s-28.166 18.5 -47.499 18.5h-37v90h37c19.333 0 35.166 6.16699 47.499 18.5s18.5 32.5 18.5 60.5v167c0 46 11.667 80.667 35 104s59.333 35 108 35
h71v-91h-39c-30 0 -49.667 -5 -59 -15s-14 -31 -14 -63v-161c0 -47.333 -22 -80.666 -66 -99.999c44 -19.333 66 -52.666 66 -99.999v-161c0 -36 6.66699 -58.667 20 -68c8.66699 -6.66699 26.334 -10 53.001 -10h39v-91z" />
    <glyph glyph-name="bar" unicode="|" horiz-adv-x="338" 
d="M220 -74h-102v860h102v-860z" />
    <glyph glyph-name="braceright" unicode="}" horiz-adv-x="407" 
d="M362 311l-35.999 0.00195312c-20 0 -36.167 -6.16699 -48.5 -18.5s-18.5 -32.5 -18.5 -60.5v-167c0 -46 -11.667 -80.667 -35 -104s-59.333 -35 -108 -35h-71v91h39c30 0 49.667 5 59 15s14 31 14 63v161c0 47.333 22.333 80.666 67 99.999
c-44.667 19.333 -67 52.666 -67 99.999v161c0 36 -6.66699 58.667 -20 68c-8.66699 6.66699 -26.334 10 -53.001 10h-39v91h71c48.667 0 84.667 -11.667 108 -35s35 -58 35 -104v-167c0 -28 6.16699 -48.167 18.5 -60.5s28.5 -18.5 48.5 -18.5h36v-90z" />
    <glyph glyph-name="asciitilde" unicode="~" horiz-adv-x="574" 
d="M531 280c-29.333 -29.333 -54.668 -49.666 -76.001 -60.999s-45.333 -17 -72 -17c-30 0 -67.333 11 -112 33c-32.667 16 -59 24 -79 24c-27.333 0 -55.666 -14.667 -84.999 -44l-64 64c29.333 29.333 54.5 49.666 75.5 60.999s44.833 17 71.5 17
c29.333 0 66.333 -11 111 -33c32.667 -16 59.334 -24 80.001 -24c27.333 0 55.666 14.667 84.999 44z" />
    <glyph glyph-name="nonbreakingspace" unicode="&#xa0;" horiz-adv-x="240" 
 />
    <glyph glyph-name="exclamdown" unicode="&#xa1;" horiz-adv-x="332" 
d="M232 445c0 -18 -6.33301 -33.167 -19 -45.5s-28 -18.5 -46 -18.5s-33.333 6.16699 -46 18.5s-19 27.5 -19 45.5s6.33301 33.333 19 46s28 19 46 19s33.333 -6.33301 46 -19s19 -28 19 -46zM229 -205h-124l23 500h77z" />
    <glyph glyph-name="cent" unicode="&#xa2;" horiz-adv-x="498" 
d="M459 184c-40 -42.667 -87 -67.332 -141 -73.999v-110h-80v111c-55.333 9.33301 -99.333 35.333 -132 78c-34 45.333 -51 104.333 -51 177s17 131.667 51 177c32.667 42.667 76.667 68.667 132 78v91h80v-90c54 -6.66699 101 -31.334 141 -74.001l-68 -66
c-24.667 27.333 -52 43.333 -82 48v-328c30 4.66699 57.333 20.667 82 48zM247 204.002l-0.000976562 324c-23.333 -4.66699 -42.666 -17.667 -57.999 -39c-21.333 -29.333 -32 -70.333 -32 -123c0 -54 10.333 -95 31 -123c15.333 -21.333 35 -34.333 59 -39z" />
    <glyph glyph-name="sterling" unicode="&#xa3;" horiz-adv-x="564" 
d="M516 0h-410.998v313h-62v78h62v96c0 71.333 23.333 128.333 70 171c44 40 100 60 168 60c69.333 0 127 -23 173 -69l-72 -71c-28.667 28.667 -62.334 43 -101.001 43c-40.667 0 -72.334 -12.167 -95.001 -36.5s-34 -59.5 -34 -105.5v-88h129v-78h-129v-216h302v-97z" />
    <glyph glyph-name="currency" unicode="&#xa4;" horiz-adv-x="665" 
d="M597 81l-67 -67l-74 74c-36.667 -25.333 -78 -38 -124 -38s-87.333 12.667 -124 38l-73 -74l-67 67l73 74c-25.333 36.667 -38 78 -38 124s12.667 87.333 38 124l-73 73l67 67l73 -73c36 24.667 77.333 37 124 37s88 -12.333 124 -37l74 73l67 -67l-74 -73
c25.333 -36.667 38 -78 38 -124s-12.667 -87.333 -38 -124zM468 279c0 37.333 -13.333 69.166 -40 95.499s-58.667 39.5 -96 39.5s-69.333 -13.167 -96 -39.5s-40 -58.166 -40 -95.499s13.333 -69.333 40 -96s58.667 -40 96 -40s69.333 13.333 96 40s40 58.667 40 96z" />
    <glyph glyph-name="yen" unicode="&#xa5;" horiz-adv-x="544" 
d="M538 712l-146 -290h87v-78h-127l-26 -51v-52h153v-78h-153v-163h-108v163h-153v78h153v52l-26 51h-127v78h87l-147 290h118l150 -314l148 314h117z" />
    <glyph glyph-name="brokenbar" unicode="&#xa6;" horiz-adv-x="344" 
d="M220 436h-102v350h102v-350zM220 -74h-102v350h102v-350z" />
    <glyph glyph-name="section" unicode="&#xa7;" horiz-adv-x="543" 
d="M472 264c0 -36 -10.665 -69 -31.998 -99c-17.333 -24.667 -39 -43.667 -65 -57c58.667 -26 88 -73 88 -141c0 -54.667 -19.333 -98.667 -58 -132c-35.333 -30.667 -79.666 -46 -132.999 -46s-97.333 13.667 -132 41c-39.333 30.667 -60 73.667 -62 129h100
c4 -52.667 35.333 -79 94 -79c28.667 0 51 7.5 67 22.5s24 35.5 24 61.5c0 43.333 -26 72.666 -78 87.999l-70 21c-94 28 -141 90 -141 186c0 36 10.333 69 31 99c18 24.667 40 43.667 66 57c-56 27.333 -84 72 -84 134c0 48 16.667 88.167 50 120.5
s78.666 48.5 135.999 48.5s102.666 -15.167 135.999 -45.5s50.666 -70.166 51.999 -119.499h-98c-4 50.667 -34 76 -90 76c-58.667 0 -88 -25.667 -88 -77c0 -39.333 25 -66.333 75 -81l70 -21c94.667 -28.667 142 -90.667 142 -186zM372.002 261
c0 35.333 -9.83105 62.166 -29.498 80.499s-42.834 27.5 -69.501 27.5c-30 0 -54 -9.66699 -72 -29s-27 -45.666 -27 -78.999c0 -32.667 9 -58.667 27 -78s42 -29 72 -29c29.333 0 53.166 9.83301 71.499 29.5s27.5 45.5 27.5 77.5z" />
    <glyph glyph-name="dieresis" unicode="&#xa8;" 
d="M416 657c0 -15.333 -5.5 -28.666 -16.5 -39.999s-24.167 -17 -39.5 -17s-28.666 5.66699 -39.999 17s-17 24.666 -17 39.999s5.66699 28.5 17 39.5s24.666 16.5 39.999 16.5s28.5 -5.5 39.5 -16.5s16.5 -24.167 16.5 -39.5zM197 657
c0 -15.333 -5.66699 -28.666 -17 -39.999s-24.666 -17 -39.999 -17s-28.5 5.66699 -39.5 17s-16.5 24.666 -16.5 39.999s5.5 28.5 16.5 39.5s24.167 16.5 39.5 16.5s28.666 -5.5 39.999 -16.5s17 -24.167 17 -39.5z" />
    <glyph glyph-name="copyright" unicode="&#xa9;" horiz-adv-x="862" 
d="M793 356c0 -100 -35.333 -185.333 -106 -256s-156 -106 -256 -106s-185.333 35.333 -256 106s-106 156 -106 256s35.333 185.333 106 256s156 106 256 106s185.333 -35.333 256 -106s106 -156 106 -256zM720 356c0 82.667 -28 152.334 -84 209.001s-124.333 85 -205 85
s-149 -28.333 -205 -85s-84 -126.334 -84 -209.001s28 -152.334 84 -209.001s124.333 -85 205 -85s149 28.333 205 85s84 126.334 84 209.001zM568 208c-38.667 -34.667 -82.333 -52 -131 -52c-54 0 -97.333 18.167 -130 54.5s-49 84.833 -49 145.5s16.333 109.167 49 145.5
s76 54.5 130 54.5c47.333 0 91 -17.333 131 -52l-46 -47c-26.667 23.333 -55 35 -85 35c-72 0 -108 -45.333 -108 -136s36 -136 108 -136c30 0 58.333 11.667 85 35z" />
    <glyph glyph-name="ordfeminine" unicode="&#xaa;" horiz-adv-x="452" 
d="M379 307l-81.001 0.000976562v36c-26.667 -26.667 -62 -40 -106 -40c-48 0 -84 12 -108 36c-21.333 21.333 -32 50.333 -32 87c0 35.333 12 63.666 36 84.999s58.333 32 103 32h105v28c0 49.333 -29 74 -87 74c-37.333 0 -66.333 -13 -87 -39l-55 52
c32.667 38.667 81.334 58 146.001 58c110.667 0 166 -46.333 166 -139v-270zM295.999 453.001v32h-93c-46.667 0 -70 -19 -70 -57c0 -36.667 23.667 -55 71 -55c34.667 0 59.667 7.33301 75 22c11.333 10.667 17 30 17 58z" />
    <glyph glyph-name="guillemotleft" unicode="&#xab;" horiz-adv-x="592" 
d="M520 42l-230 230l230 229v-123l-108 -106l108 -107v-123zM267 42l-230 230l230 229v-123l-107 -106l107 -107v-123z" />
    <glyph glyph-name="logicalnot" unicode="&#xac;" horiz-adv-x="533" 
d="M484 98h-95v141h-341v95h436v-236z" />
    <glyph glyph-name="minus" unicode="&#xad;" horiz-adv-x="533" 
d="M482 230h-431v95h431v-95z" />
    <glyph glyph-name="minus" unicode="&#x2212;" horiz-adv-x="533" 
d="M482 230h-431v95h431v-95z" />
    <glyph glyph-name="registered" unicode="&#xae;" horiz-adv-x="862" 
d="M793 356c0 -100 -35.333 -185.333 -106 -256s-156 -106 -256 -106s-185.333 35.333 -256 106s-106 156 -106 256s35.333 185.333 106 256s156 106 256 106s185.333 -35.333 256 -106s106 -156 106 -256zM720 356c0 82.667 -28 152.5 -84 209.5s-124.333 85.5 -205 85.5
c-81.333 0 -150 -28.5 -206 -85.5s-84 -126.833 -84 -209.5s28 -152.5 84 -209.5s124.667 -85.5 206 -85.5c80.667 0 149 28.5 205 85.5s84 126.833 84 209.5zM588 161l-81.001 -0.000976562l-80 155h-50v-155h-72v391h147c36.667 0 66.834 -11.667 90.501 -35
s35.5 -51.666 35.5 -84.999c0 -52.667 -25.667 -88 -77 -106zM506.999 431.999c0 16.667 -6 30.667 -18 42s-27.333 17 -46 17h-66v-118h66c18.667 0 34 5.66699 46 17s18 25.333 18 42z" />
    <glyph glyph-name="macron" unicode="&#xaf;" 
d="M405 622h-310v73h310v-73z" />
    <glyph glyph-name="macron" unicode="&#x2c9;" 
d="M405 622h-310v73h310v-73z" />
    <glyph glyph-name="degree" unicode="&#xb0;" horiz-adv-x="471" 
d="M410 549c0 -48 -17.167 -89 -51.5 -123s-75.5 -51 -123.5 -51s-89 17 -123 51s-51 75 -51 123s17 89.167 51 123.5s75 51.5 123 51.5s89.167 -17.167 123.5 -51.5s51.5 -75.5 51.5 -123.5zM326 549c0 26 -8.83301 48 -26.5 66s-39.167 27 -64.5 27
s-46.666 -9 -63.999 -27s-26 -40 -26 -66s8.66699 -47.833 26 -65.5s38.666 -26.5 63.999 -26.5s46.833 8.83301 64.5 26.5s26.5 39.5 26.5 65.5z" />
    <glyph glyph-name="plusminus" unicode="&#xb1;" horiz-adv-x="533" 
d="M482 316h-168v-169h-95v169h-168v95h168v168h95v-168h168v-95zM482 0h-431v95h431v-95z" />
    <glyph glyph-name="twosuperior" unicode="&#xb2;" horiz-adv-x="350" 
d="M305 285h-260v69l161 186c14.667 16.667 22 34 22 52c0 36.667 -17.667 55 -53 55s-53 -18.333 -53 -55h-77c0 38 12.167 68.167 36.5 90.5s55.5 33.5 93.5 33.5s69.167 -11.167 93.5 -33.5s36.5 -52.5 36.5 -90.5c0 -30 -15.333 -62.667 -46 -98l-121 -140h167v-69z" />
    <glyph glyph-name="threesuperior" unicode="&#xb3;" horiz-adv-x="362" 
d="M317 408c0 -40.667 -12.834 -72.168 -38.501 -94.501s-57.834 -33.5 -96.501 -33.5c-38 0 -69.333 10 -94 30c-28 22 -42.333 54 -43 96h77c0.666992 -38 20.667 -57 60 -57c38.667 0 58 20.333 58 61c0 40 -20.333 60 -61 60h-11v66h11c37.333 0 56 18.333 56 55
c0 37.333 -18 56 -54 56c-34 0 -52 -17.333 -54 -52h-76c0.666992 37.333 13.334 66.833 38.001 88.5s55.334 32.5 92.001 32.5c38 0 69.167 -11.333 93.5 -34s36.5 -52 36.5 -88c0 -42 -16.667 -71.667 -50 -89c37.333 -19.333 56 -51.666 56 -96.999z" />
    <glyph glyph-name="acute" unicode="&#xb4;" 
d="M386 761l-111 -162h-77l75 162h113z" />
    <glyph glyph-name="mu" unicode="&#xb5;" horiz-adv-x="569" 
d="M487 0h-99.999v51c-34.667 -38 -79.334 -57 -134.001 -57c-30 0 -55 8.33301 -75 25v-224h-102v712h102v-309c0 -37.333 10 -66 30 -86c18 -18 42.333 -27 73 -27s55 9 73 27c20.667 20 31 48.667 31 86v309h102v-507z" />
    <glyph glyph-name="mu" unicode="&#x3bc;" horiz-adv-x="569" 
d="M487 0h-99.999v51c-34.667 -38 -79.334 -57 -134.001 -57c-30 0 -55 8.33301 -75 25v-224h-102v712h102v-309c0 -37.333 10 -66 30 -86c18 -18 42.333 -27 73 -27s55 9 73 27c20.667 20 31 48.667 31 86v309h102v-507z" />
    <glyph glyph-name="paragraph" unicode="&#xb6;" horiz-adv-x="637" 
d="M544 -205h-102v820h-108v-820h-102v522c-54 0 -99.833 19.333 -137.5 58s-56.5 84.667 -56.5 138c0 60 20.5 108.167 61.5 144.5s95.5 54.5 163.5 54.5h281v-917z" />
    <glyph glyph-name="periodcentered" unicode="&#xb7;" horiz-adv-x="284" 
d="M215 276c0 -20 -7.16699 -37.167 -21.5 -51.5s-31.5 -21.5 -51.5 -21.5s-37.167 7.16699 -51.5 21.5s-21.5 31.5 -21.5 51.5s7.16699 37 21.5 51s31.5 21 51.5 21s37.167 -7 51.5 -21s21.5 -31 21.5 -51z" />
    <glyph glyph-name="periodcentered" unicode="&#x2219;" horiz-adv-x="284" 
d="M215 276c0 -20 -7.16699 -37.167 -21.5 -51.5s-31.5 -21.5 -51.5 -21.5s-37.167 7.16699 -51.5 21.5s-21.5 31.5 -21.5 51.5s7.16699 37 21.5 51s31.5 21 51.5 21s37.167 -7 51.5 -21s21.5 -31 21.5 -51z" />
    <glyph glyph-name="cedilla" unicode="&#xb8;" 
d="M319 -64l-51 -147h-101l70 147h82z" />
    <glyph glyph-name="onesuperior" unicode="&#xb9;" horiz-adv-x="277" 
d="M204 285h-77v341l-87 -76v87l87 75h77v-427z" />
    <glyph glyph-name="ordmasculine" unicode="&#xba;" horiz-adv-x="458" 
d="M398 510c0 -73.333 -15.833 -126.166 -47.5 -158.499s-72.167 -48.5 -121.5 -48.5c-48.667 0 -88.834 16.167 -120.501 48.5s-47.5 85.166 -47.5 158.499c0 72.667 15.833 125.167 47.5 157.5s71.834 48.5 120.501 48.5c49.333 0 89.833 -16.167 121.5 -48.5
s47.5 -84.833 47.5 -157.5zM314 510c0 55.333 -8.66699 91.667 -26 109c-15.333 15.333 -35 23 -59 23c-23.333 0 -42.666 -7.66699 -57.999 -23c-18 -18 -27 -54.333 -27 -109c0 -55.333 9 -92 27 -110c15.333 -15.333 34.666 -23 57.999 -23
c24 0 44.167 8.16699 60.5 24.5s24.5 52.5 24.5 108.5z" />
    <glyph glyph-name="guillemotright" unicode="&#xbb;" horiz-adv-x="592" 
d="M556 272l-231 -230v123l107 107l-107 106v123zM303 272l-231 -230v123l108 107l-108 106v123z" />
    <glyph glyph-name="onequarter" unicode="&#xbc;" horiz-adv-x="808" 
d="M768 61h-40v-61h-74v61h-174v71l147 295h83l-147 -295h91v83h74v-83h40v-71zM596 712l-335 -712h-81l335 712h81zM204 285h-77v341l-87 -76v87l87 75h77v-427z" />
    <glyph glyph-name="onehalf" unicode="&#xbd;" horiz-adv-x="827" 
d="M782 0l-259 0.000976562v69l160 186c14.667 17.333 22 34.666 22 51.999c0 36.667 -17.667 55 -53 55s-53 -18.333 -53 -55h-76c0 38 12 68.167 36 90.5s55 33.5 93 33.5s69.167 -11.167 93.5 -33.5s36.5 -52.5 36.5 -90.5c0 -30 -15.333 -62.667 -46 -98l-121 -140h167
v-69zM588 712.001l-335 -712h-81l335 712h81zM204 285.001h-77v341l-87 -76v87l87 75h77v-427z" />
    <glyph glyph-name="threequarters" unicode="&#xbe;" horiz-adv-x="844" 
d="M804 61h-40v-61h-73v61h-174v71l146 295h84l-147 -295h91v83h73v-83h40v-71zM638 712l-335 -712h-81l335 712h81zM317 408c0 -40.667 -12.834 -72.168 -38.501 -94.501s-57.834 -33.5 -96.501 -33.5c-38 0 -69.333 10 -94 30c-28 22 -42.333 54 -43 96h77
c0.666992 -38 20.667 -57 60 -57c38.667 0 58 20.333 58 61c0 40 -20.333 60 -61 60h-11v66h11c37.333 0 56 18.333 56 55c0 37.333 -18 56 -54 56c-34 0 -52 -17.333 -54 -52h-76c0.666992 37.333 13.334 66.833 38.001 88.5s55.334 32.5 92.001 32.5
c38 0 69.167 -11.333 93.5 -34s36.5 -52 36.5 -88c0 -42 -16.667 -71.667 -50 -89c37.333 -19.333 56 -51.666 56 -96.999z" />
    <glyph glyph-name="questiondown" unicode="&#xbf;" horiz-adv-x="511" 
d="M314 445c0 -18 -6.33301 -33.167 -19 -45.5s-28 -18.5 -46 -18.5s-33.333 6.16699 -46 18.5s-19 27.5 -19 45.5s6.33301 33.333 19 46s28 19 46 19s33.333 -6.33301 46 -19s19 -28 19 -46zM453 -19c0 -56 -19 -101.999 -57 -137.999s-85.333 -54 -142 -54
c-56 0 -102.667 17.333 -140 52c-39.333 36 -59 82.667 -59 140c0 38 15.667 79 47 123l77 108c12 16.667 18 34.667 18 54v30h102v-36c0 -35.333 -11.333 -68.333 -34 -99l-78 -105c-20 -26.667 -30 -52 -30 -76c0 -28.667 9 -52.334 27 -71.001s41.333 -28 70 -28
c30 0 53.667 9.66699 71 29s26 43 26 71h102z" />
    <glyph glyph-name="Agrave" unicode="&#xc0;" horiz-adv-x="625" 
d="M617 0h-115l-49 143h-281l-49 -143h-115l261 712h87zM423 235l-108 316l-111 -316h219zM361 781h-77l-111 162h113z" />
    <glyph glyph-name="Aacute" unicode="&#xc1;" horiz-adv-x="625" 
d="M617 0h-115l-49 143h-281l-49 -143h-115l261 712h87zM423 235l-108 316l-111 -316h219zM445 943l-111 -162h-77l75 162h113z" />
    <glyph glyph-name="Acircumflex" unicode="&#xc2;" horiz-adv-x="625" 
d="M617 0h-115l-49 143h-281l-49 -143h-115l261 712h87zM423 235l-108 316l-111 -316h219zM481 781h-85l-87 97l-87 -97h-85l129 161h86z" />
    <glyph glyph-name="Atilde" unicode="&#xc3;" horiz-adv-x="625" 
d="M617 0h-115l-49 143h-281l-49 -143h-115l261 712h87zM423 235l-108 316l-111 -316h219zM478 849c-36.667 -36.667 -71.334 -55 -104.001 -55c-23.333 0 -48.333 7.66699 -75 23c-22 12.667 -40.667 19 -56 19c-18.667 0 -38 -10 -58 -30l-48 47
c36.667 36.667 71.334 55 104.001 55c23.333 0 48.333 -8 75 -24c21.333 -12.667 39.666 -19 54.999 -19c18.667 0 38.334 10.333 59.001 31z" />
    <glyph glyph-name="Adieresis" unicode="&#xc4;" horiz-adv-x="625" 
d="M617 0h-115l-49 143h-281l-49 -143h-115l261 712h87zM423 235l-108 316l-111 -316h219zM475 839c0 -15.333 -5.5 -28.666 -16.5 -39.999s-24.167 -17 -39.5 -17s-28.666 5.66699 -39.999 17s-17 24.666 -17 39.999s5.66699 28.5 17 39.5s24.666 16.5 39.999 16.5
s28.5 -5.5 39.5 -16.5s16.5 -24.167 16.5 -39.5zM256 839c0 -15.333 -5.66699 -28.666 -17 -39.999s-24.666 -17 -39.999 -17s-28.5 5.66699 -39.5 17s-16.5 24.666 -16.5 39.999s5.5 28.5 16.5 39.5s24.167 16.5 39.5 16.5s28.666 -5.5 39.999 -16.5s17 -24.167 17 -39.5z
" />
    <glyph glyph-name="Aring" unicode="&#xc5;" horiz-adv-x="625" 
d="M617 0h-115l-49 143h-281l-49 -143h-115l261 712h87zM423 235l-108 316l-111 -316h219zM434 875c0 -34.667 -12.167 -64.167 -36.5 -88.5s-53.833 -36.5 -88.5 -36.5s-64.167 12.167 -88.5 36.5s-36.5 53.833 -36.5 88.5s12.167 64.167 36.5 88.5s53.833 36.5 88.5 36.5
s64.167 -12.167 88.5 -36.5s36.5 -53.833 36.5 -88.5zM373 875c0 17.333 -6.33301 32.166 -19 44.499s-27.667 18.5 -45 18.5s-32.333 -6.16699 -45 -18.5s-19 -27.166 -19 -44.499s6.33301 -32.166 19 -44.499s27.667 -18.5 45 -18.5s32.333 6.16699 45 18.5
s19 27.166 19 44.499z" />
    <glyph glyph-name="AE" unicode="&#xc6;" horiz-adv-x="952" 
d="M897 0h-455v162h-235l-84 -162h-118l374 712h518v-97h-347v-209h296v-97h-296v-212h347v-97zM442 254v361l-188 -361h188z" />
    <glyph glyph-name="Ccedilla" unicode="&#xc7;" horiz-adv-x="600" 
d="M522 78c-57.333 -56 -123.666 -84 -198.999 -84c-74 0 -136.333 25.333 -187 76c-32 32 -52.333 71.333 -61 118c-5.33301 29.333 -8 85.333 -8 168s2.66699 138.667 8 168c8.66699 46.667 29 86 61 118c50.667 50.667 113 76 187 76c75.333 0 141.666 -28 198.999 -84
l-72 -73c-40 40 -82.333 60 -127 60c-43.333 0 -78.333 -14.333 -105 -43c-21.333 -22.667 -34.333 -57.667 -39 -105c-2 -16.667 -3 -55.667 -3 -117s1 -100.333 3 -117c4.66699 -47.333 17.667 -82.333 39 -105c26.667 -28.667 61.667 -43 105 -43c44.667 0 87 20 127 60z
M374 -64l-51 -147h-101l70 147h82z" />
    <glyph glyph-name="Egrave" unicode="&#xc8;" horiz-adv-x="603" 
d="M548 0h-455v712h455v-97h-347v-208h296v-96h-296v-214h347v-97zM363 781h-77l-111 162h113z" />
    <glyph glyph-name="Eacute" unicode="&#xc9;" horiz-adv-x="603" 
d="M548 0h-455v712h455v-97h-347v-208h296v-96h-296v-214h347v-97zM447 943l-111 -162h-77l75 162h113z" />
    <glyph glyph-name="Ecircumflex" unicode="&#xca;" horiz-adv-x="603" 
d="M548 0h-455v712h455v-97h-347v-208h296v-96h-296v-214h347v-97zM483 781h-85l-87 97l-87 -97h-85l129 161h86z" />
    <glyph glyph-name="Edieresis" unicode="&#xcb;" horiz-adv-x="603" 
d="M548 0h-455v712h455v-97h-347v-208h296v-96h-296v-214h347v-97zM477 839c0 -15.333 -5.5 -28.666 -16.5 -39.999s-24.167 -17 -39.5 -17s-28.666 5.66699 -39.999 17s-17 24.666 -17 39.999s5.66699 28.5 17 39.5s24.666 16.5 39.999 16.5s28.5 -5.5 39.5 -16.5
s16.5 -24.167 16.5 -39.5zM258 839c0 -15.333 -5.66699 -28.666 -17 -39.999s-24.666 -17 -39.999 -17s-28.5 5.66699 -39.5 17s-16.5 24.666 -16.5 39.999s5.5 28.5 16.5 39.5s24.167 16.5 39.5 16.5s28.666 -5.5 39.999 -16.5s17 -24.167 17 -39.5z" />
    <glyph glyph-name="Igrave" unicode="&#xcc;" horiz-adv-x="294" 
d="M201 0h-108v712h108v-712zM215 781h-77l-111 162h113z" />
    <glyph glyph-name="Iacute" unicode="&#xcd;" horiz-adv-x="294" 
d="M201 0h-108v712h108v-712zM268 943l-111 -162h-77l75 162h113z" />
    <glyph glyph-name="Icircumflex" unicode="&#xce;" horiz-adv-x="294" 
d="M201 0h-108v712h108v-712zM314 781h-85l-87 97l-87 -97h-85l129 161h86z" />
    <glyph glyph-name="Idieresis" unicode="&#xcf;" horiz-adv-x="294" 
d="M201 0h-108v712h108v-712zM311 839c0 -15.333 -5.5 -28.666 -16.5 -39.999s-24.167 -17 -39.5 -17s-28.666 5.66699 -39.999 17s-17 24.666 -17 39.999s5.66699 28.5 17 39.5s24.666 16.5 39.999 16.5s28.5 -5.5 39.5 -16.5s16.5 -24.167 16.5 -39.5zM92 839
c0 -15.333 -5.66699 -28.666 -17 -39.999s-24.666 -17 -39.999 -17s-28.5 5.66699 -39.5 17s-16.5 24.666 -16.5 39.999s5.5 28.5 16.5 39.5s24.167 16.5 39.5 16.5s28.666 -5.5 39.999 -16.5s17 -24.167 17 -39.5z" />
    <glyph glyph-name="Eth" unicode="&#xd0;" horiz-adv-x="684" 
d="M617 356c0 -79.333 -2.66699 -133.332 -8 -161.999c-6 -36.667 -21.333 -70 -46 -100c-50.667 -62.667 -118.667 -94 -204 -94h-247v318h-74v83h74v311h250c85.333 0 152.333 -31.667 201 -95c25.333 -32.667 41 -67.334 47 -104.001c4.66699 -26 7 -78.333 7 -157z
M509 353.001c0 66.667 -1.83301 112.167 -5.5 136.5s-12.167 45.833 -25.5 64.5c-30 41.333 -73 62 -129 62h-129v-215h138v-83h-138v-222h129c60 0 104.333 21 133 63c12 18 19.5 38 22.5 60s4.5 66.667 4.5 134z" />
    <glyph glyph-name="Ntilde" unicode="&#xd1;" horiz-adv-x="721" 
d="M629 0h-99l-329 501v-501h-108v712h99l329 -500v500h108v-712zM530 849c-36.667 -36.667 -71.334 -55 -104.001 -55c-23.333 0 -48.333 7.66699 -75 23c-22 12.667 -40.667 19 -56 19c-18.667 0 -38 -10 -58 -30l-48 47c36.667 36.667 71.334 55 104.001 55
c23.333 0 48.333 -8 75 -24c21.333 -12.667 39.666 -19 54.999 -19c18.667 0 38.334 10.333 59.001 31z" />
    <glyph glyph-name="Ograve" unicode="&#xd2;" horiz-adv-x="646" 
d="M579 356c0 -83.333 -2.66699 -139.333 -8 -168c-8 -46.667 -28 -86 -60 -118c-50.667 -50.667 -113.334 -76 -188.001 -76c-74 0 -136.333 25.333 -187 76c-32 32 -52.333 71.333 -61 118c-5.33301 29.333 -8 85.333 -8 168s2.66699 138.667 8 168
c8.66699 46.667 29 86 61 118c50.667 50.667 113 76 187 76c74.667 0 137.334 -25.333 188.001 -76c32 -32 52 -71.333 60 -118c5.33301 -28.667 8 -84.667 8 -168zM471 356c0 60.667 -1 99.334 -3 116.001c-4.66699 47.333 -17.667 82.333 -39 105
c-27.333 29.333 -62.666 44 -105.999 44s-78.666 -14.667 -105.999 -44c-21.333 -22.667 -34.333 -57.667 -39 -105c-2 -16.667 -3 -55.334 -3 -116.001s1 -99.334 3 -116.001c4.66699 -47.333 17.667 -82.333 39 -105c27.333 -29.333 62.666 -44 105.999 -44
s78.666 14.667 105.999 44c21.333 22.667 34.333 57.667 39 105c2 16.667 3 55.334 3 116.001zM375 781h-77l-111 162h113z" />
    <glyph glyph-name="Oacute" unicode="&#xd3;" horiz-adv-x="646" 
d="M579 356c0 -83.333 -2.66699 -139.333 -8 -168c-8 -46.667 -28 -86 -60 -118c-50.667 -50.667 -113.334 -76 -188.001 -76c-74 0 -136.333 25.333 -187 76c-32 32 -52.333 71.333 -61 118c-5.33301 29.333 -8 85.333 -8 168s2.66699 138.667 8 168
c8.66699 46.667 29 86 61 118c50.667 50.667 113 76 187 76c74.667 0 137.334 -25.333 188.001 -76c32 -32 52 -71.333 60 -118c5.33301 -28.667 8 -84.667 8 -168zM471 356c0 60.667 -1 99.334 -3 116.001c-4.66699 47.333 -17.667 82.333 -39 105
c-27.333 29.333 -62.666 44 -105.999 44s-78.666 -14.667 -105.999 -44c-21.333 -22.667 -34.333 -57.667 -39 -105c-2 -16.667 -3 -55.334 -3 -116.001s1 -99.334 3 -116.001c4.66699 -47.333 17.667 -82.333 39 -105c27.333 -29.333 62.666 -44 105.999 -44
s78.666 14.667 105.999 44c21.333 22.667 34.333 57.667 39 105c2 16.667 3 55.334 3 116.001zM459 943l-111 -162h-77l75 162h113z" />
    <glyph glyph-name="Ocircumflex" unicode="&#xd4;" horiz-adv-x="646" 
d="M579 356c0 -83.333 -2.66699 -139.333 -8 -168c-8 -46.667 -28 -86 -60 -118c-50.667 -50.667 -113.334 -76 -188.001 -76c-74 0 -136.333 25.333 -187 76c-32 32 -52.333 71.333 -61 118c-5.33301 29.333 -8 85.333 -8 168s2.66699 138.667 8 168
c8.66699 46.667 29 86 61 118c50.667 50.667 113 76 187 76c74.667 0 137.334 -25.333 188.001 -76c32 -32 52 -71.333 60 -118c5.33301 -28.667 8 -84.667 8 -168zM471 356c0 60.667 -1 99.334 -3 116.001c-4.66699 47.333 -17.667 82.333 -39 105
c-27.333 29.333 -62.666 44 -105.999 44s-78.666 -14.667 -105.999 -44c-21.333 -22.667 -34.333 -57.667 -39 -105c-2 -16.667 -3 -55.334 -3 -116.001s1 -99.334 3 -116.001c4.66699 -47.333 17.667 -82.333 39 -105c27.333 -29.333 62.666 -44 105.999 -44
s78.666 14.667 105.999 44c21.333 22.667 34.333 57.667 39 105c2 16.667 3 55.334 3 116.001zM495 781h-85l-87 97l-87 -97h-85l129 161h86z" />
    <glyph glyph-name="Otilde" unicode="&#xd5;" horiz-adv-x="646" 
d="M579 356c0 -83.333 -2.66699 -139.333 -8 -168c-8 -46.667 -28 -86 -60 -118c-50.667 -50.667 -113.334 -76 -188.001 -76c-74 0 -136.333 25.333 -187 76c-32 32 -52.333 71.333 -61 118c-5.33301 29.333 -8 85.333 -8 168s2.66699 138.667 8 168
c8.66699 46.667 29 86 61 118c50.667 50.667 113 76 187 76c74.667 0 137.334 -25.333 188.001 -76c32 -32 52 -71.333 60 -118c5.33301 -28.667 8 -84.667 8 -168zM471 356c0 60.667 -1 99.334 -3 116.001c-4.66699 47.333 -17.667 82.333 -39 105
c-27.333 29.333 -62.666 44 -105.999 44s-78.666 -14.667 -105.999 -44c-21.333 -22.667 -34.333 -57.667 -39 -105c-2 -16.667 -3 -55.334 -3 -116.001s1 -99.334 3 -116.001c4.66699 -47.333 17.667 -82.333 39 -105c27.333 -29.333 62.666 -44 105.999 -44
s78.666 14.667 105.999 44c21.333 22.667 34.333 57.667 39 105c2 16.667 3 55.334 3 116.001zM492 849c-36.667 -36.667 -71.334 -55 -104.001 -55c-23.333 0 -48.333 7.66699 -75 23c-22 12.667 -40.667 19 -56 19c-18.667 0 -38 -10 -58 -30l-48 47
c36.667 36.667 71.334 55 104.001 55c23.333 0 48.333 -8 75 -24c21.333 -12.667 39.666 -19 54.999 -19c18.667 0 38.334 10.333 59.001 31z" />
    <glyph glyph-name="Odieresis" unicode="&#xd6;" horiz-adv-x="646" 
d="M579 356c0 -83.333 -2.66699 -139.333 -8 -168c-8 -46.667 -28 -86 -60 -118c-50.667 -50.667 -113.334 -76 -188.001 -76c-74 0 -136.333 25.333 -187 76c-32 32 -52.333 71.333 -61 118c-5.33301 29.333 -8 85.333 -8 168s2.66699 138.667 8 168
c8.66699 46.667 29 86 61 118c50.667 50.667 113 76 187 76c74.667 0 137.334 -25.333 188.001 -76c32 -32 52 -71.333 60 -118c5.33301 -28.667 8 -84.667 8 -168zM471 356c0 60.667 -1 99.334 -3 116.001c-4.66699 47.333 -17.667 82.333 -39 105
c-27.333 29.333 -62.666 44 -105.999 44s-78.666 -14.667 -105.999 -44c-21.333 -22.667 -34.333 -57.667 -39 -105c-2 -16.667 -3 -55.334 -3 -116.001s1 -99.334 3 -116.001c4.66699 -47.333 17.667 -82.333 39 -105c27.333 -29.333 62.666 -44 105.999 -44
s78.666 14.667 105.999 44c21.333 22.667 34.333 57.667 39 105c2 16.667 3 55.334 3 116.001zM489 839c0 -15.333 -5.5 -28.666 -16.5 -39.999s-24.167 -17 -39.5 -17s-28.666 5.66699 -39.999 17s-17 24.666 -17 39.999s5.66699 28.5 17 39.5s24.666 16.5 39.999 16.5
s28.5 -5.5 39.5 -16.5s16.5 -24.167 16.5 -39.5zM270 839c0 -15.333 -5.66699 -28.666 -17 -39.999s-24.666 -17 -39.999 -17s-28.5 5.66699 -39.5 17s-16.5 24.666 -16.5 39.999s5.5 28.5 16.5 39.5s24.167 16.5 39.5 16.5s28.666 -5.5 39.999 -16.5s17 -24.167 17 -39.5z
" />
    <glyph glyph-name="multiply" unicode="&#xd7;" horiz-adv-x="533" 
d="M476 132l-64 -63l-146 145l-145 -145l-64 63l146 146l-146 146l64 64l145 -146l146 146l64 -64l-146 -146z" />
    <glyph glyph-name="Oslash" unicode="&#xd8;" horiz-adv-x="652" 
d="M579 356c0 -83.333 -2.66504 -139.333 -7.99805 -168c-8 -46.667 -28 -86 -60 -118c-50.667 -50.667 -113.334 -76 -188.001 -76c-42 0 -81.667 9 -119 27l-31 -65h-82l51 108l-6 6c-32 32 -52.333 71.333 -61 118c-5.33301 29.333 -8 85.333 -8 168
s2.66699 138.667 8 168c8.66699 46.667 29 86 61 118c50.667 50.667 113 76 187 76c42.667 0 82.667 -9 120 -27l30 65h83l-52 -108c1.33301 -1.33301 3.66602 -3.33301 6.99902 -6c32 -32 52 -71.333 60 -118c5.33301 -28.667 8 -84.667 8 -168zM403.002 599
c-24 14.667 -50.667 22.001 -80 22.001c-42.667 0 -77.667 -14.667 -105 -44c-21.333 -22.667 -34.333 -57.667 -39 -105c-2 -16.667 -3 -55.334 -3 -116.001c0 -98 6.66699 -161.333 20 -190zM471.002 356.001c0 100 -6.66504 163.332 -19.998 189.999l-207 -433
c23.333 -14.667 49.666 -22 78.999 -22c43.333 0 78.666 14.667 105.999 44c21.333 22.667 34.333 57.667 39 105c2 16.667 3 55.334 3 116.001z" />
    <glyph glyph-name="Ugrave" unicode="&#xd9;" horiz-adv-x="675" 
d="M593 240c0 -72.667 -24.335 -131.834 -73.002 -177.501s-109.667 -68.5 -183 -68.5s-134.166 22.833 -182.499 68.5s-72.5 104.834 -72.5 177.501v472h108v-467c0 -47.333 13.333 -84.833 40 -112.5s62.334 -41.5 107.001 -41.5s80.5 13.833 107.5 41.5
s40.5 65.167 40.5 112.5v467h108v-472zM389.998 781h-77l-111 162h113z" />
    <glyph glyph-name="Uacute" unicode="&#xda;" horiz-adv-x="675" 
d="M593 240c0 -72.667 -24.335 -131.834 -73.002 -177.501s-109.667 -68.5 -183 -68.5s-134.166 22.833 -182.499 68.5s-72.5 104.834 -72.5 177.501v472h108v-467c0 -47.333 13.333 -84.833 40 -112.5s62.334 -41.5 107.001 -41.5s80.5 13.833 107.5 41.5
s40.5 65.167 40.5 112.5v467h108v-472zM473.998 943l-111 -162h-77l75 162h113z" />
    <glyph glyph-name="Ucircumflex" unicode="&#xdb;" horiz-adv-x="675" 
d="M593 240c0 -72.667 -24.335 -131.834 -73.002 -177.501s-109.667 -68.5 -183 -68.5s-134.166 22.833 -182.499 68.5s-72.5 104.834 -72.5 177.501v472h108v-467c0 -47.333 13.333 -84.833 40 -112.5s62.334 -41.5 107.001 -41.5s80.5 13.833 107.5 41.5
s40.5 65.167 40.5 112.5v467h108v-472zM509.998 781h-85l-87 97l-87 -97h-85l129 161h86z" />
    <glyph glyph-name="Udieresis" unicode="&#xdc;" horiz-adv-x="675" 
d="M593 240c0 -72.667 -24.335 -131.834 -73.002 -177.501s-109.667 -68.5 -183 -68.5s-134.166 22.833 -182.499 68.5s-72.5 104.834 -72.5 177.501v472h108v-467c0 -47.333 13.333 -84.833 40 -112.5s62.334 -41.5 107.001 -41.5s80.5 13.833 107.5 41.5
s40.5 65.167 40.5 112.5v467h108v-472zM503.998 839c0 -15.333 -5.5 -28.666 -16.5 -39.999s-24.167 -17 -39.5 -17s-28.666 5.66699 -39.999 17s-17 24.666 -17 39.999s5.66699 28.5 17 39.5s24.666 16.5 39.999 16.5s28.5 -5.5 39.5 -16.5s16.5 -24.167 16.5 -39.5z
M284.998 839c0 -15.333 -5.66699 -28.666 -17 -39.999s-24.666 -17 -39.999 -17s-28.5 5.66699 -39.5 17s-16.5 24.666 -16.5 39.999s5.5 28.5 16.5 39.5s24.167 16.5 39.5 16.5s28.666 -5.5 39.999 -16.5s17 -24.167 17 -39.5z" />
    <glyph glyph-name="Yacute" unicode="&#xdd;" horiz-adv-x="544" 
d="M539 712l-213 -419v-293h-108v293l-213 419h118l149 -313l149 313h118zM407 943l-111 -162h-77l75 162h113z" />
    <glyph glyph-name="Thorn" unicode="&#xde;" horiz-adv-x="637" 
d="M591 359c0 -62.667 -20.833 -114.166 -62.5 -154.499s-96.834 -60.5 -165.501 -60.5h-162v-144h-108v712h108v-137h162c68.667 0 123.834 -20.333 165.501 -61s62.5 -92.334 62.5 -155.001zM482 359.001c0 37.333 -11.5 66.5 -34.5 87.5s-53.5 31.5 -91.5 31.5h-155v-237
h155c38 0 68.5 10.5 91.5 31.5s34.5 49.833 34.5 86.5z" />
    <glyph glyph-name="germandbls" unicode="&#xdf;" horiz-adv-x="565" 
d="M501 152c0 -50 -13.832 -87.834 -41.499 -113.501s-65.5 -38.5 -113.5 -38.5h-53v87h32c20.667 0 38 5.66699 52 17s21 30.333 21 57v156c0 24 -6.33301 42 -19 54s-29.667 18 -51 18h-35v81h31c22 0 39.833 6.5 53.5 19.5s20.5 31.5 20.5 55.5
c0 24.667 -8.5 44.834 -25.5 60.501s-43.833 23.5 -80.5 23.5c-72 0 -108 -37.667 -108 -113v-516h-103v522c0 64 20 113.333 60 148c37.333 32.667 88.666 49 153.999 49c61.333 0 110 -13.667 146 -41c39.333 -30 59 -73.333 59 -130
c0 -50.667 -20.667 -89.334 -62 -116.001c42 -21.333 63 -59.666 63 -114.999v-165z" />
    <glyph glyph-name="agrave" unicode="&#xe0;" horiz-adv-x="530" 
d="M454 0l-100 0.00195312v46c-34.667 -34.667 -79.667 -52 -135 -52c-60.667 0 -106 15.333 -136 46c-26.667 27.333 -40 63.666 -40 108.999c0 44 15 79.333 45 106s73.333 40 130 40h134v36c0 63.333 -37 95 -111 95c-48.667 0 -85.667 -16.333 -111 -49l-67 63
c23.333 27.333 49.333 46.666 78 57.999c26 10 60.667 15 104 15c139.333 0 209 -58 209 -174v-339zM352 183.002v41h-119c-60.667 0 -91 -24.333 -91 -73c0 -48 31 -72 93 -72c43.333 0 75 9.66699 95 29c14.667 14 22 39 22 75zM309 599.002h-77l-111 162h113z" />
    <glyph glyph-name="aacute" unicode="&#xe1;" horiz-adv-x="530" 
d="M454 0l-100 0.00195312v46c-34.667 -34.667 -79.667 -52 -135 -52c-60.667 0 -106 15.333 -136 46c-26.667 27.333 -40 63.666 -40 108.999c0 44 15 79.333 45 106s73.333 40 130 40h134v36c0 63.333 -37 95 -111 95c-48.667 0 -85.667 -16.333 -111 -49l-67 63
c23.333 27.333 49.333 46.666 78 57.999c26 10 60.667 15 104 15c139.333 0 209 -58 209 -174v-339zM352 183.002v41h-119c-60.667 0 -91 -24.333 -91 -73c0 -48 31 -72 93 -72c43.333 0 75 9.66699 95 29c14.667 14 22 39 22 75zM393 761.002l-111 -162h-77l75 162h113z
" />
    <glyph glyph-name="acircumflex" unicode="&#xe2;" horiz-adv-x="530" 
d="M454 0l-100 0.00195312v46c-34.667 -34.667 -79.667 -52 -135 -52c-60.667 0 -106 15.333 -136 46c-26.667 27.333 -40 63.666 -40 108.999c0 44 15 79.333 45 106s73.333 40 130 40h134v36c0 63.333 -37 95 -111 95c-48.667 0 -85.667 -16.333 -111 -49l-67 63
c23.333 27.333 49.333 46.666 78 57.999c26 10 60.667 15 104 15c139.333 0 209 -58 209 -174v-339zM352 183.002v41h-119c-60.667 0 -91 -24.333 -91 -73c0 -48 31 -72 93 -72c43.333 0 75 9.66699 95 29c14.667 14 22 39 22 75zM429 599.002h-85l-87 97l-87 -97h-85
l129 161h86z" />
    <glyph glyph-name="atilde" unicode="&#xe3;" horiz-adv-x="530" 
d="M454 0l-100 0.00195312v46c-34.667 -34.667 -79.667 -52 -135 -52c-60.667 0 -106 15.333 -136 46c-26.667 27.333 -40 63.666 -40 108.999c0 44 15 79.333 45 106s73.333 40 130 40h134v36c0 63.333 -37 95 -111 95c-48.667 0 -85.667 -16.333 -111 -49l-67 63
c23.333 27.333 49.333 46.666 78 57.999c26 10 60.667 15 104 15c139.333 0 209 -58 209 -174v-339zM352 183.002v41h-119c-60.667 0 -91 -24.333 -91 -73c0 -48 31 -72 93 -72c43.333 0 75 9.66699 95 29c14.667 14 22 39 22 75zM426 667.002
c-36.667 -36.667 -71.334 -55 -104.001 -55c-23.333 0 -48.333 7.66699 -75 23c-22 12.667 -40.667 19 -56 19c-18.667 0 -38 -10 -58 -30l-48 47c36.667 36.667 71.334 55 104.001 55c23.333 0 48.333 -8 75 -24c21.333 -12.667 39.666 -19 54.999 -19
c18.667 0 38.334 10.333 59.001 31z" />
    <glyph glyph-name="adieresis" unicode="&#xe4;" horiz-adv-x="530" 
d="M454 0l-100 0.00195312v46c-34.667 -34.667 -79.667 -52 -135 -52c-60.667 0 -106 15.333 -136 46c-26.667 27.333 -40 63.666 -40 108.999c0 44 15 79.333 45 106s73.333 40 130 40h134v36c0 63.333 -37 95 -111 95c-48.667 0 -85.667 -16.333 -111 -49l-67 63
c23.333 27.333 49.333 46.666 78 57.999c26 10 60.667 15 104 15c139.333 0 209 -58 209 -174v-339zM352 183.002v41h-119c-60.667 0 -91 -24.333 -91 -73c0 -48 31 -72 93 -72c43.333 0 75 9.66699 95 29c14.667 14 22 39 22 75zM423 657.002
c0 -15.333 -5.5 -28.666 -16.5 -39.999s-24.167 -17 -39.5 -17s-28.666 5.66699 -39.999 17s-17 24.666 -17 39.999s5.66699 28.5 17 39.5s24.666 16.5 39.999 16.5s28.5 -5.5 39.5 -16.5s16.5 -24.167 16.5 -39.5zM204 657.002c0 -15.333 -5.66699 -28.666 -17 -39.999
s-24.666 -17 -39.999 -17s-28.5 5.66699 -39.5 17s-16.5 24.666 -16.5 39.999s5.5 28.5 16.5 39.5s24.167 16.5 39.5 16.5s28.666 -5.5 39.999 -16.5s17 -24.167 17 -39.5z" />
    <glyph glyph-name="aring" unicode="&#xe5;" horiz-adv-x="530" 
d="M454 0l-100 0.00195312v46c-34.667 -34.667 -79.667 -52 -135 -52c-60.667 0 -106 15.333 -136 46c-26.667 27.333 -40 63.666 -40 108.999c0 44 15 79.333 45 106s73.333 40 130 40h134v36c0 63.333 -37 95 -111 95c-48.667 0 -85.667 -16.333 -111 -49l-67 63
c23.333 27.333 49.333 46.666 78 57.999c26 10 60.667 15 104 15c139.333 0 209 -58 209 -174v-339zM352 183.002v41h-119c-60.667 0 -91 -24.333 -91 -73c0 -48 31 -72 93 -72c43.333 0 75 9.66699 95 29c14.667 14 22 39 22 75zM382 701.002
c0 -34.667 -12.167 -64.167 -36.5 -88.5s-53.833 -36.5 -88.5 -36.5s-64.167 12.167 -88.5 36.5s-36.5 53.833 -36.5 88.5s12.167 64.167 36.5 88.5s53.833 36.5 88.5 36.5s64.167 -12.167 88.5 -36.5s36.5 -53.833 36.5 -88.5zM321 701.002
c0 17.333 -6.33301 32.166 -19 44.499s-27.667 18.5 -45 18.5s-32.333 -6.16699 -45 -18.5s-19 -27.166 -19 -44.499s6.33301 -32.166 19 -44.499s27.667 -18.5 45 -18.5s32.333 6.16699 45 18.5s19 27.166 19 44.499z" />
    <glyph glyph-name="ae" unicode="&#xe6;" horiz-adv-x="837" 
d="M782 224l-328.997 0.00195312c0 -44 11.167 -78.667 33.5 -104s54.166 -38 95.499 -38c47.333 0 88.333 17.333 123 52l65 -61c-27.333 -27.333 -54.333 -47 -81 -59c-30 -13.333 -66.333 -20 -109 -20c-80 0 -139.667 26.333 -179 79
c-24.667 -30 -50.834 -50.667 -78.501 -62s-62.167 -17 -103.5 -17c-60.667 0 -106 15.333 -136 46c-26.667 27.333 -40 63.666 -40 108.999c0 44 15 79.333 45 106s73.333 40 130 40h134v36c0 63.333 -37 95 -111 95c-48.667 0 -85.667 -16.333 -111 -49l-67 63
c23.333 27.333 49.333 46.666 78 57.999c26 10 60.667 15 104 15c83.333 0 140.666 -22.333 171.999 -67c36.667 44.667 86.667 67 150 67c66.667 0 119.667 -22.667 159 -68c37.333 -44 56 -102.667 56 -176v-45zM681.003 295.002c-0.666992 28 -4.99902 51 -12.999 69
c-18 42.667 -51.667 64 -101 64c-48.667 0 -82 -21.333 -100 -64c-8.66699 -20 -13.334 -43 -14.001 -69h228zM352.004 183.002v41h-119c-60.667 0 -91 -24.333 -91 -73c0 -48 31 -72 93 -72c43.333 0 75 9.66699 95 29c14.667 14 22 39 22 75z" />
    <glyph glyph-name="ccedilla" unicode="&#xe7;" horiz-adv-x="488" 
d="M448 66c-45.333 -48 -101.001 -72 -167.001 -72c-64 0 -116 19.667 -156 59c-46.667 45.333 -70 112.333 -70 201s23.333 155.667 70 201c40 38.667 92 58 156 58c66.667 0 122.334 -23.667 167.001 -71l-70 -68c-29.333 32 -61.666 48 -96.999 48
c-39.333 0 -70.666 -15 -93.999 -45c-20 -26 -30 -67 -30 -123c0 -56.667 10 -98 30 -124c23.333 -30 54.666 -45 93.999 -45c35.333 0 67.666 16 96.999 48zM318.999 -64l-51 -147h-101l70 147h82z" />
    <glyph glyph-name="egrave" unicode="&#xe8;" horiz-adv-x="539" 
d="M485 224h-328.999c0 -44 11.167 -78.667 33.5 -104s54.166 -38 95.499 -38c47.333 0 88.333 17.333 123 52l65 -61c-27.333 -27.333 -54.333 -47 -81 -59c-30 -13.333 -66.333 -20 -109 -20c-152 0 -228 86.667 -228 260c0 81.333 19.333 144.833 58 190.5
s91 68.5 157 68.5c66.667 0 119.667 -22.667 159 -68c37.333 -44 56 -102.667 56 -176v-45zM384.001 295c-0.666992 26 -5.33301 49 -14 69c-18 42.667 -51.333 64 -100 64c-49.333 0 -83 -21.333 -101 -64c-8 -18 -12.333 -41 -13 -69h228zM325.002 599h-77l-111 162h113z
" />
    <glyph glyph-name="eacute" unicode="&#xe9;" horiz-adv-x="539" 
d="M485 224h-328.999c0 -44 11.167 -78.667 33.5 -104s54.166 -38 95.499 -38c47.333 0 88.333 17.333 123 52l65 -61c-27.333 -27.333 -54.333 -47 -81 -59c-30 -13.333 -66.333 -20 -109 -20c-152 0 -228 86.667 -228 260c0 81.333 19.333 144.833 58 190.5
s91 68.5 157 68.5c66.667 0 119.667 -22.667 159 -68c37.333 -44 56 -102.667 56 -176v-45zM384.001 295c-0.666992 26 -5.33301 49 -14 69c-18 42.667 -51.333 64 -100 64c-49.333 0 -83 -21.333 -101 -64c-8 -18 -12.333 -41 -13 -69h228zM409.002 761l-111 -162h-77
l75 162h113z" />
    <glyph glyph-name="ecircumflex" unicode="&#xea;" horiz-adv-x="539" 
d="M485 224h-328.999c0 -44 11.167 -78.667 33.5 -104s54.166 -38 95.499 -38c47.333 0 88.333 17.333 123 52l65 -61c-27.333 -27.333 -54.333 -47 -81 -59c-30 -13.333 -66.333 -20 -109 -20c-152 0 -228 86.667 -228 260c0 81.333 19.333 144.833 58 190.5
s91 68.5 157 68.5c66.667 0 119.667 -22.667 159 -68c37.333 -44 56 -102.667 56 -176v-45zM384.001 295c-0.666992 26 -5.33301 49 -14 69c-18 42.667 -51.333 64 -100 64c-49.333 0 -83 -21.333 -101 -64c-8 -18 -12.333 -41 -13 -69h228zM445.002 599h-85l-87 97l-87 -97
h-85l129 161h86z" />
    <glyph glyph-name="edieresis" unicode="&#xeb;" horiz-adv-x="539" 
d="M485 224h-328.999c0 -44 11.167 -78.667 33.5 -104s54.166 -38 95.499 -38c47.333 0 88.333 17.333 123 52l65 -61c-27.333 -27.333 -54.333 -47 -81 -59c-30 -13.333 -66.333 -20 -109 -20c-152 0 -228 86.667 -228 260c0 81.333 19.333 144.833 58 190.5
s91 68.5 157 68.5c66.667 0 119.667 -22.667 159 -68c37.333 -44 56 -102.667 56 -176v-45zM384.001 295c-0.666992 26 -5.33301 49 -14 69c-18 42.667 -51.333 64 -100 64c-49.333 0 -83 -21.333 -101 -64c-8 -18 -12.333 -41 -13 -69h228zM439.002 657
c0 -15.333 -5.5 -28.666 -16.5 -39.999s-24.167 -17 -39.5 -17s-28.666 5.66699 -39.999 17s-17 24.666 -17 39.999s5.66699 28.5 17 39.5s24.666 16.5 39.999 16.5s28.5 -5.5 39.5 -16.5s16.5 -24.167 16.5 -39.5zM220.002 657c0 -15.333 -5.66699 -28.666 -17 -39.999
s-24.666 -17 -39.999 -17s-28.5 5.66699 -39.5 17s-16.5 24.666 -16.5 39.999s5.5 28.5 16.5 39.5s24.167 16.5 39.5 16.5s28.666 -5.5 39.999 -16.5s17 -24.167 17 -39.5z" />
    <glyph glyph-name="igrave" unicode="&#xec;" horiz-adv-x="264" 
d="M183 0h-102v507h102v-507zM203 599h-77l-111 162h113z" />
    <glyph glyph-name="iacute" unicode="&#xed;" horiz-adv-x="264" 
d="M183 0h-102v507h102v-507zM254 761l-111 -162h-77l75 162h113z" />
    <glyph glyph-name="icircumflex" unicode="&#xee;" horiz-adv-x="264" 
d="M183 0h-102v507h102v-507zM302 599h-85l-87 97l-87 -97h-85l129 161h86z" />
    <glyph glyph-name="idieresis" unicode="&#xef;" horiz-adv-x="264" 
d="M183 0h-102v507h102v-507zM296 657c0 -15.333 -5.5 -28.666 -16.5 -39.999s-24.167 -17 -39.5 -17s-28.666 5.66699 -39.999 17s-17 24.666 -17 39.999s5.66699 28.5 17 39.5s24.666 16.5 39.999 16.5s28.5 -5.5 39.5 -16.5s16.5 -24.167 16.5 -39.5zM77 657
c0 -15.333 -5.66699 -28.666 -17 -39.999s-24.666 -17 -39.999 -17s-28.5 5.66699 -39.5 17s-16.5 24.666 -16.5 39.999s5.5 28.5 16.5 39.5s24.167 16.5 39.5 16.5s28.666 -5.5 39.999 -16.5s17 -24.167 17 -39.5z" />
    <glyph glyph-name="eth" unicode="&#xf0;" horiz-adv-x="537" 
d="M476 249c0 -90 -19.3301 -154.998 -57.9971 -194.998s-88.667 -60 -150 -60c-60.667 0 -110.334 20 -149.001 60s-58 105 -58 195s19.667 155.333 59 196c26 26.667 60.667 43.667 104 51c27.333 4.66699 52.666 4 75.999 -2l-45 81h-116v72h78l-39 70h108l39 -70h87v-72
h-50l51 -94c25.333 -46.667 42.166 -85.334 50.499 -116.001s12.5 -69.334 12.5 -116.001zM374.003 249.002c0 67.333 -11 112.333 -33 135c-18.667 19.333 -43 29 -73 29c-29.333 0 -53.333 -9.66699 -72 -29c-22 -22.667 -33 -67.667 -33 -135s11 -112.333 33 -135
c18.667 -19.333 42.667 -29 72 -29c30 0 54.333 9.66699 73 29c22 22.667 33 67.667 33 135z" />
    <glyph glyph-name="ntilde" unicode="&#xf1;" horiz-adv-x="568" 
d="M492 0h-101.999v309c0 38 -10 66.667 -30 86c-17.333 18 -41.333 27 -72 27s-55.334 -9 -74.001 -27c-20.667 -20 -31 -48.667 -31 -86v-309h-102v507h100v-51c35.333 38 80.333 57 135 57c52 0 93.667 -15.333 125 -46c34 -33.333 51 -81 51 -143v-324zM456.001 667
c-36.667 -36.667 -71.334 -55 -104.001 -55c-23.333 0 -48.333 7.66699 -75 23c-22 12.667 -40.667 19 -56 19c-18.667 0 -38 -10 -58 -30l-48 47c36.667 36.667 71.334 55 104.001 55c23.333 0 48.333 -8 75 -24c21.333 -12.667 39.666 -19 54.999 -19
c18.667 0 38.334 10.333 59.001 31z" />
    <glyph glyph-name="ograve" unicode="&#xf2;" horiz-adv-x="537" 
d="M480 254c0 -92 -19.667 -158.333 -59 -199s-90.333 -61 -153 -61c-62 0 -112.667 20.333 -152 61s-59 107 -59 199c0 91.333 19.667 157.333 59 198s90 61 152 61c62.667 0 113.667 -20.333 153 -61s59 -106.667 59 -198zM378 254c0 69.333 -11.667 115.666 -35 138.999
c-19.333 19.333 -44.333 29 -75 29c-30 0 -54.667 -9.66699 -74 -29c-23.333 -23.333 -35 -69.666 -35 -138.999s11.667 -115.666 35 -138.999c20 -20 44.667 -30 74 -30c30 0 55 10 75 30c23.333 23.333 35 69.666 35 138.999zM313 599h-77l-111 162h113z" />
    <glyph glyph-name="oacute" unicode="&#xf3;" horiz-adv-x="537" 
d="M480 254c0 -92 -19.667 -158.333 -59 -199s-90.333 -61 -153 -61c-62 0 -112.667 20.333 -152 61s-59 107 -59 199c0 91.333 19.667 157.333 59 198s90 61 152 61c62.667 0 113.667 -20.333 153 -61s59 -106.667 59 -198zM378 254c0 69.333 -11.667 115.666 -35 138.999
c-19.333 19.333 -44.333 29 -75 29c-30 0 -54.667 -9.66699 -74 -29c-23.333 -23.333 -35 -69.666 -35 -138.999s11.667 -115.666 35 -138.999c20 -20 44.667 -30 74 -30c30 0 55 10 75 30c23.333 23.333 35 69.666 35 138.999zM404 761l-111 -162h-77l75 162h113z" />
    <glyph glyph-name="ocircumflex" unicode="&#xf4;" horiz-adv-x="537" 
d="M480 254c0 -92 -19.667 -158.333 -59 -199s-90.333 -61 -153 -61c-62 0 -112.667 20.333 -152 61s-59 107 -59 199c0 91.333 19.667 157.333 59 198s90 61 152 61c62.667 0 113.667 -20.333 153 -61s59 -106.667 59 -198zM378 254c0 69.333 -11.667 115.666 -35 138.999
c-19.333 19.333 -44.333 29 -75 29c-30 0 -54.667 -9.66699 -74 -29c-23.333 -23.333 -35 -69.666 -35 -138.999s11.667 -115.666 35 -138.999c20 -20 44.667 -30 74 -30c30 0 55 10 75 30c23.333 23.333 35 69.666 35 138.999zM440 599h-85l-87 97l-87 -97h-85l129 161h86z
" />
    <glyph glyph-name="otilde" unicode="&#xf5;" horiz-adv-x="537" 
d="M480 254c0 -92 -19.667 -158.333 -59 -199s-90.333 -61 -153 -61c-62 0 -112.667 20.333 -152 61s-59 107 -59 199c0 91.333 19.667 157.333 59 198s90 61 152 61c62.667 0 113.667 -20.333 153 -61s59 -106.667 59 -198zM378 254c0 69.333 -11.667 115.666 -35 138.999
c-19.333 19.333 -44.333 29 -75 29c-30 0 -54.667 -9.66699 -74 -29c-23.333 -23.333 -35 -69.666 -35 -138.999s11.667 -115.666 35 -138.999c20 -20 44.667 -30 74 -30c30 0 55 10 75 30c23.333 23.333 35 69.666 35 138.999zM437 667
c-36.667 -36.667 -71.334 -55 -104.001 -55c-23.333 0 -48.333 7.66699 -75 23c-22 12.667 -40.667 19 -56 19c-18.667 0 -38 -10 -58 -30l-48 47c36.667 36.667 71.334 55 104.001 55c23.333 0 48.333 -8 75 -24c21.333 -12.667 39.666 -19 54.999 -19
c18.667 0 38.334 10.333 59.001 31z" />
    <glyph glyph-name="odieresis" unicode="&#xf6;" horiz-adv-x="537" 
d="M480 254c0 -92 -19.667 -158.333 -59 -199s-90.333 -61 -153 -61c-62 0 -112.667 20.333 -152 61s-59 107 -59 199c0 91.333 19.667 157.333 59 198s90 61 152 61c62.667 0 113.667 -20.333 153 -61s59 -106.667 59 -198zM378 254c0 69.333 -11.667 115.666 -35 138.999
c-19.333 19.333 -44.333 29 -75 29c-30 0 -54.667 -9.66699 -74 -29c-23.333 -23.333 -35 -69.666 -35 -138.999s11.667 -115.666 35 -138.999c20 -20 44.667 -30 74 -30c30 0 55 10 75 30c23.333 23.333 35 69.666 35 138.999zM434 657
c0 -15.333 -5.5 -28.666 -16.5 -39.999s-24.167 -17 -39.5 -17s-28.666 5.66699 -39.999 17s-17 24.666 -17 39.999s5.66699 28.5 17 39.5s24.666 16.5 39.999 16.5s28.5 -5.5 39.5 -16.5s16.5 -24.167 16.5 -39.5zM215 657c0 -15.333 -5.66699 -28.666 -17 -39.999
s-24.666 -17 -39.999 -17s-28.5 5.66699 -39.5 17s-16.5 24.666 -16.5 39.999s5.5 28.5 16.5 39.5s24.167 16.5 39.5 16.5s28.666 -5.5 39.999 -16.5s17 -24.167 17 -39.5z" />
    <glyph glyph-name="divide" unicode="&#xf7;" horiz-adv-x="533" 
d="M339 471c0 -20 -7.16699 -37 -21.5 -51s-31.5 -21 -51.5 -21s-37 7 -51 21s-21 31 -21 51s7 37.167 21 51.5s31 21.5 51 21.5s37.167 -7.16699 51.5 -21.5s21.5 -31.5 21.5 -51.5zM484 230h-436v95h436v-95zM339 84c0 -20 -7.16699 -37.167 -21.5 -51.5
s-31.5 -21.5 -51.5 -21.5s-37 7.16699 -51 21.5s-21 31.5 -21 51.5s7 37.167 21 51.5s31 21.5 51 21.5s37.167 -7.16699 51.5 -21.5s21.5 -31.5 21.5 -51.5z" />
    <glyph glyph-name="oslash" unicode="&#xf8;" horiz-adv-x="537" 
d="M480 254c0 -92 -19.667 -158.334 -59 -199.001s-90.333 -61 -153 -61c-38 0 -72.667 8.33301 -104 25l-37 -63h-69l58 99c-39.333 40.667 -59 107 -59 199c0 91.333 19.667 157.333 59 198s90 61 152 61c38.667 0 73.667 -8.33301 105 -25l37 63h69l-59 -98
c40 -41.333 60 -107.666 60 -198.999zM328 404.999c-17.333 11.333 -37.333 16.998 -60 16.998c-30 0 -54.667 -9.66699 -74 -29c-23.333 -23.333 -35 -69.666 -35 -138.999c0 -49.333 5 -85.666 15 -108.999zM378 253.997c0 49.333 -5 85.668 -15 109.001l-154 -260
c17.333 -12 37 -18 59 -18c30 0 55 10 75 30c23.333 23.333 35 69.666 35 138.999z" />
    <glyph glyph-name="ugrave" unicode="&#xf9;" horiz-adv-x="568" 
d="M487 0h-100.001v51c-34.667 -38 -79.667 -57 -135 -57c-52 0 -93.667 15.333 -125 46c-34 33.333 -51 81 -51 143v324h102v-309c0 -37.333 10 -66 30 -86c18 -18 42 -27 72 -27c30.667 0 55.834 9.5 75.501 28.5s29.5 47.167 29.5 84.5v309h102v-507zM332.999 599h-77
l-111 162h113z" />
    <glyph glyph-name="uacute" unicode="&#xfa;" horiz-adv-x="568" 
d="M487 0h-100.001v51c-34.667 -38 -79.667 -57 -135 -57c-52 0 -93.667 15.333 -125 46c-34 33.333 -51 81 -51 143v324h102v-309c0 -37.333 10 -66 30 -86c18 -18 42 -27 72 -27c30.667 0 55.834 9.5 75.501 28.5s29.5 47.167 29.5 84.5v309h102v-507zM416.999 761
l-111 -162h-77l75 162h113z" />
    <glyph glyph-name="ucircumflex" unicode="&#xfb;" horiz-adv-x="568" 
d="M487 0h-100.001v51c-34.667 -38 -79.667 -57 -135 -57c-52 0 -93.667 15.333 -125 46c-34 33.333 -51 81 -51 143v324h102v-309c0 -37.333 10 -66 30 -86c18 -18 42 -27 72 -27c30.667 0 55.834 9.5 75.501 28.5s29.5 47.167 29.5 84.5v309h102v-507zM452.999 599h-85
l-87 97l-87 -97h-85l129 161h86z" />
    <glyph glyph-name="udieresis" unicode="&#xfc;" horiz-adv-x="568" 
d="M487 0h-100.001v51c-34.667 -38 -79.667 -57 -135 -57c-52 0 -93.667 15.333 -125 46c-34 33.333 -51 81 -51 143v324h102v-309c0 -37.333 10 -66 30 -86c18 -18 42 -27 72 -27c30.667 0 55.834 9.5 75.501 28.5s29.5 47.167 29.5 84.5v309h102v-507zM446.999 657
c0 -15.333 -5.5 -28.666 -16.5 -39.999s-24.167 -17 -39.5 -17s-28.666 5.66699 -39.999 17s-17 24.666 -17 39.999s5.66699 28.5 17 39.5s24.666 16.5 39.999 16.5s28.5 -5.5 39.5 -16.5s16.5 -24.167 16.5 -39.5zM227.999 657c0 -15.333 -5.66699 -28.666 -17 -39.999
s-24.666 -17 -39.999 -17s-28.5 5.66699 -39.5 17s-16.5 24.666 -16.5 39.999s5.5 28.5 16.5 39.5s24.167 16.5 39.5 16.5s28.666 -5.5 39.999 -16.5s17 -24.167 17 -39.5z" />
    <glyph glyph-name="yacute" unicode="&#xfd;" horiz-adv-x="468" 
d="M464 507l-223.999 -608.001c-10 -27.333 -22.333 -48.333 -37 -63c-24.667 -24.667 -59.334 -37 -104.001 -37h-41v92h26c21.333 0 37 3.83301 47 11.5s18.667 21.834 26 42.501l28 79l-177 483h108l121 -357l118 357h109zM370.001 760.999l-111 -162h-77l75 162h113z
" />
    <glyph glyph-name="thorn" unicode="&#xfe;" horiz-adv-x="554" 
d="M496 254c0 -105.333 -19 -177 -57 -215c-30 -30 -71 -45 -123 -45c-56 0 -100.333 19.333 -133 58v-257h-102v917h102v-256c32 38 76.333 57 133 57c52 0 93 -15 123 -45c38 -38 57 -109.333 57 -214zM394 254c0 53.333 -6 92.666 -18 117.999c-16 33.333 -45 50 -87 50
s-71 -16.667 -87 -50c-12.667 -25.333 -19 -64.666 -19 -117.999s6.33301 -92.666 19 -117.999c16 -34 45 -51 87 -51s71 17 87 51c12 25.333 18 64.666 18 117.999z" />
    <glyph glyph-name="ydieresis" unicode="&#xff;" horiz-adv-x="468" 
d="M464 507l-223.999 -608.001c-10 -27.333 -22.333 -48.333 -37 -63c-24.667 -24.667 -59.334 -37 -104.001 -37h-41v92h26c21.333 0 37 3.83301 47 11.5s18.667 21.834 26 42.501l28 79l-177 483h108l121 -357l118 357h109zM400.001 656.999
c0 -15.333 -5.5 -28.666 -16.5 -39.999s-24.167 -17 -39.5 -17s-28.666 5.66699 -39.999 17s-17 24.666 -17 39.999s5.66699 28.5 17 39.5s24.666 16.5 39.999 16.5s28.5 -5.5 39.5 -16.5s16.5 -24.167 16.5 -39.5zM181.001 656.999c0 -15.333 -5.66699 -28.666 -17 -39.999
s-24.666 -17 -39.999 -17s-28.5 5.66699 -39.5 17s-16.5 24.666 -16.5 39.999s5.5 28.5 16.5 39.5s24.167 16.5 39.5 16.5s28.666 -5.5 39.999 -16.5s17 -24.167 17 -39.5z" />
    <glyph glyph-name="dotlessi" unicode="&#x131;" horiz-adv-x="264" 
d="M183 0h-102v507h102v-507z" />
    <glyph glyph-name="Lslash" unicode="&#x141;" horiz-adv-x="587" 
d="M557 0h-450v266l-69 -44v93l69 43v354h108v-286l141 89v-91l-141 -89v-238h342v-97z" />
    <glyph glyph-name="lslash" unicode="&#x142;" horiz-adv-x="326" 
d="M294 0l-63 -0.000976562c-46 0 -81.333 14 -106 42c-22 24.667 -33 57.334 -33 98.001v181l-59 -36v87l59 36v304h102v-242l70 43v-86l-70 -44v-237c0 -39.333 18.333 -59 55 -59h45v-87z" />
    <glyph glyph-name="OE" unicode="&#x152;" horiz-adv-x="977" 
d="M922 0l-451 0.00195312v58c-36.667 -42.667 -86.667 -64 -150 -64c-74 0 -135.667 24.667 -185 74c-31.333 31.333 -51.333 70.666 -60 117.999c-6 31.333 -9 88 -9 170s3 138.667 9 170c8.66699 47.333 28.667 86.666 60 117.999c49.333 49.333 111 74 185 74
c63.333 0 113.333 -21.333 150 -64v58h450v-96h-342v-210h291v-94h-291v-216h343v-96zM471 356.002c0 60.667 -1 99.334 -3 116.001c-4.66699 47.333 -17.667 82.333 -39 105c-27.333 29.333 -62.666 44 -105.999 44c-42.667 0 -77.667 -14.667 -105 -44
c-21.333 -22.667 -34.333 -57.667 -39 -105c-2 -16.667 -3 -55.334 -3 -116.001s1 -99.334 3 -116.001c4.66699 -47.333 17.667 -82.333 39 -105c27.333 -29.333 62.333 -44 105 -44c43.333 0 78.666 14.667 105.999 44c21.333 22.667 34.333 57.667 39 105
c2 16.667 3 55.334 3 116.001z" />
    <glyph glyph-name="oe" unicode="&#x153;" horiz-adv-x="862" 
d="M807 224h-328.999c0 -44 11.167 -78.667 33.5 -104s54.166 -38 95.499 -38c47.333 0 88.333 17.333 123 52l65 -61c-28 -28 -55 -47.667 -81 -59c-29.333 -13.333 -65.333 -20 -108 -20c-78.667 0 -137 26.667 -175 80c-34.667 -53.333 -89 -80 -163 -80
c-62 0 -112.667 20.333 -152 61s-59 107 -59 199c0 91.333 19.667 157.333 59 198s90 61 152 61c74.667 0 129.334 -27 164.001 -81c35.333 54 88.666 81 159.999 81c66.667 0 119.667 -22.667 159 -68c37.333 -44 56 -102.667 56 -176v-45zM706.001 295
c-0.666992 28 -4.99902 51 -12.999 69c-18 42.667 -51.667 64 -101 64c-48.667 0 -82 -21.333 -100 -64c-8.66699 -20 -13.334 -43 -14.001 -69h228zM378.002 254c0 69.333 -11.667 115.666 -35 138.999c-19.333 19.333 -44.333 29 -75 29c-30 0 -54.667 -9.66699 -74 -29
c-23.333 -23.333 -35 -69.666 -35 -138.999s11.667 -115.666 35 -138.999c20 -20 44.667 -30 74 -30c30 0 55 10 75 30c23.333 23.333 35 69.666 35 138.999z" />
    <glyph glyph-name="Scaron" unicode="&#x160;" horiz-adv-x="590" 
d="M538 203c0 -64.667 -23.667 -115.666 -71 -152.999s-109 -56 -185 -56c-106 0 -190 31.333 -252 94l72 71c45.333 -45.333 106 -68 182 -68c46.667 0 82.834 9.5 108.501 28.5s38.5 45.833 38.5 80.5c0 32 -9.33301 56.667 -28 74c-16 14.667 -42 24.667 -78 30l-84 12
c-58.667 8.66699 -103.667 27.667 -135 57c-34.667 32.667 -52 78 -52 136c0 62.667 21.333 113.167 64 151.5s100.667 57.5 174 57.5c89.333 0 163 -27 221 -81l-69 -68c-38.667 36.667 -90.334 55 -155.001 55c-40.667 0 -72.5 -10.333 -95.5 -31
s-34.5 -47.334 -34.5 -80.001c0 -28 9.16699 -50.167 27.5 -66.5s44.833 -27.166 79.5 -32.499l81 -12c58.667 -8.66699 103 -26.334 133 -53.001c38.667 -34 58 -82.667 58 -146zM463 942.001l-129 -161h-86l-129 161h85l87 -97l87 97h85z" />
    <glyph glyph-name="scaron" unicode="&#x161;" horiz-adv-x="499" 
d="M456 155c0 -51.333 -19.501 -91 -58.501 -119s-89.833 -42 -152.5 -42c-92.667 0 -163.667 24.333 -213 73l67 67c34.667 -35.333 83.334 -53 146.001 -53c74 0 111 23.333 111 70c0 36 -22.667 56 -68 60l-81 7c-100 8.66699 -150 55.334 -150 140.001
c0 48 18.667 86.333 56 115c35.333 26.667 80.333 40 135 40c82 0 144.667 -19 188 -57l-64 -65c-29.333 24.667 -71 37 -125 37c-61.333 0 -92 -21.667 -92 -65c0 -34.667 23.333 -54 70 -58l80 -7c100.667 -8.66699 151 -56.334 151 -143.001zM419.999 760l-129 -161h-86
l-129 161h85l87 -97l87 97h85z" />
    <glyph glyph-name="Ydieresis" unicode="&#x178;" horiz-adv-x="544" 
d="M539 712l-213 -419v-293h-108v293l-213 419h118l149 -313l149 313h118zM437 839c0 -15.333 -5.5 -28.666 -16.5 -39.999s-24.167 -17 -39.5 -17s-28.666 5.66699 -39.999 17s-17 24.666 -17 39.999s5.66699 28.5 17 39.5s24.666 16.5 39.999 16.5s28.5 -5.5 39.5 -16.5
s16.5 -24.167 16.5 -39.5zM218 839c0 -15.333 -5.66699 -28.666 -17 -39.999s-24.666 -17 -39.999 -17s-28.5 5.66699 -39.5 17s-16.5 24.666 -16.5 39.999s5.5 28.5 16.5 39.5s24.167 16.5 39.5 16.5s28.666 -5.5 39.999 -16.5s17 -24.167 17 -39.5z" />
    <glyph glyph-name="Zcaron" unicode="&#x17d;" horiz-adv-x="552" 
d="M504 0h-456v93l329 522h-315v97h442v-88l-331 -527h331v-97zM453 942l-129 -161h-86l-129 161h85l87 -97l87 97h85z" />
    <glyph glyph-name="zcaron" unicode="&#x17e;" horiz-adv-x="469" 
d="M421 0h-378v81l252 335h-238v91h364v-81l-254 -335h254v-91zM411 760l-129 -161h-86l-129 161h85l87 -97l87 97h85z" />
    <glyph glyph-name="florin" unicode="&#x192;" horiz-adv-x="415" 
d="M385 630h-59c-37.333 0 -59.333 -19.667 -66 -59l-32 -180h101v-78h-115l-91 -518h-102l91 518h-82v78h96l33 185c7.33301 39.333 24.333 72 51 98c30 28.667 67.333 43 112 43h63v-87z" />
    <glyph glyph-name="circumflex" unicode="&#x2c6;" 
d="M422 599h-85l-87 97l-87 -97h-85l129 161h86z" />
    <glyph glyph-name="caron" unicode="&#x2c7;" 
d="M422 760l-129 -161h-86l-129 161h85l87 -97l87 97h85z" />
    <glyph glyph-name="breve" unicode="&#x2d8;" 
d="M415 735c-6 -96.667 -60.667 -145 -164 -145c-104.667 0 -160 48.333 -166 145h74c6 -47.333 36.667 -71 92 -71s86 23.667 92 71h72z" />
    <glyph glyph-name="dotaccent" unicode="&#x2d9;" 
d="M304 620h-108v91h108v-91z" />
    <glyph glyph-name="ring" unicode="&#x2da;" 
d="M375 701c0 -34.667 -12.167 -64.167 -36.5 -88.5s-53.833 -36.5 -88.5 -36.5s-64.167 12.167 -88.5 36.5s-36.5 53.833 -36.5 88.5s12.167 64.167 36.5 88.5s53.833 36.5 88.5 36.5s64.167 -12.167 88.5 -36.5s36.5 -53.833 36.5 -88.5zM314 701
c0 17.333 -6.33301 32.166 -19 44.499s-27.667 18.5 -45 18.5s-32.333 -6.16699 -45 -18.5s-19 -27.166 -19 -44.499s6.33301 -32.166 19 -44.499s27.667 -18.5 45 -18.5s32.333 6.16699 45 18.5s19 27.166 19 44.499z" />
    <glyph glyph-name="ogonek" unicode="&#x2db;" 
d="M329 -211h-101l-51 147h82z" />
    <glyph glyph-name="tilde" unicode="&#x2dc;" 
d="M419 667c-36.667 -36.667 -71.334 -55 -104.001 -55c-23.333 0 -48.333 7.66699 -75 23c-22 12.667 -40.667 19 -56 19c-18.667 0 -38 -10 -58 -30l-48 47c36.667 36.667 71.334 55 104.001 55c23.333 0 48.333 -8 75 -24c21.333 -12.667 39.666 -19 54.999 -19
c18.667 0 38.334 10.333 59.001 31z" />
    <glyph glyph-name="hungarumlaut" unicode="&#x2dd;" 
d="M456 761l-112 -162h-76l76 162h112zM271 761l-111 -162h-77l75 162h113z" />
    <glyph glyph-name="Delta" unicode="&#x394;" horiz-adv-x="619" 
d="M613 0h-608l261 712h87zM472 92l-161 459l-162 -459h323z" />
    <glyph glyph-name="Delta" unicode="&#x2206;" horiz-adv-x="619" 
d="M613 0h-608l261 712h87zM472 92l-161 459l-162 -459h323z" />
    <glyph glyph-name="Omega" unicode="&#x3a9;" horiz-adv-x="647" 
d="M579 0l-207.002 0.000976562v87c42.667 20.667 70.334 48 83.001 82c10.667 30 16 90.667 16 182c0 61.333 -1 100.666 -3 117.999c-5.33301 49.333 -18.333 85 -39 107c-28 30 -63.333 45 -106 45c-42 0 -77 -15 -105 -45c-20.667 -22 -33.667 -57.667 -39 -107
c-2 -17.333 -3 -56.666 -3 -117.999c0 -109.333 8.33301 -176.833 25 -202.5s41 -46.167 73 -61.5v-87h-207v96h70c-19.333 17.333 -34.333 37.666 -45 60.999c-16.667 36 -25 102.333 -25 199c0 82.667 2.66699 138.667 8 168c8.66699 46.667 29 86 61 118
c50.667 50.667 113 76 187 76c74.667 0 137.334 -25.333 188.001 -76c32 -32 52 -71.333 60 -118c5.33301 -28.667 8 -84.667 8 -168c0 -98 -8 -164.333 -24 -199c-10 -22 -25.333 -42.333 -46 -61h70v-96z" />
    <glyph glyph-name="Omega" unicode="&#x2126;" horiz-adv-x="647" 
d="M579 0l-207.002 0.000976562v87c42.667 20.667 70.334 48 83.001 82c10.667 30 16 90.667 16 182c0 61.333 -1 100.666 -3 117.999c-5.33301 49.333 -18.333 85 -39 107c-28 30 -63.333 45 -106 45c-42 0 -77 -15 -105 -45c-20.667 -22 -33.667 -57.667 -39 -107
c-2 -17.333 -3 -56.666 -3 -117.999c0 -109.333 8.33301 -176.833 25 -202.5s41 -46.167 73 -61.5v-87h-207v96h70c-19.333 17.333 -34.333 37.666 -45 60.999c-16.667 36 -25 102.333 -25 199c0 82.667 2.66699 138.667 8 168c8.66699 46.667 29 86 61 118
c50.667 50.667 113 76 187 76c74.667 0 137.334 -25.333 188.001 -76c32 -32 52 -71.333 60 -118c5.33301 -28.667 8 -84.667 8 -168c0 -98 -8 -164.333 -24 -199c-10 -22 -25.333 -42.333 -46 -61h70v-96z" />
    <glyph glyph-name="pi" unicode="&#x3c0;" horiz-adv-x="591" 
d="M503 0h-100v412h-214v-412h-101v507h415v-507z" />
    <glyph glyph-name="endash" unicode="&#x2013;" horiz-adv-x="533" 
d="M482 230h-431v95h431v-95z" />
    <glyph glyph-name="emdash" unicode="&#x2014;" horiz-adv-x="972" 
d="M905 231h-838v97h838v-97z" />
    <glyph glyph-name="quoteleft" unicode="&#x2018;" horiz-adv-x="268" 
d="M190 608h-112v104l112 93v-197z" />
    <glyph glyph-name="quoteright" unicode="&#x2019;" horiz-adv-x="268" 
d="M190 607l-112 -91v196h112v-105z" />
    <glyph glyph-name="quotesinglbase" unicode="&#x201a;" horiz-adv-x="267" 
d="M190 0l-112 -92v197h112v-105z" />
    <glyph glyph-name="quotedblleft" unicode="&#x201c;" horiz-adv-x="459" 
d="M381 608h-112v104l112 93v-197zM190 608h-112v104l112 93v-197z" />
    <glyph glyph-name="quotedblright" unicode="&#x201d;" horiz-adv-x="459" 
d="M381 607l-112 -91v196h112v-105zM190 607l-112 -91v196h112v-105z" />
    <glyph glyph-name="quotedblbase" unicode="&#x201e;" horiz-adv-x="460" 
d="M381 0l-112 -92v197h112v-105zM190 0l-112 -92v197h112v-105z" />
    <glyph glyph-name="dagger" unicode="&#x2020;" horiz-adv-x="591" 
d="M526 427h-180v-427h-102v427h-179v91h179v194h102v-194h180v-91z" />
    <glyph glyph-name="daggerdbl" unicode="&#x2021;" horiz-adv-x="591" 
d="M526 -11h-180v-194h-102v194h-179v92h179v346h-179v91h179v194h102v-194h180v-91h-180v-346h180v-92z" />
    <glyph glyph-name="bullet" unicode="&#x2022;" horiz-adv-x="512" 
d="M419 334c0 -44.667 -15.833 -83 -47.5 -115s-70.167 -48 -115.5 -48c-44.667 0 -83 16 -115 48s-48 70.333 -48 115c0 45.333 16 83.833 48 115.5s70.333 47.5 115 47.5c45.333 0 83.833 -15.833 115.5 -47.5s47.5 -70.167 47.5 -115.5z" />
    <glyph glyph-name="ellipsis" unicode="&#x2026;" horiz-adv-x="803" 
d="M734 70c0 -20 -7.16699 -37.167 -21.5 -51.5s-31.5 -21.5 -51.5 -21.5s-37.167 7.16699 -51.5 21.5s-21.5 31.5 -21.5 51.5s7.16699 37 21.5 51s31.5 21 51.5 21s37.167 -7 51.5 -21s21.5 -31 21.5 -51zM474 70c0 -20 -7.16699 -37.167 -21.5 -51.5
s-31.5 -21.5 -51.5 -21.5s-37 7.16699 -51 21.5s-21 31.5 -21 51.5s7 37 21 51s31 21 51 21s37.167 -7 51.5 -21s21.5 -31 21.5 -51zM215 70c0 -20 -7.16699 -37.167 -21.5 -51.5s-31.5 -21.5 -51.5 -21.5s-37.167 7.16699 -51.5 21.5s-21.5 31.5 -21.5 51.5
s7.16699 37 21.5 51s31.5 21 51.5 21s37.167 -7 51.5 -21s21.5 -31 21.5 -51z" />
    <glyph glyph-name="perthousand" unicode="&#x2030;" horiz-adv-x="1196" 
d="M784 130c0 -42 -13.333 -75.333 -40 -100s-60 -37 -100 -37s-73.333 12.333 -100 37s-40 58 -40 100v101c0 42 13.333 75.333 40 100s60 37 100 37s73.333 -12.333 100 -37s40 -58 40 -100v-101zM629 712l-335 -712h-82l336 712h81zM338 481
c0 -42 -13.333 -75.167 -40 -99.5s-60 -36.5 -100 -36.5s-73.333 12.167 -100 36.5s-40 57.5 -40 99.5v101c0 42 13.333 75.333 40 100s60 37 100 37s73.333 -12.333 100 -37s40 -58 40 -100v-101zM707 133v95c0 48 -21 72 -63 72s-63 -24 -63 -72v-95c0 -48 21 -72 63 -72
s63 24 63 72zM261 484v95c0 48 -21 72 -63 72s-63 -24 -63 -72v-95c0 -47.333 21 -71 63 -71s63 23.667 63 71zM1138 130c0 -42 -13.333 -75.333 -40 -100s-60 -37 -100 -37s-73.333 12.333 -100 37s-40 58 -40 100v101c0 42 13.333 75.333 40 100s60 37 100 37
s73.333 -12.333 100 -37s40 -58 40 -100v-101zM1061 133v95c0 48 -21 72 -63 72s-63 -24 -63 -72v-95c0 -48 21 -72 63 -72s63 24 63 72z" />
    <glyph glyph-name="guilsinglleft" unicode="&#x2039;" horiz-adv-x="339" 
d="M267 42l-230 230l230 229v-123l-107 -106l107 -107v-123z" />
    <glyph glyph-name="guilsinglright" unicode="&#x203a;" horiz-adv-x="339" 
d="M303 272l-231 -230v123l108 107l-108 106v123z" />
    <glyph glyph-name="fraction" unicode="&#x2044;" horiz-adv-x="197" 
d="M307 712l-335 -712h-82l335 712h82z" />
    <glyph glyph-name="trademark" unicode="&#x2122;" horiz-adv-x="883" 
d="M822 285h-77v279l-90 -179h-71l-90 179v-279h-77v427h77l125 -243l126 243h77v-427zM346 643h-115v-358h-76v358h-114v69h305v-69z" />
    <glyph glyph-name="partialdiff" unicode="&#x2202;" horiz-adv-x="549" 
d="M468 249c0 -90.667 -18.832 -155.835 -56.499 -195.502s-86.5 -59.5 -146.5 -59.5c-60.667 0 -109.834 19.833 -147.501 59.5s-56.5 104.834 -56.5 195.501c0 92.667 18.667 158.334 56 197.001s84.666 58 141.999 58c46.667 0 82.334 -14 107.001 -42v47
c0 32.667 -8.66699 60 -26 82c-21.333 26.667 -52.333 40 -93 40c-42 0 -78.667 -14.667 -110 -44l-64 64c48 44.667 107.333 67 178 67c70 0 124.333 -21.333 163 -64c36 -40 54 -94.333 54 -163v-242zM366.001 248.999c0 68 -10.667 113 -32 135
c-18.667 19.333 -41.667 29 -69 29c-28 0 -51.333 -9.66699 -70 -29c-21.333 -22 -32 -67 -32 -135s10.667 -113 32 -135c18.667 -19.333 42 -29 70 -29c27.333 0 50.333 9.66699 69 29c21.333 22 32 67 32 135z" />
    <glyph glyph-name="product" unicode="&#x220f;" horiz-adv-x="690" 
d="M598 -205h-109v869h-288v-869h-108v965h505v-965z" />
    <glyph glyph-name="summation" unicode="&#x2211;" horiz-adv-x="552" 
d="M508 -205h-460v88l195 406l-193 383v88h455v-97h-329l161 -325v-100l-164 -346h335v-97z" />
    <glyph glyph-name="radical" unicode="&#x221a;" horiz-adv-x="580" 
d="M550 615h-91l-202 -615h-84l-168 507h111l99 -313l163 518h172v-97z" />
    <glyph glyph-name="infinity" unicode="&#x221e;" horiz-adv-x="830" 
d="M769 276c0 -50.667 -15.668 -92.333 -47.001 -125s-74 -49 -128 -49c-63.333 0 -123 33 -179 99c-56.667 -66.667 -116.334 -100 -179.001 -100c-54 0 -97 17 -129 51c-30.667 32 -46 73.333 -46 124s15.667 92.5 47 125.5s74 49.5 128 49.5
c62.667 0 122.334 -33.333 179.001 -100c56.667 66.667 116.334 100 179.001 100c54 0 96.667 -16.5 128 -49.5s47 -74.833 47 -125.5zM670.999 274.001c0 23.333 -7.5 42.167 -22.5 56.5s-33.833 21.5 -56.5 21.5c-18.667 0 -37.334 -7.33301 -56.001 -22
c-12 -10 -29.667 -28.667 -53 -56c24 -28 41.667 -46.667 53 -56c18.667 -15.333 37.334 -23 56.001 -23c22.667 0 41.5 7.33301 56.5 22s22.5 33.667 22.5 57zM346.999 274.002c-23.333 27.333 -41 46 -53 56c-19.333 15.333 -38.333 23 -57 23
c-22.667 0 -41.334 -7.33301 -56.001 -22s-22 -33.667 -22 -57s7.33301 -42.333 22 -57s33.334 -22 56.001 -22c18.667 0 37.667 7.66699 57 23c12 10 29.667 28.667 53 56z" />
    <glyph glyph-name="integral" unicode="&#x222b;" horiz-adv-x="433" 
d="M385 633h-44.001c-48 0 -72 -24.667 -72 -74v-599c0 -50 -14.833 -89.5 -44.5 -118.5s-69.5 -43.5 -119.5 -43.5h-57v87h44c47.333 0 71 24.667 71 74v599c0 50 14.833 89.5 44.5 118.5s69.834 43.5 120.501 43.5h57v-87z" />
    <glyph glyph-name="approxequal" unicode="&#x2248;" horiz-adv-x="574" 
d="M531 380c-29.333 -29.333 -54.6689 -49.5 -76.002 -60.5s-45.333 -16.5 -72 -16.5c-31.333 0 -68.666 10.667 -111.999 32c-32.667 16 -59 24 -79 24c-28 0 -56.333 -14.333 -85 -43l-64 64c29.333 29.333 54.5 49.5 75.5 60.5s44.833 16.5 71.5 16.5
c30.667 0 67.667 -10.667 111 -32c32.667 -16 59.334 -24 80.001 -24c28 0 56.333 14.333 85 43zM530.997 178c-29.333 -29.333 -54.499 -49.666 -75.499 -60.999s-44.833 -17 -71.5 -17c-30 0 -67.333 11 -112 33c-32.667 16 -59 24 -79 24c-28 0 -56.667 -14.667 -86 -44
l-64 64c29.333 29.333 54.666 49.666 75.999 60.999s45.333 17 72 17c29.333 0 66.333 -11 111 -33c32.667 -16 59.334 -24 80.001 -24c27.333 0 55.666 14.667 84.999 44z" />
    <glyph glyph-name="approxequal" unicode="&#x22f2;" horiz-adv-x="574" 
d="M531 380c-29.333 -29.333 -54.6689 -49.5 -76.002 -60.5s-45.333 -16.5 -72 -16.5c-31.333 0 -68.666 10.667 -111.999 32c-32.667 16 -59 24 -79 24c-28 0 -56.333 -14.333 -85 -43l-64 64c29.333 29.333 54.5 49.5 75.5 60.5s44.833 16.5 71.5 16.5
c30.667 0 67.667 -10.667 111 -32c32.667 -16 59.334 -24 80.001 -24c28 0 56.333 14.333 85 43zM530.997 178c-29.333 -29.333 -54.499 -49.666 -75.499 -60.999s-44.833 -17 -71.5 -17c-30 0 -67.333 11 -112 33c-32.667 16 -59 24 -79 24c-28 0 -56.667 -14.667 -86 -44
l-64 64c29.333 29.333 54.666 49.666 75.999 60.999s45.333 17 72 17c29.333 0 66.333 -11 111 -33c32.667 -16 59.334 -24 80.001 -24c27.333 0 55.666 14.667 84.999 44z" />
    <glyph glyph-name="notequal" unicode="&#x2260;" horiz-adv-x="571" 
d="M520 133h-303l-103 -120l-63 51l61 69h-61v95h138l88 99h-226v95h302l104 120l63 -51l-61 -69h61v-95h-138l-88 -99h226v-95z" />
    <glyph glyph-name="lessequal" unicode="&#x2264;" horiz-adv-x="1027" 
d="M873 535l-526 -527l487 1l-92 -91h-555v554l92 92l-1 -487l527 527z" />
    <glyph glyph-name="greaterequal" unicode="&#x2265;" horiz-adv-x="1027" 
d="M839 -82h-554l-92 91l487 -1l-527 527l69 69l527 -527l-2 487l92 -93v-553z" />
    <glyph glyph-name="lozenge" unicode="&#x25ca;" horiz-adv-x="642" 
d="M582 346l-261 -365l-260 365l260 365zM467 346l-146 207l-146 -207l146 -208z" />
    <glyph glyph-name="fi" unicode="&#xf001;" horiz-adv-x="582" 
d="M515 672c0 -18 -6.5 -33.5 -19.5 -46.5s-28.5 -19.5 -46.5 -19.5s-33.333 6.5 -46 19.5s-19 28.5 -19 46.5s6.33301 33.5 19 46.5s28 19.5 46 19.5s33.5 -6.5 46.5 -19.5s19.5 -28.5 19.5 -46.5zM500 0h-102v498h102v-498zM296 420h-100v-420h-102v420h-59v78h59v78
c0 39.333 11.333 72 34 98c25.333 28.667 60.333 43 105 43h63v-87h-45c-36.667 0 -55 -19.667 -55 -59v-73h100v-78z" />
    <glyph glyph-name="fl" unicode="&#xf002;" horiz-adv-x="626" 
d="M599 0l-63 -0.000976562c-46 0 -81.333 14 -106 42c-22 24.667 -33 57.334 -33 98.001v572h102v-566c0 -39.333 18.333 -59 55 -59h45v-87zM297 419.999h-100v-420h-102v420h-58v78h58v78c0 39.333 11.333 72 34 98c25.333 28.667 60.333 43 105 43h63v-87h-45
c-36.667 0 -55 -19.667 -55 -59v-73h100v-78z" />
    <glyph glyph-name=".null" horiz-adv-x="0" 
 />
    <glyph glyph-name="nonmarkingreturn" horiz-adv-x="240" 
 />
  </font>
</defs>
</svg>
